<?xml version="1.0" encoding="UTF-8" ?>
<svg xmlns="http://www.w3.org/2000/svg" viewBox="0 0 249.6 256">
  <defs>
    <style>.b{fill: #fff;}</style>
  </defs>
  <ellipse class="b" cx="109.8" cy="218.8" rx="16.2" ry="5.6" />
  <circle class="b" cx="143.6" cy="139.4" r="7.2" />
  <path
    class="b"
    d="M144.5,151.4c-3-6.9-6.4,1.6-18.4.6-1.7,0-3,1.3-3.1,2.9.4,5.2,7.7,3.1,10.6,3-4.9,5.5-10.8,8.8-18.7,11.2-1.6.5-2.5,2.1-2,3.7,3.1,5.4,10.6-.6,14.1-1.8-1.3,3.2-12,11.1-4.1,12.2,7.6,0,13.4-14.9,16.2-19.5,1,5-2.9,9.5,1.6,11.7,8,1.1,3.1-23.3,3.8-24Z"
  />
  <path
    class="b"
    d="M188.9,125.2c-12-6.8-24.2-16.3-35.4-27.5-6.6-6.6-12.6-13.5-17.8-20.6-.7-.9-1.9-1.1-2.8-.4-.9.7-1.1,1.9-.4,2.8,5.4,7.2,11.5,14.3,18.2,21,11.5,11.5,24,21.2,36.3,28.2.3.2.7.3,1,.3.7,0,1.4-.4,1.7-1,.5-1,.2-2.2-.8-2.7Z"
  />
  <path
    class="b"
    d="M187.7,54.5c-2.9,2.9-3.4,7.1-1.2,9.3s6.4,1.7,9.3-1.2c2.9-2.9,3.4-7.1,1.2-9.3s-6.4-1.7-9.3,1.2Z"
  />
  <path
    class="b"
    d="M132.2,29.7c-2.9,1.4-3.7,5.5-1.9,9.2s5.5,5.6,8.4,4.2c2.9-1.4,3.7-5.5,1.9-9.2-1.8-3.7-5.5-5.6-8.4-4.2Z"
  />
  <ellipse
    class="b"
    cx="163.7"
    cy="38.9"
    rx="7.4"
    ry="5.7"
    transform="translate(90.3 190.3) rotate(-77.5)"
  />
  <path
    class="b"
    d="M212.4,90.5c4-.7,6.8-3.9,6.3-7-.6-3.1-4.3-5-8.3-4.3-4,.7-6.8,3.9-6.3,7,.6,3.1,4.3,5,8.3,4.3Z"
  />
  <ellipse
    class="b"
    cx="215"
    cy="114.2"
    rx="5.7"
    ry="7.4"
    transform="translate(28.5 270.6) rotate(-68)"
  />
  <path
    class="b"
    d="M190.2,108.6c-5.1,1-16.5-3.6-28.5-14.4-9.6-8.6-16.6-18.6-17.4-25.1-.1-1.1-1.1-1.9-2.2-1.7-1.1.1-1.9,1.1-1.7,2.2,1,7.4,8.3,18.2,18.7,27.5,10.7,9.6,22.3,15.5,29.7,15.5s1.5,0,2.2-.2c1.1-.2,1.8-1.3,1.6-2.3s-1.3-1.8-2.3-1.6Z"
  />
  <path
    class="b"
    d="M236.6,33.7l-9-9,9.7-9.7c1.7,1,3.8,1.4,6.1.9s5.5-3.2,6.1-6.3c1.1-5.7-3.8-10.6-9.5-9.5s-5.6,3-6.3,6.1,0,4.3.9,6.1l-9.7,9.7-8.2-8.2c-7.5-7.5-19.7-7.5-27.2,0l-.8.8c-33.6-21.2-59.6-13.5-71.6-1.5s-5.9,34.6,10.4,59.5L.5,226.5l-.5.6v.7c0,7.8,9.6,15,27.1,20.3,16.9,5.1,39,8,62.2,8,43.5,0,88.4-10.2,88.8-27.2l16.8-96.4c18.2,8.3,34.2,9.3,42.6,1,12.3-12.3,20.1-38.1-1.6-71.8l.7-.7c7.5-7.5,7.5-19.7,0-27.2ZM174.8,228.3v.3c0,11.3-34.1,23.4-84.8,23.4s-44.5-2.8-61.1-7.8c-14.6-4.4-23.6-10.3-24.2-15.8L147.2,55.6c1.1-1.2,4.5-1.6,10.9,1,6.2,2.6,13.4,7.3,20.2,13.3,12.6,11,19.7,23.2,19.2,28.2l-22.7,130.3ZM234.8,131c-7.4,7.4-21.8,6-38.7-2l5.3-30.4h0c.8-7.3-7.8-20.6-20.6-31.8-7.1-6.3-14.7-11.2-21.3-14-7.4-3.1-12.7-3-15.5.1l-13.8,16.8c-15.1-22.9-20-44.2-10.5-53.7,13.3-13.3,49.8,1.6,81.6,33.4s46.7,68.3,33.4,81.6Z"
  />
</svg>
