<?xml version="1.0" encoding="UTF-8" ?>
<svg xmlns="http://www.w3.org/2000/svg" viewBox="0 0 249.56 256">
  <defs>
    <style>.b{fill:white;}</style>
  </defs>
  <ellipse class="b" cx="109.84" cy="218.83" rx="16.21" ry="5.61" />
  <circle class="b" cx="143.63" cy="139.42" r="7.18" />
  <path
    class="b"
    d="M144.49,151.39c-3-6.89-6.37,1.64-18.36.56-1.65-.05-3.04,1.26-3.09,2.91.35,5.2,7.74,3.13,10.57,2.99-4.9,5.47-10.81,8.81-18.69,11.19-1.59.48-2.49,2.15-2.01,3.74,3.11,5.44,10.64-.65,14.09-1.82-1.3,3.19-12,11.1-4.1,12.17,7.57,0,13.39-14.88,16.24-19.46.96,5.02-2.9,9.51,1.58,11.7,7.99,1.14,3.08-23.33,3.77-23.97Z"
  />
  <path
    class="b"
    d="M188.92,125.21c-11.96-6.78-24.21-16.29-35.42-27.5-6.58-6.58-12.56-13.5-17.8-20.57-.66-.89-1.91-1.08-2.8-.42-.89.66-1.08,1.91-.42,2.8,5.35,7.23,11.47,14.31,18.18,21.02,11.46,11.46,24,21.2,36.28,28.15.31.18.65.26.98.26.7,0,1.37-.36,1.74-1.01.54-.96.21-2.18-.75-2.73Z"
  />
  <path
    class="b"
    d="M187.7,54.5c-2.9,2.9-3.43,7.07-1.2,9.3s6.41,1.7,9.3-1.2c2.9-2.9,3.43-7.07,1.2-9.3s-6.41-1.7-9.31,1.2Z"
  />
  <path
    class="b"
    d="M132.18,29.66c-2.85,1.38-3.71,5.49-1.93,9.18s5.54,5.57,8.4,4.19c2.85-1.38,3.71-5.49,1.93-9.18-1.79-3.69-5.54-5.57-8.4-4.19Z"
  />
  <ellipse
    class="b"
    cx="163.68"
    cy="38.92"
    rx="7.42"
    ry="5.73"
    transform="translate(90.32 190.33) rotate(-77.53)"
  />
  <path
    class="b"
    d="M212.38,90.55c4.03-.74,6.84-3.86,6.27-6.98-.57-3.12-4.3-5.04-8.34-4.3-4.03.74-6.84,3.86-6.27,6.98.57,3.12,4.3,5.04,8.34,4.3Z"
  />
  <ellipse
    class="b"
    cx="215.03"
    cy="114.18"
    rx="5.73"
    ry="7.42"
    transform="translate(28.48 270.63) rotate(-67.95)"
  />
  <path
    class="b"
    d="M190.22,108.59c-5.06,1-16.5-3.63-28.55-14.4-9.59-8.57-16.59-18.64-17.44-25.05-.14-1.1-1.15-1.87-2.24-1.72-1.09.14-1.87,1.15-1.72,2.24.97,7.41,8.33,18.21,18.74,27.51,10.73,9.59,22.26,15.55,29.74,15.55.8,0,1.55-.07,2.25-.21,1.08-.21,1.79-1.27,1.57-2.35s-1.26-1.79-2.35-1.57Z"
  />
  <path
    class="b"
    d="M236.57,33.75l-8.96-8.96,9.69-9.69c1.71,1.02,3.82,1.44,6.05.92,3.07-.71,5.49-3.24,6.06-6.34,1.06-5.7-3.83-10.59-9.53-9.53-3.09.58-5.63,3-6.34,6.06-.52,2.23-.1,4.34.92,6.05l-9.69,9.69-8.24-8.24c-7.51-7.51-19.68-7.51-27.18,0l-.76.76c-33.61-21.22-59.6-13.5-71.59-1.51-10.88,10.88-5.92,34.58,10.43,59.51L.46,226.45l-.46.55v.72c0,7.78,9.63,14.99,27.12,20.31,16.91,5.14,39,7.97,62.22,7.97,43.47,0,88.43-10.16,88.75-27.18l16.83-96.36c18.25,8.33,34.19,9.33,42.55.96,12.31-12.31,20.06-38.07-1.57-71.83l.67-.67c7.51-7.51,7.51-19.68,0-27.18ZM174.78,228.3l-.03.34c0,11.28-34.06,23.36-84.75,23.36-22.83,0-44.52-2.77-61.06-7.8-14.61-4.44-23.57-10.31-24.24-15.81L147.21,55.56c1.1-1.25,4.53-1.64,10.87,1,6.21,2.58,13.38,7.3,20.21,13.29,12.55,11.02,19.74,23.18,19.24,28.18l-22.75,130.26ZM234.85,131.03c-7.36,7.36-21.84,6.04-38.68-1.96l5.31-30.42.02-.12c.81-7.19-7.84-20.52-20.57-31.69-7.14-6.27-14.71-11.23-21.31-13.98-7.36-3.06-12.69-3.04-15.45.1l-13.83,16.78c-15.07-22.94-19.96-44.21-10.47-53.7,13.31-13.31,49.84,1.64,81.59,33.4s46.7,68.28,33.4,81.59Z"
  />
</svg>
