<?xml version="1.0" encoding="UTF-8" ?>
<svg xmlns="http://www.w3.org/2000/svg" viewBox="0 0 256 256">
  <defs>
    <style>.b{fill:white;}</style>
  </defs>
  <path
    class="b"
    d="M128.4,119.1c-4.9,0-8.8,4-8.8,8.8s4,8.8,8.8,8.8,8.8-4,8.8-8.8-4-8.8-8.8-8.8Z"
  />
  <path
    class="b"
    d="M128.4,107.3c-11.4,0-20.7,9.3-20.7,20.7s9.3,20.7,20.7,20.7,20.7-9.3,20.7-20.7-9.3-20.7-20.7-20.7ZM128.4,138.8c-6,0-10.8-4.9-10.8-10.8s4.9-10.8,10.8-10.8,10.8,4.9,10.8,10.8-4.9,10.8-10.8,10.8Z"
  />
  <path
    class="b"
    d="M128.4,97.5c-16.8,0-30.5,13.7-30.5,30.5s13.7,30.5,30.5,30.5,30.5-13.7,30.5-30.5-13.7-30.5-30.5-30.5ZM128.4,150.7c-12.5,0-22.7-10.2-22.7-22.7s10.2-22.7,22.7-22.7,22.7,10.2,22.7,22.7-10.2,22.7-22.7,22.7Z"
  />
  <path
    class="b"
    d="M128,0C57.3,0,0,57.3,0,128s57.3,128,128,128,128-57.3,128-128S198.7,0,128,0ZM177.9,128c0,13.1-5.1,25-13.4,33.9l48.1,48.1c.8.8.8,2,0,2.8s-.9.6-1.4.6-1-.2-1.4-.6l-48.2-48.2c-8.8,8-20.4,12.8-33.2,12.8s-24.9-5.1-33.7-13.3l-49,49c-.4.4-.9.6-1.4.6s-1-.2-1.4-.6c-.8-.8-.8-2,0-2.8l49-49c-8-8.8-12.9-20.5-12.9-33.3s4.9-24.4,12.8-33.2l-49.8-49.8c-.8-.8-.8-2,0-2.8.8-.8,2-.8,2.8,0l49.8,49.8c8.9-8.3,20.8-13.4,33.8-13.4s24.5,4.9,33.3,12.9l48.6-48.6c.8-.8,2-.8,2.8,0,.8.8.8,2,0,2.8l-48.6,48.6c8.3,8.8,13.3,20.7,13.3,33.7Z"
  />
</svg>
