<?xml version="1.0" encoding="UTF-8" ?>
<svg xmlns="http://www.w3.org/2000/svg" viewBox="0 0 222 250">
  <defs>
    <style>.b{fill:white;}</style>
  </defs>
  <path
    class="b"
    d="M111.5,0c-8,0-14.5,6.5-14.5,14.5v221c0,8,6.5,14.5,14.5,14.5s14.5-6.5,14.5-14.5V14.5c0-8-6.5-14.5-14.5-14.5Z"
  />
  <path
    class="b"
    d="M62.5,25c-8,0-14.5,6.5-14.5,14.5v170c0,8,6.5,14.5,14.5,14.5s14.5-6.5,14.5-14.5V39.5c0-8-6.5-14.5-14.5-14.5Z"
  />
  <path
    class="b"
    d="M158.5,65c-8,0-14.5,6.5-14.5,14.5v91c0,8,6.5,14.5,14.5,14.5s14.5-6.5,14.5-14.5v-91c0-8-6.5-14.5-14.5-14.5Z"
  />
  <path
    class="b"
    d="M14.5,61c-8,0-14.5,6.5-14.5,14.5v99c0,8,6.5,14.5,14.5,14.5s14.5-6.5,14.5-14.5v-99c0-8-6.5-14.5-14.5-14.5Z"
  />
  <path
    class="b"
    d="M207.5,101c-8,0-14.5,6.5-14.5,14.5v19c0,8,6.5,14.5,14.5,14.5s14.5-6.5,14.5-14.5v-19c0-8-6.5-14.5-14.5-14.5Z"
  />
</svg>
