<?xml version="1.0" encoding="UTF-8"?>
<svg xmlns="http://www.w3.org/2000/svg" viewBox="0 0 254 160.8">
  <defs>
    <style>
      .b {
        fill: #dbdbdb;
      }

      .c {
        fill: #474747;
      }
    </style>
  </defs>
  <path class="b" d="M19,58.4c-6.1,0-11,4.9-11,11v22.2c0,6.1,4.9,11,11,11s11-4.9,11-11v-22.2c0-6.1-4.9-11-11-11Z"/>
  <path class="b" d="M235,66.6c-6.1,0-11,4.9-11,11v5.8c0,6.1,4.9,11,11,11s11-4.9,11-11v-5.8c0-6.1-4.9-11-11-11Z"/>
  <path class="b" d="M141.8,68.8c-6.1,0-11,4.9-11,11v1.3c0,6.1,4.9,11,11,11s11-4.9,11-11v-1.3c0-6.1-4.9-11-11-11Z"/>
  <path class="b" d="M111.5,66.5c-6.1,0-11,4.9-11,11v5.8c0,6.1,4.9,11,11,11s11-4.9,11-11v-5.8c0-6.1-4.9-11-11-11Z"/>
  <path class="b" d="M204,54.7c-6.1,0-11,4.9-11,11v29.7c0,6.1,4.9,11,11,11s11-4.9,11-11v-29.7c0-6.1-4.9-11-11-11Z"/>
  <path class="b" d="M172.9,34.3c-6.1,0-11,4.9-11,11v70.6c0,6.1,4.9,11,11,11s11-4.9,11-11V45.3c0-6.1-4.9-11-11-11Z"/>
  <path class="b" d="M80.4,48.1c-6.1,0-11,4.9-11,11v42.9c0,6.1,4.9,11,11,11s11-4.9,11-11v-42.9c0-6.1-4.9-11-11-11Z"/>
  <path class="b" d="M50,8c-6.1,0-11,4.9-11,11v122.8c0,6.1,4.9,11,11,11s11-4.9,11-11V19c0-6.1-4.9-11-11-11Z"/>
  <path class="c" d="M235,58.6c-4.6,0-8.8,1.7-12.1,4.4-1.3-9.2-9.2-16.3-18.8-16.3s-8.8,1.7-12.1,4.4v-5.8c0-10.5-8.5-19-19-19s-19,8.5-19,19v20c-3.3-2.7-7.5-4.4-12.1-4.4s-10.8,2.5-14.3,6.5c-3.4-5.3-9.3-8.8-16-8.8s-8.8,1.7-12.1,4.4v-3.8c0-10.5-8.5-19-19-19s-8.2,1.4-11.4,3.8v-25c0-10.5-8.5-19-19-19s-19,8.5-19,19v35.7c-3.3-2.7-7.5-4.3-12-4.3-10.5,0-19,8.5-19,19v22.2c0,10.5,8.5,19,19,19s8.7-1.6,12-4.3v35.5c0,10.5,8.5,19,19,19s19-8.5,19-19v-24.6c3.2,2.4,7.1,3.8,11.4,3.8,10.5,0,19-8.5,19-19v-4c3.3,2.7,7.5,4.4,12.1,4.4,6.7,0,12.6-3.5,16-8.8,3.5,4,8.6,6.5,14.3,6.5s8.8-1.7,12.1-4.4v20.2c0,10.5,8.5,19,19,19s19-8.5,19-19v-5.8c3.3,2.7,7.5,4.4,12.1,4.4,9.6,0,17.5-7.1,18.8-16.3,3.3,2.7,7.5,4.4,12.1,4.4,10.5,0,19-8.5,19-19v-5.8c0-10.5-8.5-19-19-19ZM28,91.6c0,5-4,9-9,9s-9-4-9-9v-22.2c0-5,4-9,9-9s9,4,9,9v22.2ZM59,141.8c0,5-4,9-9,9s-9-4-9-9V19c0-5,4-9,9-9s9,4,9,9v122.8ZM89.4,102c0,5-4,9-9,9s-9-4-9-9v-42.9c0-5,4-9,9-9s9,4,9,9v42.9ZM120.5,83.4c0,5-4,9-9,9s-9-4-9-9v-5.8c0-5,4-9,9-9s9,4,9,9v5.8ZM150.8,81.1c0,5-4,9-9,9s-9-4-9-9v-1.3c0-5,4-9,9-9s9,4,9,9v1.3ZM181.9,115.9c0,5-4,9-9,9s-9-4-9-9V45.3c0-5,4-9,9-9s9,4,9,9v70.6ZM213,95.4c0,5-4,9-9,9s-9-4-9-9v-29.7c0-5,4-9,9-9s9,4,9,9v29.7ZM244,83.5c0,5-4,9-9,9s-9-4-9-9v-5.8c0-5,4-9,9-9s9,4,9,9v5.8Z"/>
</svg>
