<?xml version="1.0" encoding="UTF-8"?>
<svg xmlns="http://www.w3.org/2000/svg" width="138" height="101" viewBox="0 0 138 101">
  <defs>
    <style>
      .b {
        fill: #fff;
        stroke-width: 0px;
      }
    </style>
  </defs>
  <path class="b" d="M131.8,18h-30.3c-2.2,0-4.2-1.1-5.3-3l-7.4-12.1c-1.1-1.8-3.1-3-5.3-3h-29.9c-2.2,0-4.3,1.2-5.4,3.1l-6.6,11.7c-1.1,1.9-3.2,3.1-5.4,3.1H6.2c-3.4,0-6.2,2.8-6.2,6.2v70.6c0,3.4,2.8,6.2,6.2,6.2h125.6c3.4,0,6.2-2.8,6.2-6.2V24.2c0-3.4-2.8-6.2-6.2-6.2ZM41.5,61.6c-2.4-.4-4-2.6-4-5.1,0-16.9,13.8-30.6,30.7-30.6s14.7,2.7,20.4,7.7l6.4-6.4v19.8s-19.8,0-19.8,0l6.3-6.3c-3.7-3.1-8.4-4.8-13.3-4.8-11.4,0-20.7,9.3-20.7,20.7s-2.8,5.5-6,4.9ZM68.4,86.7c-7.4,0-14.5-2.6-20.1-7.5l-6.3,6.5-.3-19.8,19.8-.3-6.2,6.4c3.7,3,8.3,4.6,13.1,4.6,11.4,0,20.7-9.3,20.7-20.7s1.9-4.7,4.4-5,5.6,2,5.6,5c0,17-13.8,30.8-30.7,30.8Z"/>
</svg>
