<?xml version="1.0" encoding="UTF-8"?>
<svg xmlns="http://www.w3.org/2000/svg" viewBox="0 0 196 196">
  <defs>
    <style>.b{fill:#fff;}</style>
  </defs>
  <path class="b" d="M98,0C43.9,0,0,43.9,0,98s43.9,98,98,98,98-43.9,98-98S152.1,0,98,0ZM91.6,33.5c2.4-1.8,5.4-2.8,8.9-2.8s6.2.9,8.7,2.8c2.5,1.8,3.7,4.4,3.7,7.7,0,6.8-.2,14.3-.6,22.6-.4,8.3-.8,16.6-1.2,24.9-.4,8.3-.6,15.9-.6,22.8s-1.1,4.6-3.4,5.8c-2.3,1.2-4.5,1.8-6.5,1.8s-5.1-.6-7.1-1.8-3-3.1-3-5.8c0-6.9-.2-14.5-.6-22.8-.4-8.3-.8-16.6-1.2-24.9-.4-8.3-.6-15.9-.6-22.6s1.2-5.9,3.6-7.7ZM110,153.5c-2.6,2.6-5.7,4-9.2,4s-6.9-1.3-9.5-4c-2.5-2.6-3.8-5.7-3.8-9.3s1.3-6.8,3.8-9.4c2.5-2.6,5.7-3.9,9.5-3.9s6.6,1.3,9.2,3.9,3.9,5.7,3.9,9.4-1.3,6.7-3.9,9.3Z"/>
</svg>
