<svg xmlns="http://www.w3.org/2000/svg" viewBox="-18.4 -20 128 128"><defs><style>.b,.c{stroke-width:6px;fill:none;stroke:#fff;stroke-linecap:round;stroke-miterlimit:10}.c{stroke-width:8px}.d{fill:#fff;stroke-width:0}</style></defs><g><rect width="22" height="36" x="10" class="d" rx="10" ry="10"/><path d="m4,30s3,12.3,17,12.2,16.2-12.2,16.2-12.2" class="c"/><line x1="21" x2="21" y1="42" y2="52" class="b"/><line x1="11" x2="31" y1="52" y2="52" class="c"/></g><g><rect width="22" height="36" x="60" y="32" class="d" rx="10" ry="10"/><path d="m54,62s3,12.3,17,12.2,16.2-12.2,16.2-12.2" class="c"/><line x1="71" x2="71" y1="74" y2="84" class="b"/><line x1="61" x2="81" y1="84" y2="84" class="c"/></g><g><polyline points="15 70 20.6 66.1 26.7 70" class="c"/><path d="m50.6,84h-23.9c-2.7,0-5.7-2-5.7-4s-.4-13.9-.4-13.9" class="c"/></g><g><polyline points="76.6 18 71 21.9 64.9 18" class="c"/><path d="m41,4h23.9c2.7,0,5.7,2,5.7,4s.4,13.9.4,13.9" class="c"/></g></svg>