<?xml version="1.0" encoding="UTF-8"?>
<svg xmlns="http://www.w3.org/2000/svg" viewBox="0 0 91.2 88">
  <defs>
    <style>
      .b {
        fill: white;
        stroke-width: 0px;
      }

      .c {
        stroke-width: 6px;
      }

      .c, .d {
        fill: none;
        stroke: white;
        stroke-linecap: round;
        stroke-miterlimit: 10;
      }

      .d {
        stroke-width: 8px;
      }
    </style>
  </defs>
  <g>
    <rect class="b" x="9.6" width="22" height="36" rx="10" ry="10"/>
    <path class="d" d="M4,30s3,12.3,17,12.2,16.2-12.2,16.2-12.2"/>
    <line class="c" x1="20.6" y1="42" x2="20.6" y2="52"/>
    <line class="d" x1="10.6" y1="52" x2="30.6" y2="52"/>
  </g>
  <g>
    <rect class="b" x="59.6" y="32" width="22" height="36" rx="10" ry="10"/>
    <path class="d" d="M54,62s3,12.3,17,12.2,16.2-12.2,16.2-12.2"/>
    <line class="c" x1="70.6" y1="74" x2="70.6" y2="84"/>
    <line class="d" x1="60.6" y1="84" x2="80.6" y2="84"/>
  </g>
  <g>
    <polyline class="d" points="15 70 20.6 66.1 26.7 70"/>
    <path class="d" d="M50.6,84h-23.9c-2.7,0-5.7-2-5.7-4s-.4-13.9-.4-13.9"/>
  </g>
  <g>
    <polyline class="d" points="76.6 18 71 21.9 64.9 18"/>
    <path class="d" d="M40.6,4s18.6,0,24.3,0,5.7,2,5.7,4,.4,13.9.4,13.9"/>
  </g>
</svg>
