<?xml version="1.0" encoding="UTF-8"?>
<svg xmlns="http://www.w3.org/2000/svg" viewBox="0 0 245 245">
  <defs>
    <style>.b{fill:#fff;}</style>
  </defs>
  <path class="b" d="M122.6,245h0c-8,0-16-.8-23.8-2.3-3.3-.6-5.4-3.8-4.7-7,.6-3.3,3.8-5.4,7-4.7,7,1.4,14.3,2.1,21.5,2.1s6,2.7,6,6-2.7,6-6,6ZM145.3,242.8c-2.8,0-5.3-2-5.9-4.8-.6-3.2,1.5-6.4,4.7-7.1,7.1-1.4,14.1-3.5,20.7-6.3,3.1-1.3,6.6.2,7.8,3.2,1.3,3.1-.2,6.6-3.2,7.8-7.4,3.1-15.1,5.4-23,7-.4,0-.8.1-1.2.1ZM78,236.2c-.8,0-1.5-.1-2.3-.5-7.4-3.1-14.5-6.9-21.2-11.3-2.8-1.8-3.5-5.6-1.7-8.3s5.6-3.5,8.3-1.7c6,4,12.4,7.5,19.1,10.2,3.1,1.3,4.5,4.8,3.3,7.8-1,2.3-3.2,3.7-5.5,3.7ZM187.3,225.4c-1.9,0-3.8-.9-5-2.7-1.8-2.8-1.1-6.5,1.6-8.3,6-4,11.6-8.6,16.7-13.8,2.3-2.3,6.1-2.3,8.5,0,2.3,2.3,2.3,6.1,0,8.5-5.7,5.7-11.9,10.8-18.5,15.2-1,.7-2.2,1-3.3,1ZM40.2,210.9c-1.5,0-3.1-.6-4.2-1.8-5.7-5.7-10.8-11.9-15.3-18.5-1.8-2.8-1.1-6.5,1.6-8.3,2.8-1.8,6.5-1.1,8.3,1.6,4,6,8.7,11.6,13.8,16.7,2.3,2.3,2.3,6.1,0,8.5-1.2,1.2-2.7,1.8-4.2,1.8ZM219.4,193.2c-1.1,0-2.3-.3-3.3-1-2.8-1.8-3.5-5.6-1.6-8.3,4-6,7.5-12.4,10.2-19.1,1.3-3.1,4.8-4.5,7.8-3.2,3.1,1.3,4.5,4.8,3.2,7.8-3.1,7.4-6.9,14.5-11.3,21.2-1.2,1.7-3.1,2.7-5,2.7ZM14.9,173.2c-2.4,0-4.6-1.4-5.5-3.7-3.1-7.4-5.4-15.1-7-23-.6-3.2,1.5-6.4,4.7-7.1,3.2-.6,6.4,1.5,7.1,4.7,1.4,7.1,3.5,14,6.3,20.7,1.3,3.1-.2,6.6-3.2,7.8-.8.3-1.5.5-2.3.5ZM236.8,151.2c-.4,0-.8,0-1.2-.1-3.3-.6-5.4-3.8-4.7-7,1.4-7,2.1-14.3,2.1-21.6v-.3c0-3.3,2.7-6,6-6s6,2.7,6,6v.2c0,8.1-.8,16.1-2.3,24-.6,2.9-3.1,4.8-5.9,4.8ZM6,128.6C2.7,128.6,0,125.9,0,122.6H0c0-8.1.8-16.1,2.3-23.9.6-3.3,3.8-5.4,7-4.7,3.3.6,5.4,3.8,4.7,7-1.4,7-2.1,14.2-2.1,21.4h0c0,3.4-2.7,6.1-6,6.1ZM236.7,105.5c-2.8,0-5.3-2-5.9-4.8-1.4-7.1-3.5-14-6.3-20.7-1.3-3.1.2-6.6,3.2-7.8,3.1-1.3,6.6.2,7.8,3.2,3.1,7.4,5.4,15.1,7,23,.7,3.2-1.5,6.4-4.7,7.1-.4,0-.8.1-1.2.1ZM14.8,84.1c-.8,0-1.5-.1-2.3-.5-3.1-1.3-4.5-4.8-3.3-7.8,3.1-7.4,6.9-14.5,11.3-21.2,1.8-2.8,5.6-3.5,8.3-1.7,2.8,1.8,3.5,5.6,1.7,8.3-4,6-7.4,12.4-10.2,19.1-1,2.3-3.2,3.7-5.5,3.7ZM219.2,63.6c-1.9,0-3.8-.9-5-2.7-4-6-8.7-11.6-13.8-16.7-2.3-2.3-2.4-6.1,0-8.5,2.3-2.3,6.1-2.4,8.5,0,5.7,5.6,10.8,11.9,15.3,18.5,1.8,2.7,1.1,6.5-1.6,8.3-1,.7-2.2,1-3.3,1ZM40,46.2c-1.5,0-3.1-.6-4.2-1.8-2.3-2.3-2.4-6.1,0-8.5,5.7-5.7,11.9-10.8,18.5-15.3,2.7-1.8,6.5-1.1,8.3,1.6,1.8,2.8,1.1,6.5-1.6,8.3-6,4-11.6,8.7-16.7,13.8-1.2,1.2-2.7,1.8-4.2,1.8ZM187,31.5c-1.1,0-2.3-.3-3.3-1-6-4-12.4-7.4-19.1-10.2-3.1-1.3-4.5-4.8-3.3-7.8,1.3-3.1,4.8-4.5,7.8-3.3,7.4,3,14.5,6.8,21.2,11.3,2.8,1.8,3.5,5.6,1.7,8.3s-3.1,2.7-5,2.7ZM77.7,20.9c-2.4,0-4.6-1.4-5.5-3.7-1.3-3.1.2-6.6,3.2-7.8,7.4-3.1,15.1-5.4,23-7,3.3-.7,6.4,1.5,7.1,4.7.6,3.2-1.5,6.4-4.7,7.1-7.1,1.4-14,3.5-20.7,6.3-.8.3-1.5.5-2.3.5ZM145,14.2c-.4,0-.8,0-1.2-.1-7-1.4-14.2-2.1-21.4-2.1h-.2c-3.3,0-6-2.7-6-6S119,0,122.3,0h.1s0,0,0,0c8,0,16,.8,23.8,2.3,3.3.6,5.4,3.8,4.7,7-.6,2.9-3.1,4.8-5.9,4.8Z"/>
</svg>
