<?xml version="1.0" encoding="UTF-8" ?>
<svg xmlns="http://www.w3.org/2000/svg" viewBox="0 0 71 71">
  <defs>
    <style>
      .b{fill:#123294;}
      .c{fill:#ffca1e;}
    </style>
  </defs>
  <circle class="b" cx="35.5" cy="35.5" r="35.5" />
  <polygon
    class="c"
    points="34.8 5.9 35.8 9 39 9 36.4 10.9 37.4 14 34.8 12.1 32.1 14 33.1 10.9 30.5 9 33.8 9 34.8 5.9"
  />
  <polygon
    class="c"
    points="47.4 8.9 48.5 12 51.7 12 49.1 13.9 50.1 17 47.4 15.1 44.8 17 45.8 13.9 43.2 12 46.4 12 47.4 8.9"
  />
  <polygon
    class="c"
    points="56.8 18.9 57.8 22 61 22 58.4 23.9 59.4 27 56.8 25.1 54.1 27 55.1 23.9 52.5 22 55.8 22 56.8 18.9"
  />
  <polygon
    class="c"
    points="60.4 30.9 61.4 34 64.6 34 62 35.9 63 39 60.4 37.1 57.8 39 58.8 35.9 56.1 34 59.4 34 60.4 30.9"
  />
  <polygon
    class="c"
    points="56.8 43.9 57.8 47 61 47 58.4 48.9 59.4 52 56.8 50.1 54.1 52 55.1 48.9 52.5 47 55.8 47 56.8 43.9"
  />
  <polygon
    class="c"
    points="47.5 53.9 48.5 57 51.7 57 49.1 58.9 50.1 62 47.5 60.1 44.8 62 45.8 58.9 43.2 57 46.5 57 47.5 53.9"
  />
  <polygon
    class="c"
    points="34.8 56.9 35.8 60 39 60 36.4 61.9 37.4 65 34.8 63.1 32.1 65 33.1 61.9 30.5 60 33.8 60 34.8 56.9"
  />
  <polygon
    class="c"
    points="22.3 52.9 23.4 56 26.6 56 24 57.9 25 61 22.3 59.1 19.7 61 20.7 57.9 18.1 56 21.3 56 22.3 52.9"
  />
  <polygon
    class="c"
    points="12.8 43.9 13.8 47 17 47 14.4 48.9 15.4 52 12.8 50.1 10.2 52 11.2 48.9 8.5 47 11.8 47 12.8 43.9"
  />
  <polygon
    class="c"
    points="9.2 31.9 10.2 35 13.4 35 10.8 36.9 11.8 40 9.2 38.1 6.5 40 7.5 36.9 4.9 35 8.2 35 9.2 31.9"
  />
  <polygon
    class="c"
    points="12.8 18.9 13.8 22 17 22 14.4 23.9 15.4 27 12.8 25.1 10.2 27 11.2 23.9 8.5 22 11.8 22 12.8 18.9"
  />
  <polygon
    class="c"
    points="22.3 9.9 23.4 13 26.6 13 24 14.9 25 18 22.3 16.1 19.7 18 20.7 14.9 18.1 13 21.3 13 22.3 9.9"
  />
</svg>
