<?xml version="1.0" encoding="UTF-8"?>
<svg xmlns="http://www.w3.org/2000/svg" viewBox="0 0 105 82">
  <defs>
    <style>.b{fill:#fff;}</style>
  </defs>
  <path class="b" d="M18,69.1l2.1,11c.2,1.1,1.2,1.9,2.3,1.9h59c1.1,0,2.1-.8,2.3-1.9l2.3-11c.3-1.6-.9-3.2-2.6-3.2H20.6c-1.6,0-2.9,1.5-2.6,3.1Z"/>
  <path class="b" d="M96.7,6c-3.4.4-6.2,3.1-6.6,6.5-.3,2.3.5,4.4,1.8,6l-18.8,16.7c-1.1,1-2.8.7-3.5-.5l-13-20.9c2.4-1.6,3.9-4.5,3.3-7.7S57,.7,54,.1c-4.8-.9-9,2.7-9,7.4s1.6,5.4,4,6.7l-12.7,19.7c-.7,1.2-2.3,1.4-3.4.6l-20.1-15.7c1.6-1.7,2.5-4.1,2-6.7s-2.9-5.3-5.9-5.8C4.2,5.2,0,8.9,0,13.5s3.4,7.5,7.5,7.5.8,0,1.2-.1l6.8,35.5c.3,1.5,1.6,2.7,3.2,2.7h66.6c1.6,0,2.9-1.1,3.2-2.6l7.4-35.5c.9.2,1.8.2,2.7,0,3.3-.5,5.9-3.3,6.2-6.7.5-4.8-3.5-8.7-8.3-8.2Z"/>
</svg>
