<?xml version="1.0" encoding="UTF-8" ?>
<svg xmlns="http://www.w3.org/2000/svg" viewBox="0 0 234.17 234.17">
  <defs>
    <style>.b{fill:white;}</style>
  </defs>
  <path
    class="b"
    d="M148.1,80.59s-22.01-40.95-30.52-40.95-30.52,40.95-30.52,40.95c-.64.86-.98,1.9-.98,2.97v81.53c0,1.43.61,2.79,1.68,3.74,4.63,4.09,18.02,14.93,29.82,14.93s25.1-10.84,29.79-14.93c1.09-.95,1.71-2.32,1.71-3.76v-81.5c0-1.07-.35-2.11-.98-2.97Z"
  />
  <path
    class="b"
    d="M58.53,81.86l-30.93-30.93c-1.89-1.89-2.93-4.4-2.93-7.07,0-2.67,1.04-5.18,2.93-7.07l9.2-9.2c1.89-1.89,4.4-2.93,7.07-2.93s5.18,1.04,7.07,2.93l30.93,30.93c2.02-4.95,3.14-10.36,3.14-16.03C85,19.03,65.97,0,42.5,0S0,19.03,0,42.5s19.03,42.5,42.5,42.5c5.67,0,11.08-1.12,16.03-3.14Z"
  />
  <path
    class="b"
    d="M191.67,0c-23.47,0-42.5,19.03-42.5,42.5,0,5.67,1.12,11.08,3.14,16.03l30.93-30.93c1.89-1.89,4.4-2.93,7.07-2.93s5.18,1.04,7.07,2.93l9.2,9.2c1.89,1.89,2.93,4.4,2.93,7.07,0,2.67-1.04,5.18-2.93,7.07l-30.93,30.93c4.95,2.02,10.36,3.14,16.03,3.14,23.47,0,42.5-19.03,42.5-42.5S215.14,0,191.67,0Z"
  />
  <path
    class="b"
    d="M191.67,149.17c-5.67,0-11.08,1.12-16.03,3.14l30.93,30.93c1.89,1.89,2.93,4.4,2.93,7.07,0,2.67-1.04,5.18-2.93,7.07l-9.2,9.2c-1.89,1.89-4.4,2.93-7.07,2.93s-5.18-1.04-7.07-2.93l-30.93-30.93c-2.02,4.95-3.14,10.36-3.14,16.03,0,23.47,19.03,42.5,42.5,42.5s42.5-19.03,42.5-42.5-19.03-42.5-42.5-42.5Z"
  />
  <path
    class="b"
    d="M50.93,206.57c-1.89,1.89-4.4,2.93-7.07,2.93s-5.18-1.04-7.07-2.93l-9.2-9.2c-1.89-1.89-2.93-4.4-2.93-7.07,0-2.67,1.04-5.18,2.93-7.07l30.93-30.93c-4.95-2.02-10.36-3.14-16.03-3.14-23.47,0-42.5,19.03-42.5,42.5s19.03,42.5,42.5,42.5,42.5-19.03,42.5-42.5c0-5.67-1.12-11.08-3.14-16.03l-30.93,30.93Z"
  />
  <path
    class="b"
    d="M152.35,77.76c1.12,1.65,1.73,3.63,1.73,5.62v13.27l49.25-49.25c1.95-1.95,1.95-5.11,0-7.06l-9.2-9.2c-1.95-1.95-5.11-1.95-7.06,0l-39,39c2.23,3.86,3.8,6.74,4.28,7.62Z"
  />
  <path
    class="b"
    d="M154.09,137.52v27.9c0,1.34-.28,2.64-.78,3.85l33.77,33.77c1.95,1.95,5.11,1.95,7.06,0l9.2-9.2c1.95-1.95,1.95-5.11,0-7.06l-49.25-49.25Z"
  />
  <path
    class="b"
    d="M80.09,96.65v-13.27c0-1.99.61-3.96,1.72-5.61.48-.91,2.04-3.81,4.25-7.69L47.09,31.13c-1.95-1.95-5.11-1.95-7.06,0l-9.2,9.2c-1.95,1.95-1.95,5.11,0,7.06l49.25,49.25Z"
  />
  <path
    class="b"
    d="M80.09,165.44v-27.92l-49.25,49.25c-1.95,1.95-1.95,5.11,0,7.06l9.2,9.2c1.95,1.95,5.11,1.95,7.06,0l33.77-33.77c-.5-1.2-.78-2.5-.78-3.83Z"
  />
</svg>
