<?xml version="1.0" encoding="UTF-8" ?>
<svg id="a" xmlns="http://www.w3.org/2000/svg" viewBox="0 0 250.6 250.6">
  <defs>
    <style>.b{fill:#fff;}</style>
  </defs>
  <path
    class="b"
    d="M213.58,73.13l-.48,9.1s-3.28-7.25-5.47-7.8-3.42,1.37-3.42,1.37c0,0-.82-2.46-1.37-4.79-.55-2.33-2.87-3.97-3.97-4.92-1.09-.96-3.42,0-3.42,0l-6.29-13.82s-6.98-.14-8.89-2.19c-1.92-2.05-2.6-7.39-2.6-7.39,0,0-8.34.68-10.81-.96-2.46-1.64-8.76-7.52-8.76-7.52,0,0-4.1,1.92-6.16,1.5-2.05-.41-6.43-4.79-8.21-5.2-1.78-.41-7.66,1.23-9.17,0-1.14-.94-3.55-5.51-4.64-7.65-1.54-.07-3.08-.11-4.64-.11-23.98,0-46.03,8.23-63.5,22.03-.4,1.49-.79,3.1-.96,4.2-.41,2.6,0,5.47-.96,8.34-.96,2.87-5.75,8.76-5.75,8.76,0,0-.82-7.16-1.92-7.62-.61-.26-2.78-.22-4.56-.15-15.51,17.97-24.89,41.37-24.89,66.97,0,56.63,45.9,102.53,102.53,102.53,15.53,0,30.25-3.46,43.44-9.64.17-3.26.5-10.16.72-16.94.14-4.24-8.28-8.63-10.6-8.63s-5.13,2.74-5.13,2.74c0,0-.96-5.34-1.23-7.8-.27-2.46,3.97-8.34,3.97-8.34l-.68-6.98s3.42-1.37,4.24-2.74,2.33-5.34,5.06-6.43c2.74-1.09,7.52-2.87,11.9-2.87,5.2,0,9.17,2.74,9.17,2.74,0,0,7.52-2.74,10.4-2.74s6.16,3.42,6.16,3.42c0,0,2.87-1.78,5.75-2.6,2.87-.82,5.2-.82,5.2-.82,0,0-6.16,2.74-6.57,4.24-.41,1.5-1.23,3.56-.82,5.06.41,1.5,2.19,2.33,2.19,2.33l3.83-.14s.68,3.42,1.37,3.83c.2.12.51.24.86.34,8.48-14.92,13.33-32.18,13.33-50.58s-5.2-36.88-14.25-52.17ZM124.73,51.42c1.09-2.19,2.87-2.05,2.87-2.05,0,0,.82-2.87,3.01-3.97,0,0,1.78-.41,4.24,0s3.44,1.78,5.06,2.6c1.63.82,4.1-1.5,5.34-.68s1.78,4.92,2.6,5.47c.82.55,4.51-1.37,5.34-.68.82.68,1.64,5.06,1.64,5.06,0,0-2.6,1.5-2.74,4.51-.14,3.01,1.64,7.66,1.64,7.66,0,0-1.3-.7-2.39-.02-1.09.68-1.44,2.62-1.44,2.62,0,0-.41-1.64-1.78-1.64h-3.42s.27-2.33-1.23-3.15c-1.5-.82-3.69,0-3.69,0,0,0-.55-3.15-1.37-4.38s-5.2,0-5.2,0c0,0,.68-2.33-2.6-4.24-3.28-1.92-6.7-1.23-6.7-1.23,0,0-.27-3.69.82-5.88ZM153.18,91.81c-1.37.14-4.92,2.46-4.92,3.56s1.92,2.74,1.5,5.75-2.74,3.28-2.6,5.06c.14,1.78,2.6,7.66,1.64,8.89s-5.06,2.05-4.79,3.97c.27,1.92.14,2.87,0,4.51-.14,1.64,0,2.31,0,2.31,0,0-2.05,1.39-2.87,2.35-.82.96-2.87,5.06-2.74,10.67.14,5.61,3.69,7.25,3.69,7.25,0,0-2.19.55-4.38-1.37-2.19-1.92-3.01-5.47-3.01-5.47,0,0-6.16.68-9.44.82-3.28.14-4.65-.14-5.88.27-1.23.41-5.34,2.74-5.61,9.3-.27,6.57,6.7,13.54,10.09,13.27,3.39-.27,1.81-2.6,3.45-3.97s4.38-1.09,4.38-1.09c0,0-.96,5.61.41,6.7,1.37,1.09,4.92-1.78,6.43,1.5.71,1.56.27,3.15.81,4.92.53,1.78,2.75,5.34,2.75,5.34,0,0-4.1-.14-5.75-2.05-1.64-1.92-2.46-5.61-2.46-5.61,0,0-6.43,1.78-7.88,1.64-1.45-.14-2.79-3.15-2.79-3.15,0,0-6.16,2.33-8.48,2.33s-3.01-2.74-3.83-3.28c-.82-.55-4.24-.41-5.2-1.23-.96-.82-2.6-6.02-3.01-6.57-.41-.55-8.48-1.92-10.67-4.24-2.19-2.33-1.78-5.47-3.69-8.34-1.92-2.87-5.2-4.79-8.07-7.11-2.87-2.33-4.51-2.74-6.98-5.06-2.46-2.33-3.69-6.16-3.56-9.58s4.38-5.06,4.38-5.06c0,0-.55-1.23-.55-3.42s.82-3.01.68-5.34c-.14-2.33-3.69-7.25-3.56-8.34.14-1.09,2.19-4.79,1.09-6.7-1.09-1.92-7.25-1.92-7.25-1.92,0,0-3.97-8.07-6.16-8.07s-8.89,1.37-8.89,1.37c0,0,.55-2.33,3.97-8.76s7.39-9.03,10.4-9.44c3.01-.41,3.28,1.23,5.61,4.1,2.33,2.87,3.15,6.16,3.15,6.16,0,0,8.34,2.74,10.4,2.74s2.05-1.78,2.6-4.24c.55-2.46.96-5.34.96-5.34,0,0,2.19,3.83,3.97,3.97,1.78.14,4.1-2.05,6.02-1.92,1.92.14,1.64,1.37,2.33,3.42.68,2.05,3.69,4.1,6.43,4.1s4.92-2.46,5.88-4.24-.27-1.37-.27-6.02.55-7.93.55-7.93c0,0-.96-1.09-2.33-1.09s-1.37,1.09-1.37,1.09c0,0-.68-.82-.68-3.01s1.78-4.79,5.34-4.79,5.88,3.69,5.88,3.69c0,0-3.28-1.37-3.69,1.37s-.41,3.28.55,5.06,3.97,5.34,3.97,5.34c0,0-2.74,2.33-2.74,3.42s2.33,4.65,2.33,4.65c0,0-.27.96-1.09,1.64-.82.68-3.34-.28-4.1.96-1.07,1.73-2.01,4.11-2.88,7.06-1.49,5.05-.05,12.02-.05,12.02,0,0,8.26-2.26,10.18-2.26s3.15.55,5.25,2.46c2.1,1.92.45,4.71,2.96,4.92,3.15.27,4.1-1.64,4.1-1.64,0,0-9.2-21.48-9.2-28.18,0-4.93,1.54-6.57,1.54-6.57,0,0,.82,3.15,2.6,4.51s2.87-.27,5.2-.41c2.33-.14,6.98,3.15,6.98,3.15,0,0-3.83,1.23-4.92,2.87-1.09,1.64-.55,5.75,0,6.43.55.68,6.98-2.19,8.07-1.64,1.09.55,1.64,3.28,1.64,3.28,0,0,3.83-.55,4.92-.55s1.78-.27,4.1,1.5,2.46,5.47,2.46,5.47c0,0-1.92-2.33-3.28-2.19Z"
  />
  <path
    class="b"
    d="M125.3,0C56.21,0,0,56.21,0,125.3s56.21,125.3,125.3,125.3,125.3-56.21,125.3-125.3S194.39,0,125.3,0ZM125.3,235.6c-60.82,0-110.3-49.48-110.3-110.3S64.48,15,125.3,15s110.3,49.48,110.3,110.3-49.48,110.3-110.3,110.3Z"
  />
</svg>
