<?xml version="1.0" encoding="UTF-8"?>
<svg xmlns="http://www.w3.org/2000/svg" viewBox="0 0 141 139">
  <defs>
    <style>
      .b {
        fill: none;
        stroke: #fff;
        stroke-linecap: round;
        stroke-linejoin: round;
        stroke-width: 12px;
      }

      .c {
        fill: #fff;
        stroke-width: 0px;
      }
    </style>
  </defs>
  <g>
    <polyline class="b" points="135 65.6 135 133 6 133 6 65.6"/>
    <rect class="c" x="129.1" y="60" width="11.9" height="11.9"/>
    <rect class="c" x="0" y="60" width="11.9" height="11.9"/>
  </g>
  <path class="c" d="M135,60l-65,47L6,60,70,6l65,54ZM73.9,69.7c.5-.6.8-1.3.8-2,0-1.2,0-2.4.2-3.3.1-1,.5-1.9,1-2.8.6-.9,1.5-1.9,2.8-2.9.5-.4,1.2-1,2.1-1.7.9-.8,1.8-1.7,2.7-2.9.9-1.2,1.7-2.4,2.3-3.9.6-1.4,1-3,1-4.7s-.6-4.3-1.9-6.1c-1.3-1.8-3.1-3.2-5.4-4.2-2.3-1-5-1.5-8.1-1.5s-5.9.5-8,1.6c-2.1,1.1-3.7,2.3-4.7,3.9-1,1.5-1.5,2.9-1.5,4.2s.5,2.4,1.4,3.1c1,.7,1.9,1,2.9,1s1.7-.3,2.2-.8c.5-.6.9-1.2,1.4-1.9.4-.7,1.1-1.4,2-1.9.9-.6,2.3-.8,4.1-.8s3.4.4,4.6,1.2c1.2.8,1.9,2,1.9,3.7s-.2,1.8-.6,2.6c-.4.8-1,1.5-1.7,2.2-.7.6-1.4,1.2-2.1,1.8-.7.5-1.4,1.1-2,1.6-.7.6-1.4,1.3-2.2,2.3-.8.9-1.4,2.1-1.9,3.5-.5,1.4-.8,3.1-.8,5.2s.3,3.1.9,3.8c.6.7,1.6,1,3.1,1s2.9-.3,3.5-1ZM74.4,85.1c1.1-1.1,1.6-2.4,1.6-3.9s-.5-2.8-1.6-3.9-2.4-1.6-3.9-1.6-2.8.5-3.9,1.6-1.6,2.4-1.6,3.9.5,2.8,1.6,3.9c1.1,1.1,2.4,1.7,3.9,1.7s2.8-.6,3.9-1.7Z"/>
  <polygon class="b" points="135 60 70 107 6 60 70 6 135 60"/>
</svg>
