<?xml version="1.0" encoding="UTF-8" ?>
<svg xmlns="http://www.w3.org/2000/svg" viewBox="0 0 252 180">
  <defs>
    <style>.b{fill:white;}</style>
  </defs>
  <path
    class="b"
    d="M246,180H6c-3.3,0-6-2.7-6-6V6C0,2.7,2.7,0,6,0h240c3.3,0,6,2.7,6,6v168c0,3.3-2.7,6-6,6ZM12,168h228V12H12v156Z"
  />
  <path
    class="b"
    d="M126,100.2c-1,0-2-.2-2.9-.7L35.4,51.4c-2.9-1.6-4-5.2-2.4-8.1,1.6-2.9,5.2-4,8.1-2.4l84.8,46.5,84.8-46.5c2.9-1.6,6.6-.5,8.1,2.4,1.6,2.9.5,6.6-2.4,8.1l-87.7,48.1c-.9.5-1.9.7-2.9.7Z"
  />
</svg>
