<?xml version="1.0" encoding="UTF-8" ?>
<svg xmlns="http://www.w3.org/2000/svg" viewBox="0 0 142 139.3">
  <defs>
    <style>.b{fill:white;}</style>
  </defs>
  <path
    class="b"
    d="M86.5,59.7l8.5-8.7,8,5.8v-15.2c0-.2-.1-.3-.3-.3h-25.4c-.2,0-.3.1-.3.3v18.4l5.1-4.9,4.4,4.6ZM86.4,46.4c1.6,0,2.9,1.3,2.9,2.9s-1.3,2.9-2.9,2.9-2.9-1.3-2.9-2.9,1.3-2.9,2.9-2.9Z"
  />
  <path
    class="b"
    d="M142,60.3c0-1.6-.9-3.2-2.1-4.3L74.3,1.4c-2.2-1.9-5.5-1.9-7.7,0L2.1,56C.9,57.1.1,58.6,0,60.3H0v72.9c0,.6,0,1.3.3,1.9.9,2.6,3.2,4.2,5.7,4.2h0l130-.5c3.3,0,6-2.7,6-6V60.3h0ZM77.1,35.3h25.9c3.3,0,6.1,2.7,6.1,6.1v24.9c0,3.3-2.7,6.1-6.1,6.1h-25.9c-3.3,0-6.1-2.7-6.1-6.1v-24.9c0-3.3,2.7-6.1,6.1-6.1ZM37.9,39.2c.7-1.1,1.8-1.9,3.3-2.7,1.5-.7,3.3-1.1,5.6-1.1s4,.4,5.6,1.1c1.6.7,2.9,1.7,3.7,3,.9,1.3,1.3,2.7,1.3,4.2s-.2,2.3-.7,3.3c-.5,1-1,1.9-1.6,2.7-.6.8-1.3,1.5-1.9,2-.6.5-1.1.9-1.4,1.2-.9.7-1.6,1.4-2,2-.4.6-.6,1.3-.7,2,0,.7-.1,1.4-.1,2.3s-.2.9-.6,1.4c-.4.5-1.2.7-2.4.7s-1.8-.2-2.2-.7c-.4-.5-.6-1.4-.6-2.7s.2-2.6.5-3.6c.4-1,.8-1.8,1.3-2.4.5-.7,1-1.2,1.5-1.6.4-.4.9-.7,1.4-1.1.5-.4,1-.8,1.5-1.2.5-.5.9-1,1.2-1.5.3-.6.5-1.2.5-1.8,0-1.2-.4-2-1.3-2.6-.9-.6-1.9-.8-3.2-.8s-2.2.2-2.9.6c-.6.4-1.1.8-1.4,1.4-.3.5-.6,1-1,1.4-.3.4-.8.6-1.5.6s-1.3-.2-2-.7c-.7-.5-1-1.2-1-2.2s.4-1.9,1.1-2.9ZM50,68.6c0,1-.4,1.9-1.1,2.7-.8.8-1.7,1.2-2.7,1.2s-2-.4-2.7-1.2c-.7-.8-1.1-1.7-1.1-2.7s.4-2,1.1-2.7,1.6-1.1,2.7-1.1,2,.4,2.7,1.1,1.1,1.7,1.1,2.7ZM130,126.3l-118,.5v-54.8l55,39.6c1,.8,2.3,1.1,3.5,1.1s2.4-.4,3.5-1.1l56-39.8v54.4Z"
  />
</svg>
