<?xml version="1.0" encoding="UTF-8"?>
<svg xmlns="http://www.w3.org/2000/svg" xmlns:xlink="http://www.w3.org/1999/xlink" viewBox="0 0 127 127">
  <defs>
    <style>
      .c {
        fill: none;
      }

      .c, .d {
        stroke-width: 0px;
      }

      .e {
        clip-path: url(#b);
      }

      .d {
        fill: #fff;
      }
    </style>
    <clipPath id="b">
      <path class="c" d="M127,63.5c0,35.1-28.4,63.5-63.5,63.5S0,98.6,0,63.5,28.4,0,63.5,0s63.5,28.4,63.5,63.5ZM63.5,31c-17.9,0-32.5,14.6-32.5,32.5s14.6,32.5,32.5,32.5,32.5-14.6,32.5-32.5-14.6-32.5-32.5-32.5Z"/>
    </clipPath>
  </defs>
  <g class="e">
    <circle class="d" cx="63.5" cy="63.5" r="49.5"/>
    <path class="d" d="M138.5,63.5c0,8.2-29.6,10.5-32.5,17.6s16.1,29.9,10.6,35.5-28.1-13.6-35.5-10.6c-7.1,3-9.4,32.5-17.6,32.5s-10.5-29.6-17.6-32.5c-7.4-3.1-29.9,16.1-35.5,10.6s13.6-28.1,10.6-35.5-32.5-9.4-32.5-17.6,29.6-10.5,32.5-17.6S4.9,16,10.5,10.5s28.1,13.6,35.5,10.6S55.3-11.5,63.5-11.5s10.5,29.6,17.6,32.5,29.9-16.1,35.5-10.6-13.6,28.1-10.6,35.5c3,7.1,32.5,9.4,32.5,17.6Z"/>
  </g>
</svg>
