<?xml version="1.0" encoding="UTF-8" ?>
<svg xmlns="http://www.w3.org/2000/svg" viewBox="0 0 112 112">
  <defs>
    <style>.b{fill:white;}</style>
  </defs>
  <path
    class="b"
    d="M101,22H11C4.9,22,0,17.1,0,11S4.9,0,11,0h90c6.1,0,11,4.9,11,11s-4.9,11-11,11Z"
  />
  <path
    class="b"
    d="M101,67H11c-6.1,0-11-4.9-11-11s4.9-11,11-11h90c6.1,0,11,4.9,11,11s-4.9,11-11,11Z"
  />
  <path
    class="b"
    d="M101,112H11c-6.1,0-11-4.9-11-11s4.9-11,11-11h90c6.1,0,11,4.9,11,11s-4.9,11-11,11Z"
  />
</svg>
