<?xml version="1.0" encoding="UTF-8"?>
<svg xmlns="http://www.w3.org/2000/svg" viewBox="0 0 118 120">
  <defs>
    <style>
      .b {
        fill: white;
        stroke-width: 0px;
      }
    </style>
  </defs>
  <path class="b" d="M118,60c0,33.1-26.4,60-59,60S0,93.1,0,60,26.4,0,59,0s59,26.9,59,60ZM61,73.9c0-7.7,2.8-9.9,11.1-15.7,7.7-5.4,11.8-10,11.8-18.3,0-12.2-9.5-19.9-24.3-19.9s-14.7,2.2-19,5.8c-3.6,3-6.1,7-7.5,11.4-.2.6-.3,1.2-.3,1.7,0,2.2,1.8,3.4,3.7,3.9.6.1,1.2.2,1.8.2,1.8,0,3.4-.9,4.2-3.3,2.3-6.8,7.4-11.5,16.6-11.5s15.2,4.7,15.2,12.1-2.2,7.7-9.6,12.9c-5.9,4-7,5-9,7.6-2.7,3.4-3.7,6.7-3.7,13v2.2c0,2.3,1.8,4.3,4.1,4.5s4.9-1.1,4.9-3.9v-2.7ZM56.4,85c-3.7,0-6.6,2.6-6.6,6.6s2.9,6.6,6.6,6.6,6.6-2.6,6.6-6.6-3-6.6-6.6-6.6Z"/>
</svg>
