<?xml version="1.0" encoding="UTF-8"?>
<svg xmlns="http://www.w3.org/2000/svg" viewBox="0 0 171.7 178.2">
  <defs>
    <style>
      .b {
        fill: white;
        stroke-width: 0px;
      }
    </style>
  </defs>
  <path class="b" d="M171.7,94.2c0,6-10.3,3.9-16,4.3s-3.7,1.9-3.7,4v71.8c0,2.2-1.8,3.9-3.9,3.9h-32.5c-2.2,0-4-1.8-4-3.9,0-8.7,1.3-27.1-3.7-32.1-4-4-31.3-4.4-35.9,1s-4.1,22.5-4.1,30.9-1.8,4.1-4.1,4.1H28c-2.2,0-4-1.8-4-4v-72c0-2.2-1.7-4-3.9-4-6.8-.2-20.1,2.1-20.1-4.9S69.4,17.1,84.8,1.2c1.6-1.7,4.3-1.6,5.9.1,14.8,16.3,81,89.3,81,92.8ZM88.5,45.2c-11.3,0-20.5,9.2-20.5,20.5s9.2,20.5,20.5,20.5,20.5-9.2,20.5-20.5-9.2-20.5-20.5-20.5Z"/>
</svg>
