<?xml version="1.0" encoding="UTF-8" ?>
<svg xmlns="http://www.w3.org/2000/svg" viewBox="0 0 140 140">
  <defs>
    <style>
      .b {
        fill: #c3c3c3;
      }
      .c {
        fill: #969696;
        opacity: .8;
      }
      .d {
        fill: #484848;
      }
    </style>
  </defs>
  <circle class="c" cx="70" cy="70" r="69.5" />
  <path
    class="b"
    d="M70,140C31.4,140,0,108.6,0,70S31.4,0,70,0s70,31.4,70,70-31.4,70-70,70ZM70,1C32,1,1,32,1,70s31,69,69,69,69-31,69-69S108,1,70,1Z"
  />
  <circle class="d" cx="76.8" cy="31.8" r="9" />
  <path
    class="d"
    d="M84.8,98.8l-15,6s11-41,11-45-2-9-6-9-24,15-24,15l16-1s-13,35-13,42,3,10,7,10,24-18,24-18Z"
  />
</svg>
