<?xml version="1.0" encoding="UTF-8"?>
<svg xmlns="http://www.w3.org/2000/svg" viewBox="0 0 150 161">
  <defs>
    <style>.b{fill:#fff;}</style>
  </defs>
  <path class="b" d="M54,25c6,0,11,7,11,11l-.2,14h-17.2c-4.2,0-6.4,5.1-3.3,8.1l29.8,29.5c1.9,1.8,4.8,1.8,6.7,0l29.8-29.5c3-3,.9-8.1-3.3-8.1h-17.2v-14.5C91.2,12,79.1,0,54.2,0H4.8C2.1,0,0,2.1,0,4.8v15.5c0,2.6,2.1,4.8,4.8,4.8h49.2Z"/>
  <path class="b" d="M101,88c0-2-.3-4-.7-5.8l-12.6,12.6c-2.9,2.9-6.7,4.3-10.4,4.3s-7.6-1.4-10.4-4.3l-13-13c-.5,2-.8,4.1-.8,6.3,0,13.3,10.7,24,24,24s24-10.7,24-24Z"/>
  <path class="b" d="M37.3,65.2c-.3-.3-.6-.6-.9-.9-4.1,7-6.5,15.1-6.5,23.8,0,25.9,21.1,47,47,47s47-21.1,47-47-2.3-16.5-6.2-23.4c-.2.2-.3.4-.5.6l-9.1,9.1c1.8,4.2,2.9,8.8,2.9,13.7,0,18.7-15.3,34-34,34s-34-15.3-34-34,1.1-9.8,3.1-14.1l-8.7-8.7Z"/>
  <path class="b" d="M98.1,18.1c1.2,4.4,1.8,9.2,1.8,14.4,21.8,9,37.1,30.5,37.1,55.5s-26.9,60-60,60-60-26.9-60-60,12.9-42.9,31.9-53h-22c-14.1,13.3-22.9,32.1-22.9,53,0,40.3,32.7,73,73,73s73-32.7,73-73-21.9-60.8-51.9-69.9Z"/>
</svg>
