<?xml version="1.0" encoding="UTF-8"?>
<svg xmlns="http://www.w3.org/2000/svg" viewBox="0 0 98 58">
  <defs>
    <style>
      .b {
        fill: #fff;
        stroke-width: 0px;
      }
    </style>
  </defs>
  <path class="b" d="M94,58H4c-2.2,0-4-1.8-4-4V4C0,1.8,1.8,0,4,0h90c2.2,0,4,1.8,4,4v50c0,2.2-1.8,4-4,4ZM18.5,48h59c.8,0,1.5-.7,1.5-1.5v-5c0-.8-.7-1.5-1.5-1.5H18.5c-.8,0-1.5.7-1.5,1.5v5c0,.8.7,1.5,1.5,1.5ZM21.5,25h-5c-.8,0-1.5.7-1.5,1.5v5c0,.8.7,1.5,1.5,1.5h5c.8,0,1.5-.7,1.5-1.5v-5c0-.8-.7-1.5-1.5-1.5ZM14.5,10h-5c-.8,0-1.5.7-1.5,1.5v5c0,.8.7,1.5,1.5,1.5h5c.8,0,1.5-.7,1.5-1.5v-5c0-.8-.7-1.5-1.5-1.5ZM28.5,10h-5c-.8,0-1.5.7-1.5,1.5v5c0,.8.7,1.5,1.5,1.5h5c.8,0,1.5-.7,1.5-1.5v-5c0-.8-.7-1.5-1.5-1.5ZM42.5,10h-5c-.8,0-1.5.7-1.5,1.5v5c0,.8.7,1.5,1.5,1.5h5c.8,0,1.5-.7,1.5-1.5v-5c0-.8-.7-1.5-1.5-1.5ZM56.5,10h-5c-.8,0-1.5.7-1.5,1.5v5c0,.8.7,1.5,1.5,1.5h5c.8,0,1.5-.7,1.5-1.5v-5c0-.8-.7-1.5-1.5-1.5ZM70.5,10h-5c-.8,0-1.5.7-1.5,1.5v5c0,.8.7,1.5,1.5,1.5h5c.8,0,1.5-.7,1.5-1.5v-5c0-.8-.7-1.5-1.5-1.5ZM78,11.5v5c0,.8.7,1.5,1.5,1.5h5c.8,0,1.5-.7,1.5-1.5v-5c0-.8-.7-1.5-1.5-1.5h-5c-.8,0-1.5.7-1.5,1.5ZM30.5,33h5c.8,0,1.5-.7,1.5-1.5v-5c0-.8-.7-1.5-1.5-1.5h-5c-.8,0-1.5.7-1.5,1.5v5c0,.8.7,1.5,1.5,1.5ZM44.5,33h5c.8,0,1.5-.7,1.5-1.5v-5c0-.8-.7-1.5-1.5-1.5h-5c-.8,0-1.5.7-1.5,1.5v5c0,.8.7,1.5,1.5,1.5ZM58.5,33h5c.8,0,1.5-.7,1.5-1.5v-5c0-.8-.7-1.5-1.5-1.5h-5c-.8,0-1.5.7-1.5,1.5v5c0,.8.7,1.5,1.5,1.5ZM72.5,33h5c.8,0,1.5-.7,1.5-1.5v-5c0-.8-.7-1.5-1.5-1.5h-5c-.8,0-1.5.7-1.5,1.5v5c0,.8.7,1.5,1.5,1.5Z"/>
</svg>
