<?xml version="1.0" encoding="UTF-8" ?>
<svg xmlns="http://www.w3.org/2000/svg" viewBox="0 0 215.7 249.8">
  <defs>
    <style>
      .b {
        fill: #474747;
      }

      .c {
        fill: #dbdbdb;
      }

      .d {
        fill: #5d5d5d;
      }
    </style>
  </defs>
  <polygon
    class="d"
    points="186 89.7 108.6 167.9 29.9 90.1 7.5 103.6 108.8 203.9 208.4 103.3 186 89.7"
  />
  <polygon
    class="c"
    points="107.9 5.3 7.3 66.2 108.6 166.5 208.2 65.9 107.9 5.3"
  />
  <path
    class="b"
    d="M215.7,102.4l-23.3-14.1,23.1-23.3L107.9,0,0,65.4l23.5,23.3L.2,102.8l24.7,24.4L0,142.3l108.6,107.5,106.9-107.9-24.3-14.7,24.5-24.8ZM202.6,66.6l-94.1,95L12.9,66.9,107.9,9.4l94.7,57.2ZM108.6,172.9l78-78.7,16.3,9.8-94.1,95L13.1,104.3l16.2-9.8,79.2,78.4Z"
  />
</svg>
