<?xml version="1.0" encoding="UTF-8"?>
<svg xmlns="http://www.w3.org/2000/svg" viewBox="0 0 207.9 207.9">
  <defs>
    <style>.b{fill:#fff;}</style>
  </defs>
  <path class="b" d="M124.6,107.5c-13.6,0-24.7-11.1-24.7-24.7s2.1-11.4,5.6-15.7c-.3,0-.7,0-1,0-20.1,0-36.3,16.3-36.3,36.3s16.3,36.3,36.3,36.3,36.3-16.3,36.3-36.3,0-1.3,0-1.9c-4.3,3.8-10,6.1-16.2,6.1ZM91,111.6c-1.9,0-3.5-1.6-3.5-3.5s1.6-3.5,3.5-3.5,3.5,1.6,3.5,3.5-1.6,3.5-3.5,3.5Z"/>
  <circle class="b" cx="124.6" cy="82.8" r="15.7"/>
  <path class="b" d="M103.9,0C46.6,0,0,46.6,0,103.9s46.6,103.9,103.9,103.9,103.9-46.6,103.9-103.9S161.3,0,103.9,0ZM103.9,166.9c-34.7,0-62.9-28.2-62.9-62.9s28.2-62.9,62.9-62.9,62.9,28.2,62.9,62.9-28.2,62.9-62.9,62.9Z"/>
</svg>
