<?xml version="1.0" encoding="UTF-8" ?>
<svg xmlns="http://www.w3.org/2000/svg" viewBox="0 0 196.2 170">
  <defs>
    <style>.b{fill:white;}</style>
  </defs>
  <path
    class="b"
    d="M178.2,36h-106c-9.9,0-18-8.1-18-18S62.3,0,72.2,0h106c9.9,0,18,8.1,18,18s-8.1,18-18,18Z"
  />
  <path
    class="b"
    d="M177.2,103h-105c-9.9,0-18-8.1-18-18s8.1-18,18-18h105c9.9,0,18,8.1,18,18s-8.1,18-18,18Z"
  />
  <path
    class="b"
    d="M177.2,170h-105c-9.9,0-18-8.1-18-18s8.1-18,18-18h105c9.9,0,18,8.1,18,18s-8.1,18-18,18Z"
  />
  <circle class="b" cx="17.5" cy="18.5" r="17.5" />
  <circle class="b" cx="17.5" cy="87.5" r="17.5" />
  <circle class="b" cx="17.5" cy="152.5" r="17.5" />
</svg>
