<?xml version="1.0" encoding="UTF-8" ?>
<svg xmlns="http://www.w3.org/2000/svg" viewBox="0 0 189 251.8">
  <defs>
    <style>
      .b {
        fill: #474747;
      }

      .c {
        fill: #dbdbdb;
      }
    </style>
  </defs>
  <path
    class="c"
    d="M54,77.9c0-21.1,15.7-39.3,36.6-41.4s45.4,16.7,45.4,40.7v8.6h27v-7.6c0-35.6-27-65.9-62.5-68.7C60.5,6.3,27,37.9,27,77.2v8.6h27v-7.9Z"
  />
  <path
    class="c"
    d="M167.9,93.8H20.1c-6.1,0-11.1,5-11.1,11.1v125.9c0,6.1,5,11.1,11.1,11.1h147.9c6.1,0,11.1-5,11.1-11.1v-125.9c0-6.1-5-11.1-11.1-11.1ZM93.3,156.7c-13.1,0-23.8-10.7-23.8-23.8s10.7-23.8,23.8-23.8,23.8,10.7,23.8,23.8-10.7,23.8-23.8,23.8ZM118,192.4v30.1c-2.8,1.4-12.5,5.8-24,5.8s-21.2-4.4-24-5.8v-30.3c0-15,13.8-26.8,29.3-23.4,10.3,2.2,18.7,13.1,18.7,23.7Z"
  />
  <path
    class="b"
    d="M171,85v-7.6c0-40.5-31.1-74.7-71.6-77.2C55-2.7,18,32.7,18,76.5v8.4c-10.1,1.2-18,9.9-18,20.4v125.9c0,11.4,9.2,20.6,20.6,20.6h147.9c11.4,0,20.6-9.2,20.6-20.6v-125.9c0-10.5-7.9-19.1-18-20.4ZM167.4,240.8H19.6c-5.3,0-9.6-4.3-9.6-9.6v-125.9c0-5.3,4.3-9.6,9.6-9.6h147.9c5.3,0,9.6,4.3,9.6,9.6v125.9c0,5.3-4.3,9.6-9.6,9.6ZM62,84.8v-7c0-16.1,13-31.2,29-32.8,19.5-2,36,13.2,36,32.3v7.6H62ZM28,77.7c0-34.8,26.4-64.4,61.1-67.2,39.1-3.1,71.9,27.8,71.9,66.2v7.1h-24v-6.4c0-21.3-17.3-41-38.6-43s-46.4,17.6-46.4,42.3v7.1h-24v-6.1Z"
  />
  <circle class="b" cx="93.3" cy="132.9" r="25.3" />
  <path
    class="b"
    d="M68,192.4v30.9s11.4,6.4,25.5,6.4,25.5-6.4,25.5-6.4v-31.2c0-15.5-13.9-27.8-29.9-25.1-11.6,1.9-21.1,13.6-21.1,25.4Z"
  />
</svg>
