<?xml version="1.0" encoding="UTF-8" ?>
<svg xmlns="http://www.w3.org/2000/svg" viewBox="0 0 186.65 227.98">
  <defs>
    <style>
      .b {
        fill: #474747;
      }

      .c {
        fill: #848484;
      }

      .d {
        fill: #762321;
      }
    </style>
  </defs>
  <path
    class="c"
    d="M157.27,80.48c-6.18-.91-11.51,3.88-11.51,9.89v19.83c0,25.88-19.96,47.8-45.8,49.21-27.96,1.52-51.2-20.79-51.2-48.43v-20.3c0-5.01-3.54-9.48-8.49-10.21-6.18-.91-11.51,3.88-11.51,9.89v20.24c0,17.24,6.51,33.72,18.33,46.42,10.79,11.59,25.11,19.07,40.67,21.34v23.61h-12.83c-5.23,0-9.83,3.87-10.3,9.07-.54,5.93,4.17,10.93,10.04,10.93h43.74c5.23,0,9.83-3.87,10.3-9.07.54-5.93-4.17-10.93-10.04-10.93h-11.91v-23.61c15.56-2.27,29.88-9.75,40.67-21.34,11.82-12.69,18.33-29.17,18.33-46.42v-19.92c0-5-3.54-9.48-8.49-10.21Z"
  />
  <path
    class="c"
    d="M141.76,110.92v-60.19c0-23.18-18.89-43.91-42.04-45.17-25.65-1.39-46.96,19.08-46.96,44.43v61.65c0,25.35,21.31,45.82,46.96,44.43,23.15-1.25,42.04-21.99,42.04-45.17Z"
  />
  <path
    class="d"
    d="M178.47,16.8c-4.68-4.68-12.29-4.68-16.97,0L10.8,167.5c-4.68,4.68-4.68,12.29,0,16.97,2.27,2.27,5.28,3.51,8.48,3.51s6.22-1.25,8.49-3.51L178.47,33.77c2.27-2.27,3.51-5.28,3.51-8.49s-1.25-6.22-3.51-8.49Z"
  />
  <path
    class="b"
    d="M181.41,38.01c6.52-6.52,7.12-17.74.89-24.54-3.36-3.66-7.98-5.69-12.92-5.69-4.67,0-9.07,1.82-12.37,5.12l-14.61,14.61C133.54,9.99,114.68-1.65,93.36.19c-25.96,2.24-45.59,24.57-45.59,50.63v26.39c-4.22-2.78-9.81-3.66-15.54-1.29-5.81,2.39-9.46,8.24-9.46,14.52v20.68c0,10.14,2.1,20.03,6.06,29.16l-23.67,23.47c-6.88,6.82-6.88,17.93,0,24.75,3.34,3.31,7.77,5.13,12.48,5.13s9.15-1.82,12.48-5.12l20.19-20.01c9.16,7.41,19.92,12.54,31.46,14.99v13.52h-6.38c-7.55,0-14.3,5.24-15.63,12.67-1.76,9.79,5.82,18.33,15.38,18.33h43.75c7.55,0,14.3-5.24,15.63-12.67,1.76-9.79-5.82-18.33-15.38-18.33h-6.37v-13.52c14.97-3.17,28.65-10.87,39.2-22.2,12.77-13.71,19.8-31.52,19.8-50.15v-20.44c0-7.54-5.27-14.24-12.7-15.56-4.19-.74-8.14.22-11.3,2.3v-5.77l33.65-33.65ZM95.79,10.05c17.65-.85,32.92,9.75,39.07,25.01L57.78,112.15h-.01s0-61.45,0-61.45c0-21.45,16.61-39.63,38.03-40.65ZM33.76,110.99v-20.41c0-2.64,1.77-5.07,4.36-5.59,3.54-.71,6.64,1.98,6.64,5.39v20.62c0,4.35.54,8.58,1.54,12.63l-8.81,8.81c-2.4-6.71-3.72-13.92-3.72-21.45ZM24.59,181.29c-1.46,1.46-3.38,2.2-5.3,2.2s-3.84-.73-5.3-2.2c-2.93-2.93-2.93-7.68,0-10.61L164.68,19.98c1.46-1.46,3.38-2.2,5.3-2.2s3.84.73,5.3,2.2c2.93,2.93,2.93,7.68,0,10.61L24.59,181.29ZM150.76,115.78v-25.19c0-2.64,1.77-5.07,4.36-5.59,3.54-.71,6.64,1.98,6.64,5.39v20.74c0,33.44-26,60.95-59,63.75v32.12h18.61c.39,0,.77.14,1.05.41,4.94,4.78,1.6,10.59-3.11,10.59h-46.06c-.39,0-.77-.14-1.05-.41-4.93-4.78-1.6-10.59,3.11-10.59h16.45v-32.12c-12.91-1.1-24.73-5.98-34.36-13.51l7.89-7.83c20.71,15.41,54.92,18.95,78.38-14.33,6.18-8.76,6.65-17.85,7.09-23.42ZM101.06,151.52c-9.74.78-18.82-1.94-26.13-7.03l62.83-62.83v29.3c0,20.94-15.83,38.88-36.7,40.56Z"
  />
</svg>
