<?xml version="1.0" encoding="UTF-8" ?>
<svg xmlns="http://www.w3.org/2000/svg" viewBox="0 0 68 80">
  <defs>
    <style>.b{fill:white;}</style>
  </defs>
  <path
    class="b"
    d="M59.7,80H8.3c-4.6,0-8.3-3.7-8.3-8.3V8.3C0,3.7,3.7,0,8.3,0h51.4c4.6,0,8.3,3.7,8.3,8.3v63.4c0,4.6-3.7,8.3-8.3,8.3ZM8.3,8c-.2,0-.3.1-.3.3v63.4c0,.2.1.3.3.3h51.4c.2,0,.3-.1.3-.3V8.3c0-.2-.1-.3-.3-.3H8.3Z"
  />
  <path
    class="b"
    d="M17,39c-1,0-2-.4-2.8-1.2-1.6-1.6-1.6-4.1,0-5.7l21-21c1.6-1.6,4.1-1.6,5.7,0,1.6,1.6,1.6,4.1,0,5.7l-21,21c-.8.8-1.8,1.2-2.8,1.2Z"
  />
  <path
    class="b"
    d="M17,63c-1,0-2-.4-2.8-1.2-1.6-1.6-1.6-4.1,0-5.7l24-24c1.6-1.6,4.1-1.6,5.7,0,1.6,1.6,1.6,4.1,0,5.7l-24,24c-.8.8-1.8,1.2-2.8,1.2Z"
  />
  <path
    class="b"
    d="M44,64c-1,0-2-.4-2.8-1.2-1.6-1.6-1.6-4.1,0-5.7l8-8c1.6-1.6,4.1-1.6,5.7,0,1.6,1.6,1.6,4.1,0,5.7l-8,8c-.8.8-1.8,1.2-2.8,1.2Z"
  />
</svg>
