<?xml version="1.0" encoding="UTF-8" ?>
<svg xmlns="http://www.w3.org/2000/svg" viewBox="0 0 204.14 172">
  <defs>
    <style>
      .b {
        fill: #fff;
      }

      .c {
        opacity: .2;
      }
    </style>
  </defs>
  <circle class="b" cx="103.72" cy="113.3" r="28.86" />
  <path
    class="b"
    d="M128.89,140.91c-.74-.6-1.79-.63-2.52-.03-6.18,5.05-14.07,8.08-22.65,8.08s-16.47-3.04-22.65-8.08c-.73-.6-1.79-.57-2.52.03-8.54,6.92-14.17,17.28-14.78,28.97-.06,1.15.85,2.12,2,2.12h75.9c1.15,0,2.06-.97,2-2.12-.61-11.69-6.24-22.05-14.78-28.97Z"
  />
  <rect
    class="c"
    x="3.07"
    y="3"
    width="198"
    height="65"
    rx="32.49"
    ry="32.49"
  />
  <path
    class="b"
    d="M168.64,0H36.1C17.84,0,2.07,13.57.19,31.74c-2.2,21.26,14.49,39.26,35.31,39.26h132.54c18.26,0,34.02-13.57,35.9-31.74C206.15,18.01,189.46,0,168.64,0ZM168.65,65H36.05c-14.99,0-28.04-10.97-29.83-25.84C4.05,21.26,18.03,6,35.5,6h132.6c14.99,0,28.04,10.97,29.83,25.84,2.16,17.89-11.81,33.16-29.28,33.16Z"
  />
  <polygon
    class="b"
    points="70.07 38.94 57.8 18 52.07 18 52.07 48 58.07 48 58.07 26.69 70.66 48 76.07 48 76.07 18 70.07 18 70.07 38.94"
  />
  <path
    class="b"
    d="M99.15,46.7c-.19-.27-.31-.79-.35-1.56-.03-1.01-.04-1.87.27-2.58v-10.25c-.31-2.69-1.26-4.53-3.16-5.5s-4.07-1.46-6.52-1.46c-3.76,0-6.41.98-7.96,2.95-.97,1.26-1.52,2.86-1.64,4.7h5.64c.14-.74.41-1.42.82-1.93.57-.68,1.55-1.03,2.93-1.03,1.23,0,2.16.17,2.8.52s.95.98.95,1.9c0,.75-.42,1.31-1.25,1.66-.46.21-1.24.38-2.32.51l-1.99.25c-2.26.29-3.96.77-5.13,1.44-2.12,1.23-3.18,3.22-3.18,5.97,0,2.12.66,3.76,1.98,4.91s2.99,1.73,5.01,1.73c1.59,0,3.01-.36,4.27-1.09,1.05-.62,1.98-1.36,2.79-2.24.04.51.1.96.16,1.35s.19,1.82.37,2.04h6.42v-1.63c-.44-.18-.73-.4-.92-.68ZM93.07,39.54c-.04,1.96-.59,3.3-1.65,4.04s-2.22,1.11-3.48,1.11c-.79,0-1.46-.23-2.01-.68-.56-.44-.84-1.16-.84-2.15,0-1.12.45-1.95,1.35-2.48.53-.31,1.42-.58,2.65-.8l1.31-.25c.66-.12,1.17-.26,1.55-.4s.75-.33,1.12-.56v2.17Z"
  />
  <path
    class="b"
    d="M133.66,27.74c-.77-.96-1.63-1.63-2.57-2.01s-1.9-.57-2.87-.57c-1.46,0-2.78.31-3.97.92-1.12.62-2.06,1.58-2.81,2.89-.43-1.09-1.07-1.99-1.9-2.69-1.04-.75-2.4-1.13-4.09-1.13-1.78,0-3.23.44-4.35,1.31-.63.49-1.31,1.32-2.02,2.48v-2.95h-6v22h6v-13.45c0-1.22.16-2.13.46-2.75.56-1.08,1.66-1.62,3.3-1.62,1.41,0,2.35.54,2.84,1.62.27.6.4,1.57.4,2.89v13.31h6v-13.31c0-1,.15-1.85.46-2.56.61-1.34,1.71-2.01,3.3-2.01,1.38,0,2.32.52,2.83,1.56.27.55.4,1.24.4,2.09v14.23h6l.04-14.09c0-1.45-.07-2.55-.2-3.3-.22-1.13-.63-2.09-1.25-2.87Z"
  />
  <path
    class="b"
    d="M156.75,29.94c-.97-1.51-2.21-2.61-3.7-3.31s-3.17-1.05-5.03-1.05c-3.14,0-5.69,1.03-7.65,3.1-1.97,2.07-2.95,5.04-2.95,8.92,0,4.14,1.09,7.12,3.27,8.96s4.69,2.75,7.54,2.75c3.45,0,6.14-1.09,8.05-3.27,1.23-1.37,1.92-2.72,2.08-4.05h-5.98c-.32.66-.68,1.17-1.09,1.54-.75.68-1.73,1.03-2.94,1.03-1.14,0-2.11-.28-2.92-.84-1.33-.9-2.03-2.48-2.12-4.73h15.33c.03-1.93-.03-3.41-.18-4.44-.26-1.75-.83-3.29-1.71-4.62ZM143.46,35c.19-1.45.66-2.6,1.41-3.45.74-.85,1.79-1.27,3.15-1.27,1.24,0,2.29.4,3.13,1.2.84.8,1.31,1.97,1.4,3.52h-9.08Z"
  />
</svg>
