<?xml version="1.0" encoding="UTF-8"?>
<svg xmlns="http://www.w3.org/2000/svg" viewBox="0 0 204.1 172">
  <defs>
    <style>
      .b {
        fill: #fff;
      }

      .c {
        opacity: 0.2;
      }
    </style>
  </defs>
  <circle class="b" cx="103.7" cy="113.3" r="28.9"/>
  <path class="b" d="M128.9,140.9c-.7-.6-1.8-.6-2.5,0-6.2,5-14.1,8.1-22.6,8.1s-16.5-3-22.6-8.1-1.8-.6-2.5,0c-8.5,6.9-14.2,17.3-14.8,29s.9,2.1,2,2.1h75.9c1.2,0,2.1-1,2-2.1-.6-11.7-6.2-22.1-14.8-29Z"/>
  <rect class="c" x="3.1" y="3" width="198" height="65" rx="32.5" ry="32.5"/>
  <path class="b" d="M168.6,0H36.1C17.8,0,2.1,13.6.2,31.7s14.5,39.3,35.3,39.3h132.5c18.3,0,34-13.6,35.9-31.7C206.1,18,189.5,0,168.6,0ZM168.6,65H36.1c-15,0-28-11-29.8-25.8S18,6,35.5,6h132.6c15,0,28,11,29.8,25.8,2.2,17.9-11.8,33.2-29.3,33.2Z"/>
  <polygon class="b" points="70.1 38.9 57.8 18 52.1 18 52.1 48 58.1 48 58.1 26.7 70.7 48 76.1 48 76.1 18 70.1 18 70.1 38.9"/>
  <path class="b" d="M99.2,46.7c-.2-.3-.3-.8-.3-1.6,0-1,0-1.9.3-2.6v-10.3c-.3-2.7-1.3-4.5-3.2-5.5s-4.1-1.5-6.5-1.5c-3.8,0-6.4,1-8,3-1,1.3-1.5,2.9-1.6,4.7h5.6c.1-.7.4-1.4.8-1.9.6-.7,1.6-1,2.9-1s2.2.2,2.8.5,1,1,1,1.9-.4,1.3-1.3,1.7c-.5.2-1.2.4-2.3.5l-2,.2c-2.3.3-4,.8-5.1,1.4-2.1,1.2-3.2,3.2-3.2,6s.7,3.8,2,4.9,3,1.7,5,1.7,3-.4,4.3-1.1c1.1-.6,2-1.4,2.8-2.2,0,.5,0,1,.2,1.4s.2,1.8.4,2h6.4v-1.6c-.4-.2-.7-.4-.9-.7ZM93.1,39.5c0,2-.6,3.3-1.7,4s-2.2,1.1-3.5,1.1-1.5-.2-2-.7c-.6-.4-.8-1.2-.8-2.2s.5-1.9,1.4-2.5c.5-.3,1.4-.6,2.6-.8l1.3-.2c.7-.1,1.2-.3,1.5-.4s.7-.3,1.1-.6v2.2Z"/>
  <path class="b" d="M133.7,27.7c-.8-1-1.6-1.6-2.6-2s-1.9-.6-2.9-.6c-1.5,0-2.8.3-4,.9-1.1.6-2.1,1.6-2.8,2.9-.4-1.1-1.1-2-1.9-2.7-1-.8-2.4-1.1-4.1-1.1s-3.2.4-4.4,1.3c-.6.5-1.3,1.3-2,2.5v-2.9h-6v22h6v-13.5c0-1.2.2-2.1.5-2.7.6-1.1,1.7-1.6,3.3-1.6s2.4.5,2.8,1.6c.3.6.4,1.6.4,2.9v13.3h6v-13.3c0-1,.2-1.9.5-2.6.6-1.3,1.7-2,3.3-2s2.3.5,2.8,1.6.4,1.2.4,2.1v14.2h6v-14.1c0-1.4,0-2.5-.2-3.3-.2-1.1-.6-2.1-1.3-2.9Z"/>
  <path class="b" d="M156.7,29.9c-1-1.5-2.2-2.6-3.7-3.3s-3.2-1-5-1c-3.1,0-5.7,1-7.7,3.1-2,2.1-2.9,5-2.9,8.9s1.1,7.1,3.3,9,4.7,2.8,7.5,2.8,6.1-1.1,8.1-3.3c1.2-1.4,1.9-2.7,2.1-4h-6c-.3.7-.7,1.2-1.1,1.5-.8.7-1.7,1-2.9,1s-2.1-.3-2.9-.8c-1.3-.9-2-2.5-2.1-4.7h15.3c0-1.9,0-3.4-.2-4.4-.3-1.8-.8-3.3-1.7-4.6ZM143.5,35c.2-1.4.7-2.6,1.4-3.4.7-.8,1.8-1.3,3.1-1.3s2.3.4,3.1,1.2c.8.8,1.3,2,1.4,3.5h-9.1Z"/>
</svg>
