<?xml version="1.0" encoding="UTF-8" ?>
<svg xmlns="http://www.w3.org/2000/svg" viewBox="0 0 244.1 240">
  <defs>
    <style>.b{fill:white;}</style>
  </defs>
  <path
    class="b"
    d="M243.5,118.6l-45-45.4c-1.3-1.3-3.4-.4-3.4,1.4v27.4h-57v36h57v27.4c0,1.8,2.2,2.7,3.4,1.4l45-45.4c.8-.8.8-2,0-2.8Z"
  />
  <path
    class="b"
    d="M45.6,73.2L.6,118.6c-.8.8-.8,2,0,2.8l45,45.4c1.3,1.3,3.4.4,3.4-1.4v-27.4h57v-36h-57v-27.4c0-1.8-2.2-2.7-3.4-1.4Z"
  />
  <rect class="b" x="119" width="7" height="11" />
  <rect class="b" x="119" y="150" width="7" height="20" />
  <rect class="b" x="119" y="190" width="7" height="20" />
  <rect class="b" x="119" y="110" width="7" height="20" />
  <rect class="b" x="119" y="30" width="7" height="20" />
  <rect class="b" x="119" y="70" width="7" height="20" />
  <rect class="b" x="119" y="229" width="7" height="11" />
</svg>
