<?xml version="1.0" encoding="UTF-8" ?>
<svg xmlns="http://www.w3.org/2000/svg" viewBox="0 0 94.5 97.8">
  <defs>
    <style>.b{fill:white;}</style>
  </defs>
  <path
    class="b"
    d="M28.2,7.5C28.2,3,24.4-.5,19.8,0c-3.8.5-6.6,3.9-6.6,7.7v69.1H0l21,20.9,21-20.9h-13.7V7.5Z"
  />
  <path
    class="b"
    d="M94.4,10c-.4-3.6-3.6-6.1-7.2-6.1h-48.7c-4.2,0-7.5,3.6-6.9,7.9.4,3.6,3.6,6.1,7.2,6.1h48.7c4.2,0,7.5-3.6,6.9-7.9Z"
  />
  <path
    class="b"
    d="M75.2,21.8h-36.7c-4.2,0-7.5,3.6-6.9,7.9.4,3.6,3.6,6.1,7.2,6.1h36.7c4.2,0,7.5-3.6,6.9-7.9-.4-3.6-3.6-6.1-7.2-6.1Z"
  />
  <path
    class="b"
    d="M66.2,39.8h-27.7c-4.2,0-7.5,3.6-6.9,7.9.4,3.6,3.6,6.1,7.2,6.1h27.7c4.2,0,7.5-3.6,6.9-7.9-.4-3.6-3.6-6.1-7.2-6.1Z"
  />
  <path
    class="b"
    d="M54.2,57.8h-15.7c-4.2,0-7.5,3.6-6.9,7.9.4,3.6,3.6,6.1,7.2,6.1h15.7c4.2,0,7.5-3.6,6.9-7.9-.4-3.6-3.6-6.1-7.2-6.1Z"
  />
</svg>
