<?xml version="1.0" encoding="UTF-8" ?>
<svg xmlns="http://www.w3.org/2000/svg" viewBox="0 0 203 171">
  <defs>
    <style>
      .b {
        fill: #fff;
        stroke-width: 0px;
      }
    </style>
  </defs>
  <path
    class="b"
    d="M185.5,156H17.5c-1.4,0-2.5-1.1-2.5-2.5V31.5c0-1.4,1.1-2.5,2.5-2.5h168c1.4,0,2.5,1.1,2.5,2.5v122c0,1.4-1.1,2.5-2.5,2.5ZM203,168.5V2.5c0-1.4-1.1-2.5-2.5-2.5H2.5C1.1,0,0,1.1,0,2.5v166c0,1.4,1.1,2.5,2.5,2.5h198c1.4,0,2.5-1.1,2.5-2.5ZM53.7,121.2c-3.9,0-7.3-.6-10.5-1.9-3.1-1.3-5.6-3.4-7.4-6.3-1.8-2.9-2.7-6.8-2.7-11.6v-22.3c0-4.8.9-8.7,2.7-11.6,1.8-2.9,4.3-5,7.4-6.3,3.1-1.3,6.6-1.9,10.5-1.9s7.4.6,10.5,1.9c3.1,1.3,5.6,3.4,7.4,6.3,1.8,2.9,2.7,6.8,2.7,11.6v22.3c0,4.8-.9,8.7-2.7,11.6-1.8,2.9-4.3,5-7.4,6.3-3.1,1.3-6.6,1.9-10.5,1.9ZM53.7,109.8c2.4,0,4.2-.7,5.5-2,1.3-1.3,2-3.5,2-6.4v-22.3c0-2.9-.7-5-2-6.4-1.3-1.3-3.2-2-5.5-2s-4.2.7-5.5,2c-1.3,1.3-2,3.5-2,6.4v22.3c0,2.9.7,5,2,6.4,1.3,1.3,3.1,2,5.5,2ZM100.4,121.5c-3.6,0-7-.5-10.1-1.6-3.1-1.1-5.5-2.4-7.4-4.1-1.8-1.7-2.8-3.4-2.8-5.2s.3-2,.8-3.1,1.2-2,2.1-2.8c.9-.8,1.8-1.2,2.9-1.2s1.9.3,2.8.9c.9.6,1.8,1.3,2.9,2.2,1,.8,2.2,1.6,3.6,2.2,1.4.6,3,.9,5,.9s2.6-.2,3.8-.5c1.3-.4,2.3-1,3.1-1.8.8-.8,1.2-1.9,1.2-3.2s-.5-2.7-1.4-3.7c-1-1-2.2-2-3.8-2.8-1.6-.8-3.3-1.7-5.2-2.6-1.9-.9-3.8-1.8-5.7-2.9-1.9-1-3.7-2.3-5.2-3.7-1.6-1.4-2.9-3.1-3.8-5.2-1-2-1.4-4.4-1.4-7.2s.6-5.8,1.8-8c1.2-2.2,2.9-4,5-5.4,2.1-1.4,4.4-2.4,6.9-3,2.5-.6,5.1-1,7.8-1s2.6,0,4.5.3c1.8.2,3.7.5,5.6,1,1.9.5,3.5,1.2,4.7,2.2,1.3,1,1.9,2.3,1.9,3.9s-.2,1.6-.5,2.7c-.4,1.1-.9,2.1-1.7,2.9-.8.8-1.8,1.3-3,1.3s-1.9-.3-2.8-.8c-.9-.5-2-1.1-3.3-1.6-1.3-.5-3.1-.8-5.4-.8s-3.6.2-4.8.7c-1.3.5-2.2,1.1-2.7,1.8-.6.8-.8,1.6-.8,2.5s.5,2.2,1.4,3.1c1,.9,2.2,1.7,3.8,2.4,1.6.8,3.3,1.5,5.2,2.4,1.9.8,3.8,1.8,5.7,2.9s3.7,2.4,5.2,3.9c1.6,1.5,2.9,3.4,3.8,5.5,1,2.2,1.4,4.8,1.4,7.8s-.9,7.4-2.7,10.2c-1.8,2.8-4.3,4.9-7.4,6.3-3.1,1.4-6.7,2.1-10.8,2.1ZM147.8,121.2c-3.6,0-7-.6-10.1-1.9-3.1-1.3-5.5-3.4-7.4-6.3-1.8-2.9-2.7-6.8-2.7-11.6v-22.3c0-4.8.9-8.7,2.7-11.6,1.8-2.9,4.3-5,7.4-6.3,3.1-1.3,6.4-1.9,10.1-1.9s7.6.7,10.8,2c3.2,1.3,5.7,3.2,7.5,5.7,1.8,2.5,2.8,5.5,2.8,9.1s-.5,4.2-1.6,5c-1.1.8-2.7,1.2-5,1.2s-3.2-.3-4.5-.8c-1.3-.6-1.9-1.6-2.1-3.1,0-.6,0-1.3-.2-2.1-.1-.8-.4-1.7-.9-2.5-.4-.8-1.2-1.5-2.2-2.1-1-.6-2.4-.8-4.2-.8s-4.3.7-5.6,2.1c-1.3,1.4-2,3.5-2,6.3v22.3c0,2.9.7,5,2,6.3,1.3,1.4,3.2,2.1,5.6,2.1s3-.3,4-.8c1-.6,1.7-1.3,2.1-2.1.4-.9.8-1.8.9-2.7.2-1,.3-1.8.3-2.7.1-1.6.8-2.6,2.1-3.2,1.3-.5,2.7-.8,4.4-.8s4,.4,5,1.2c1.1.8,1.6,2.5,1.6,5,0,3.7-.9,6.9-2.8,9.5-1.8,2.6-4.4,4.6-7.5,6-3.2,1.4-6.8,2.1-10.8,2.1Z"
  />
</svg>
