<?xml version="1.0" encoding="UTF-8" ?>
<svg xmlns="http://www.w3.org/2000/svg" viewBox="0 0 247 247">
  <defs>
    <style>
      .b {
        fill: #474747;
      }

      .b, .c {
        stroke-width: 0px;
      }

      .c {
        fill: #ddae36;
      }
    </style>
  </defs>
  <g>
    <path
      class="b"
      d="M123.5,239c-63.7,0-115.5-51.8-115.5-115.5S59.8,8,123.5,8s115.5,51.8,115.5,115.5-51.8,115.5-115.5,115.5Z"
    />
    <path
      class="c"
      d="M123.5,16c28.7,0,55.7,11.2,76,31.5,20.3,20.3,31.5,47.3,31.5,76s-11.2,55.7-31.5,76c-20.3,20.3-47.3,31.5-76,31.5s-55.7-11.2-76-31.5c-20.3-20.3-31.5-47.3-31.5-76s11.2-55.7,31.5-76c20.3-20.3,47.3-31.5,76-31.5M123.5,0C55.3,0,0,55.3,0,123.5s55.3,123.5,123.5,123.5,123.5-55.3,123.5-123.5S191.7,0,123.5,0h0Z"
    />
  </g>
  <circle class="c" cx="123.5" cy="123.5" r="53.5" />
</svg>
