<?xml version="1.0" encoding="UTF-8" ?>
<svg xmlns="http://www.w3.org/2000/svg" viewBox="0 0 247 247">
  <defs>
    <style>
      .b {
        fill: #474747;
      }

      .b, .c {
        stroke-width: 0px;
      }

      .d {
        fill: none;
        stroke: #474747;
        stroke-linecap: round;
        stroke-miterlimit: 10;
        stroke-width: 32px;
      }

      .c {
        fill: #d5654a;
      }
    </style>
  </defs>
  <g>
    <path
      class="b"
      d="M123.5,241c-64.8,0-117.5-52.7-117.5-117.5S58.7,6,123.5,6s117.5,52.7,117.5,117.5-52.7,117.5-117.5,117.5Z"
    />
    <path
      class="c"
      d="M123.5,12c29.8,0,57.8,11.6,78.8,32.7s32.7,49.1,32.7,78.8-11.6,57.8-32.7,78.8-49.1,32.7-78.8,32.7-57.8-11.6-78.8-32.7S12,153.3,12,123.5s11.6-57.8,32.7-78.8S93.7,12,123.5,12M123.5,0C55.3,0,0,55.3,0,123.5s55.3,123.5,123.5,123.5,123.5-55.3,123.5-123.5S191.7,0,123.5,0h0Z"
    />
  </g>
  <circle class="c" cx="123.5" cy="123.5" r="95.5" />
  <g>
    <line class="d" x1="124" y1="62" x2="124" y2="141" />
    <line class="d" x1="123" y1="184" x2="123" y2="185" />
  </g>
</svg>
