<?xml version="1.0" encoding="UTF-8" ?>
<svg xmlns="http://www.w3.org/2000/svg" viewBox="0 0 151 84">
  <defs>
    <style>.b{fill:white;}</style>
  </defs>
  <path
    class="b"
    d="M15.6,39.3c-4.6-1.5-8.1-3.8-10.4-6.8-2.3-3.1-3.5-6.9-3.5-11.5,0-6.8,2.4-12,7.2-15.6S20.7,0,30,0s16.2,1.8,21,5.3c4.8,3.6,7.2,8.8,7.2,15.6s-1.2,8.4-3.5,11.5c-2.4,3.1-5.9,5.3-10.5,6.8,5.2,1.5,9.1,4,11.7,7.4,2.6,3.4,3.9,7.7,3.9,12.9,0,8-2.5,14.1-7.5,18.2-5,4.1-12.4,6.2-22.3,6.2s-17.3-2-22.4-6.2c-5-4.1-7.6-10.2-7.6-18.2s1.3-9.5,3.9-12.9c2.6-3.4,6.5-5.9,11.7-7.4ZM30,46.2c-3.7,0-6.5,1.1-8.5,3.2-2,2.1-3,5.2-3,9.2s1,7,3,9.1c2,2.1,4.8,3.2,8.5,3.2s6.4-1.1,8.4-3.2c1.9-2.1,2.9-5.2,2.9-9.1s-1-7.1-2.9-9.2c-1.9-2.1-4.7-3.2-8.4-3.2ZM20.2,23.1c0,3.2.8,5.7,2.5,7.4,1.7,1.7,4.1,2.6,7.2,2.6s5.4-.9,7.1-2.6c1.7-1.7,2.5-4.2,2.5-7.4s-.8-5.7-2.5-7.4c-1.7-1.7-4-2.6-7.1-2.6s-5.5.9-7.2,2.6c-1.7,1.7-2.5,4.2-2.5,7.4Z"
  />
  <path
    class="b"
    d="M75.1,1h20v29.6L124,1h23.2l-37.3,38.4,41.2,42.6h-25l-30.9-31.9v31.9h-20V1Z"
  />
</svg>
