<?xml version="1.0" encoding="UTF-8"?>
<svg xmlns="http://www.w3.org/2000/svg" viewBox="0 0 171.5 173.5">
  <defs>
    <style>
      .b {
        fill: none;
        stroke: #fff;
        stroke-linecap: round;
        stroke-linejoin: round;
        stroke-width: 12px;
      }

      .c {
        fill: #fff;
        stroke-width: 0px;
      }
    </style>
  </defs>
  <rect class="b" x="58" y="60" width="104" height="104" rx="5" ry="5"/>
  <path class="c" d="M170.5,18L153.5,1c-.7-.7-1.5-1-2.5-1h-7.6c-3.1,0-4.7,3.7-2.5,5.9l8.7,9.1h-78.5l8.7-9.1c2.1-2.2.6-5.9-2.5-5.9h-7.6c-.9,0-1.8.4-2.5,1l-17,17c-1.4,1.4-1.4,3.6,0,4.9l17,17c.7.7,1.5,1,2.5,1h7.9c3.1,0,4.7-3.8,2.5-6l-8-8h76.6l-8,8c-2.2,2.2-.6,6,2.5,6h7.9c.9,0,1.8-.4,2.5-1l17-17c1.4-1.4,1.4-3.6,0-4.9Z"/>
  <path class="c" d="M35,82.1c2.2,2.2,6,.6,6-2.5v-7.9c0-.9-.4-1.8-1-2.5l-17-17c-1.4-1.4-3.6-1.4-4.9,0L1,69.3c-.7.7-1,1.5-1,2.5v7.6c0,3.1,3.7,4.7,5.9,2.5l9.1-8.7v78.5l-9.1-8.7c-2.2-2.1-5.9-.6-5.9,2.5v7.6c0,.9.4,1.8,1,2.5l17,17c1.4,1.4,3.6,1.4,4.9,0l17-17c.7-.7,1-1.5,1-2.5v-7.9c0-3.1-3.8-4.7-6-2.5l-8,8v-76.6l8,8Z"/>
</svg>
