<?xml version="1.0" encoding="UTF-8" ?>
<svg xmlns="http://www.w3.org/2000/svg" viewBox="0 0 237.9 218.4">
  <defs>
    <style>
      .b {
        fill: #101418;
      }

      .c {
        fill: #263946;
      }

      .d {
        fill: #319fbf;
      }
    </style>
  </defs>
  <path class="c" d="M168.4,0c-18.7,0-34,15.3-34,34s0,.8,0,1.3l-40.2-2.4c-.4,0-.9,0-1.3,0-6,0-11.9,2.5-16.1,6.9-4.5,4.7-6.7,11.2-6,17.7l5.2,47.4c1.1,10,8.7,17.9,18.5,19.5l-37.1,55.7c-3.7,5.5-5,12.1-3.7,18.5,1.3,6.5,5,12,10.5,15.7,4.1,2.7,8.8,4.1,13.7,4.1,8.3,0,16-4.1,20.6-11l7.6-11.5c2.8,1.1,5.7,1.6,8.7,1.6s7.3-.8,10.7-2.4l54.6-26.3c7.3-3.5,12.4-10.4,13.7-18.5.9-6.1-.5-12.4-3.9-17.5,1.2-.6,2.3-1.3,3.4-2.1l35.7-26.7c4.7-3.6,7.8-8.7,8.7-14.6.8-5.9-.6-11.7-4.2-16.5-4.2-5.6-10.8-8.9-17.8-8.9s-9.4,1.5-13.3,4.4l-12.3,9.2-4-10.2c-.5-1.2-1-2.3-1.7-3.4,11-5.9,18-17.5,18-30,0-18.7-15.3-34-34-34h0Z"/>
  <path class="b" d="M232.5,73.7c-3.9-5.3-10.2-8.4-16.8-8.4s-8.9,1.4-12.6,4.2l-13.6,10.2-4.6-11.7c-.6-1.5-1.4-3-2.3-4.3,11-5.3,18.6-16.6,18.6-29.6S186.5,1.2,168.4,1.2s-32.8,14.7-32.8,32.8,0,1.7.1,2.5l-41.6-2.5c-.4,0-.8,0-1.3,0h0c-5.7,0-11.2,2.4-15.2,6.5-4.3,4.5-6.3,10.6-5.7,16.8l5.2,47.4c1.1,10.2,9.3,18,19.4,18.7l-38.2,57.3c-3.5,5.2-4.7,11.5-3.5,17.6,1.2,6.2,4.8,11.5,10,14.9,3.9,2.6,8.4,3.9,13,3.9,7.9,0,15.2-3.9,19.6-10.5l8.2-12.3c2.9,1.2,6,1.9,9.2,1.9s7-.8,10.2-2.3l54.6-26.3c7-3.4,11.8-9.9,13-17.6,1-6.4-.7-12.8-4.5-17.8,1.6-.7,3.1-1.5,4.5-2.6l35.7-26.7c4.5-3.4,7.4-8.3,8.2-13.8.8-5.6-.6-11.1-4-15.6Z"/>
  <path class="d" d="M223.7,80.2c-3.3-4.4-9.6-5.3-14-2l-25.2,18.8-9.9-25.1c-.8-2-2.2-3.7-4.1-4.9l-29.3-18c-1.4-.9-3-1.4-4.6-1.5l-43.2-2.6c-2.9-.2-5.8,1-7.8,3.1-2,2.1-3,5.1-2.7,8l5.2,47.4c.6,5.5,5.5,9.5,11,8.9,5.5-.6,9.5-5.5,8.9-11l-3.9-35.6,20.2,1.2-10.9,27.8c-2.8,7.1-1,15.2,4.6,20.4l29.7,28-38.2,18.4c-6.2,3-8.8,10.5-5.8,16.7,2.2,4.5,6.6,7.1,11.3,7.1s3.7-.4,5.4-1.2l54.6-26.3c3.7-1.8,6.3-5.3,6.9-9.3.6-4.1-.8-8.2-3.8-11l-24.7-23.3,9.8-17.2,7.7,19.7c1.1,2.9,3.6,5.1,6.6,6,.9.3,1.8.4,2.7.4,2.1,0,4.2-.7,6-2l35.7-26.7c4.4-3.3,5.3-9.6,2-14Z"/>
  <path class="d" d="M100.2,167.7c1.4-3.9,4.2-7,7.9-8.8l11.8-5.7,13-19.6-19.1-16.4-46.3,69.6c-3.8,5.7-2.3,13.5,3.5,17.3,2.1,1.4,4.5,2.1,6.9,2.1,4,0,8-2,10.4-5.6l13.2-19.8c-.2-.4-.5-.8-.7-1.3-1.8-3.7-2-7.9-.7-11.8Z"/>
  <circle class="d" cx="168.4" cy="34" r="21.8" transform="translate(25.3 129) rotate(-45)"/>
  <path class="c" d="M57.6,47.2H22.6c-3.6,0-6.8,2.6-7.2,6.1s2.8,7.9,6.9,7.9h35c3.6,0,6.8-2.6,7.2-6.1s-2.8-7.9-6.9-7.9h0Z"/>
  <path class="c" d="M57.4,77.2H7.3c-3.6,0-6.8,2.6-7.2,6.1s2.8,7.9,6.9,7.9h50.1c3.6,0,6.8-2.6,7.2-6.1s-2.8-7.9-6.9-7.9h0Z"/>
  <path class="c" d="M69.7,108.2h-35.7c-3.6,0-6.8,2.6-7.2,6.1s2.8,7.9,6.9,7.9h35.7c3.6,0,6.8-2.6,7.2-6.1s-2.8-7.9-6.9-7.9h0Z"/>
  <path class="b" d="M58.1,60.2H22.1c-3.1,0-5.8-2.2-6.2-5.2s2.4-6.8,6-6.8h36.1c3.1,0,5.8,2.2,6.2,5.2s-2.4,6.8-6,6.8Z"/>
  <path class="b" d="M58.1,90.2H6.5c-3.1,0-5.8-2.2-6.2-5.2s2.4-6.8,6-6.8h51.6c3.1,0,5.8,2.2,6.2,5.2s-2.4,6.8-6,6.8Z"/>
  <path class="b" d="M70.2,121.2h-36.8c-3.1,0-5.8-2.2-6.2-5.2s2.4-6.8,6-6.8h36.8c3.1,0,5.8,2.2,6.2,5.2s-2.4,6.8-6,6.8Z"/>
</svg>
