<?xml version="1.0" encoding="UTF-8" ?>
<svg xmlns="http://www.w3.org/2000/svg" viewBox="0 0 255 150">
  <defs>
    <style>.b{fill:white;}</style>
  </defs>
  <circle class="b" cx="26.5" cy="21.5" r="8.5" />
  <path
    class="b"
    d="M254.5,17.2c-4.1-9.8-33.6-7.5-74,4.1C167.3,8.1,149.1,0,129,0,88.7,0,56,32.7,56,73s0,.3,0,.5C19,94.3-3.7,114,.5,123.8c4.1,9.7,33,7.5,72.7-3.8,13.4,15.9,33.4,25.9,55.8,25.9s29.3-4.7,41-12.6c-1.9-4.2-3-8.9-3-13.9,0-18.5,15-33.5,33.5-33.5s.2,0,.3,0c.8-4.2,1.2-8.6,1.2-13s-.1-4.7-.3-7c35.4-20.3,56.9-39.2,52.9-48.8ZM38.8,107.5c-2.3-5.6,4.6-14.4,17.9-24.4,1.4,10.5,5.2,20.4,10.6,29-15.6,2.2-26.3.9-28.5-4.5ZM200,56.2c-2.4-10.3-7-19.7-13.2-27.8,16.4-2.4,27.5-1.2,29.8,4.3,2.3,5.4-4.2,13.8-16.6,23.4Z"
  />
  <circle class="b" cx="200.5" cy="120.5" r="29.5" />
</svg>
