<?xml version="1.0" encoding="UTF-8"?>
<svg xmlns="http://www.w3.org/2000/svg" viewBox="0 0 67.67 82.62">
  <defs>
    <style>
      .b {
        fill: none;
        stroke: #fff;
        stroke-linecap: round;
        stroke-miterlimit: 10;
        stroke-width: 8px;
      }

      .c {
        fill: #fff;
        stroke-width: 0px;
      }
    </style>
  </defs>
  <path class="b" d="M34.87,4.22c-.61-.29-1.32-.29-1.94,0-2.02.97-6.56,4.87-11.65,7.2-6.64,3.04-13.98,4.51-15.33,4.51-2.7,0-1.8,23.44-1.8,32.91,0,7.9,20.72,23.96,27.58,29.06,1.29.96,3.06.95,4.35-.02,6.72-5.07,26.76-20.87,27.13-29.5.45-10.37,1.35-32.91-1.8-32.91-1.55,0-8.51-1.18-14.88-4.06-5.06-2.28-9.64-6.24-11.65-7.2Z"/>
  <path class="c" d="M43.73,18.4c4.8,2.16,10.04,3.06,11.2,3.06,2.38,0,1.7,16.97,1.36,24.78-.28,6.5-15.37,18.39-20.43,22.21-.97.73-2.3.74-3.27.01-5.16-3.84-20.77-15.94-20.77-21.88,0-7.13-.68-24.78,1.36-24.78,1.02,0,6.54-1.11,11.54-3.39,3.84-1.76,7.25-4.69,8.78-5.42.46-.22,1-.22,1.46,0,1.52.73,4.96,3.7,8.77,5.42ZM33.63,25.83l-2.28,7c-.29.88-1.1,1.47-2.03,1.47h-7.37c-.56,0-.8.72-.34,1.05l5.96,4.33c.75.54,1.06,1.5.77,2.38l-2.28,7c-.17.54.44.98.9.65l5.96-4.33c.75-.54,1.76-.54,2.5,0l5.96,4.33c.46.33,1.07-.11.9-.65l-2.28-7c-.29-.88.03-1.84.77-2.38l5.96-4.33c.46-.33.22-1.05-.34-1.05h-7.37c-.92,0-1.74-.59-2.03-1.47l-2.28-7c-.17-.54-.93-.54-1.11,0Z"/>
</svg>
