<?xml version="1.0" encoding="UTF-8" ?>
<svg xmlns="http://www.w3.org/2000/svg" viewBox="0 0 147.4 180.5">
  <defs>
    <style>.b{fill:white;}</style>
  </defs>
  <path
    class="b"
    d="M73.8,180.5c-3.4,0-6.6-1.1-9.3-3.1-1.6-1.2-3.6-2.7-5.9-4.5-3.3-2.5-3.9-7.2-1.4-10.5,2.5-3.3,7.2-3.9,10.5-1.4,2.2,1.7,4.1,3.1,5.7,4.3.2.1.5.1.7,0,1.1-.8,2.4-1.8,3.8-2.9,3.3-2.5,8-1.9,10.5,1.4,2.5,3.3,1.9,8-1.4,10.5-1.5,1.1-2.8,2.1-4,3-2.7,2-6,3.1-9.4,3.1ZM100.4,161.4c-2.1,0-4.2-.9-5.7-2.6-2.7-3.1-2.3-7.9.8-10.6,6.1-5.2,11.5-10.2,16.2-14.8,2.9-2.9,7.7-2.9,10.6,0s2.9,7.7,0,10.6c-4.9,4.9-10.7,10.2-17,15.6-1.4,1.2-3.1,1.8-4.9,1.8ZM45.2,160.1c-1.7,0-3.4-.6-4.8-1.8-6.4-5.4-12.2-10.6-17.1-15.5-3-2.9-3-7.6-.1-10.6,2.9-3,7.6-3,10.6-.1,4.7,4.6,10.2,9.5,16.3,14.7,3.2,2.7,3.6,7.4.9,10.6-1.5,1.8-3.6,2.7-5.7,2.7ZM132.1,128.8c-1.5,0-3-.4-4.3-1.4-3.4-2.4-4.2-7.1-1.8-10.4,4.5-6.4,5.3-9.9,5.3-11.4,0-1.7.2-3.5.2-5.5.2-4.1,3.6-7.3,7.8-7.2,4.1.2,7.4,3.7,7.2,7.8,0,2-.2,3.8-.2,5.5-.2,5.7-2.9,12-8,19.4-1.5,2.1-3.8,3.2-6.1,3.2ZM13.3,127.7c-2.4,0-4.7-1.1-6.2-3.2-4.6-6.7-6.8-12.4-6.8-17.5s0-4.9,0-7.8c0-4.1,3.3-7.5,7.4-7.6,0,0,0,0,0,0,4.1,0,7.4,3.3,7.5,7.4,0,3,0,5.7,0,8s.3,3.4,4.2,9c2.4,3.4,1.5,8.1-1.9,10.4-1.3.9-2.8,1.3-4.3,1.3ZM139.8,84.9s0,0-.1,0c-4.1,0-7.4-3.5-7.4-7.6,0-3.5,0-6.9,0-10,0-4.5,0-8.5-.2-12.1-.2-4.1,3.1-7.6,7.2-7.8,4.2-.2,7.6,3.1,7.8,7.2.1,3.7.2,8,.2,12.6s0,6.7,0,10.3c0,4.1-3.4,7.4-7.5,7.4ZM7.5,83.5C3.4,83.5,0,80.2,0,76c0-1.3,0-2.6,0-3.9,0-7.6.1-13.8.3-19,.2-4.1,3.7-7.4,7.8-7.2,4.1.2,7.3,3.7,7.2,7.8-.2,5-.3,11-.3,18.4s0,2.5,0,3.8c0,4.1-3.3,7.5-7.5,7.5h0ZM14.2,41.2c-3.6,0-6.8-2.7-7.4-6.4-.6-4.1,2.2-7.9,6.3-8.5,3.3-.5,11.3-2.2,20.4-5.4,3.9-1.4,8.2.7,9.6,4.6s-.7,8.2-4.6,9.6c-9.5,3.4-18.4,5.4-23.1,6.1-.4,0-.8,0-1.1,0ZM135.2,40.5c-.3,0-.6,0-.9,0-3.8-.1-13.1-1.7-23.4-5-3.9-1.3-6.1-5.5-4.9-9.4,1.3-3.9,5.5-6.1,9.4-4.9,10.1,3.2,18,4.3,19.3,4.3.7,0,1.4,0,2.1.3,4,1,6.5,5.1,5.5,9.1-.8,3.4-3.9,5.7-7.3,5.7ZM133.4,40.3s0,0,0,0c0,0,0,0,0,0ZM92.3,26.3c-1.4,0-2.7-.4-4-1.1-3.6-2.2-6.7-4.4-9.5-6.4-1.8-1.3-3.7-2.6-5-3.4-1.3.8-3.2,2.1-5,3.4-2.4,1.7-5.1,3.6-8.1,5.5-3.5,2.2-8.1,1.2-10.4-2.3-2.2-3.5-1.2-8.1,2.3-10.4,2.8-1.8,5.3-3.6,7.6-5.2,3.4-2.3,6-4.2,8.2-5.3,3.3-1.6,7.4-1.6,10.8,0,2.2,1.1,4.9,2.9,8.2,5.3,2.6,1.8,5.6,3.9,8.8,5.9,3.5,2.2,4.6,6.8,2.4,10.3-1.4,2.3-3.9,3.5-6.4,3.5Z"
  />
</svg>
