<?xml version="1.0" encoding="UTF-8" ?>
<svg xmlns="http://www.w3.org/2000/svg" viewBox="0 0 219.3 146.1">
  <defs>
    <style>.b{fill:white;}</style>
  </defs>
  <path
    class="b"
    d="M188.4,40.9L56.1,8.4c-8.4-2.1-16.9,3.1-18.9,11.4l-18.3,74.4c-2.1,8.4,3.1,16.9,11.4,18.9l132.3,32.6c8.4,2.1,16.9-3.1,18.9-11.4l18.3-74.4c2.1-8.4-3.1-16.9-11.4-18.9ZM49.8,22.9c.3-1.4,1.8-2.3,3.2-1.9l132.3,32.6c1.4.3,2.3,1.8,1.9,3.2l-10,40.5-34.2-43.1-48.4,28.4-11.7-16-51.4,31.1c0-.1,0-.3,0-.4L49.8,22.9ZM165.7,133l-124.6-30.7,39.3-23.8,19.1,26c1.5,2,4.3,2.4,6.3,1,2-1.5,2.4-4.3,1-6.3l-6.9-9.4,40.9-24,33.7,42.5-5.6,22.8c-.3,1.4-1.8,2.3-3.2,1.9Z"
  />
  <path
    class="b"
    d="M63.8,63.2c9.2,2.3,18.6-3.4,20.9-12.6,2.3-9.2-3.4-18.6-12.6-20.9-9.2-2.3-18.6,3.4-20.9,12.6s3.4,18.6,12.6,20.9ZM69.9,38.4c4.4,1.1,7.1,5.6,6,10s-5.6,7.1-10,6-7.1-5.6-6-10,5.6-7.1,10-6Z"
  />
  <path
    class="b"
    d="M30,.1c-2.4-.6-4.9.9-5.4,3.3l-12.8,52c-.6,2.4.9,4.9,3.3,5.4s4.9-.9,5.4-3.3L33.3,5.6c.6-2.4-.9-4.9-3.3-5.4Z"
  />
  <path
    class="b"
    d="M13.9,3.6c-2.4-.6-4.9.9-5.4,3.3L.1,40.7c-.6,2.4.9,4.9,3.3,5.4s4.9-.9,5.4-3.3L17.2,9c.6-2.4-.9-4.9-3.3-5.4Z"
  />
  <path
    class="b"
    d="M206.4,79.6c-2.4-.6-4.9.9-5.4,3.3l-11.8,47.9c-.6,2.4.9,4.9,3.3,5.4s4.9-.9,5.4-3.3l11.8-47.9c.6-2.4-.9-4.9-3.3-5.4Z"
  />
  <path
    class="b"
    d="M215.9,93.8c-2.4-.6-4.9.9-5.4,3.3l-6.1,24.9c-.6,2.4.9,4.9,3.3,5.4s4.9-.9,5.4-3.3l6.1-24.9c.6-2.4-.9-4.9-3.3-5.4Z"
  />
</svg>
