<?xml version="1.0" encoding="UTF-8"?>
<svg xmlns="http://www.w3.org/2000/svg" viewBox="0 0 82.1 79">
  <defs>
    <style>
      .b {
        fill: none;
        stroke: #fff;
        stroke-miterlimit: 10;
        stroke-width: 6px;
      }
    </style>
  </defs>
  <path class="b" d="M47,7.3l4.7,14.4c.8,2.6,3.3,4.3,6,4.3h15.1c6.1,0,8.6,7.8,3.7,11.4l-12.2,8.9c-2.2,1.6-3.1,4.4-2.3,7l4.7,14.4c1.9,5.8-4.7,10.6-9.7,7l-12.2-8.9c-2.2-1.6-5.2-1.6-7.4,0l-12.2,8.9c-4.9,3.6-11.6-1.2-9.7-7l4.7-14.4c.8-2.6,0-5.4-2.3-7l-12.2-8.9c-4.9-3.6-2.4-11.4,3.7-11.4h15.1c2.7,0,5.1-1.8,6-4.3l4.7-14.4c1.9-5.8,10.1-5.8,12,0Z"/>
</svg>
