<?xml version="1.0" encoding="UTF-8" ?>
<svg xmlns="http://www.w3.org/2000/svg" viewBox="0 0 82.07 78.97">
  <defs>
    <style>
      .b {
        fill: none;
        stroke: #fff;
        stroke-miterlimit: 10;
        stroke-width: 6px;
      }
    </style>
  </defs>
  <path
    class="b"
    d="M47.02,7.35l4.67,14.36c.84,2.59,3.26,4.35,5.98,4.35h15.1c6.09,0,8.63,7.8,3.7,11.38l-12.22,8.88c-2.2,1.6-3.13,4.44-2.29,7.03l4.67,14.36c1.88,5.8-4.75,10.61-9.68,7.03l-12.22-8.88c-2.2-1.6-5.19-1.6-7.39,0l-12.22,8.88c-4.93,3.58-11.56-1.24-9.68-7.03l4.67-14.36c.84-2.59-.08-5.43-2.29-7.03l-12.22-8.88c-4.93-3.58-2.4-11.38,3.7-11.38h15.1c2.73,0,5.14-1.75,5.98-4.35l4.67-14.36c1.88-5.8,10.08-5.8,11.96,0Z"
  />
</svg>
