<?xml version="1.0" encoding="UTF-8" ?>
<svg xmlns="http://www.w3.org/2000/svg" viewBox="0 0 196.95 196.95">
  <defs>
    <style>.b{fill:white;}</style>
  </defs>
  <path
    class="b"
    d="M98.48,18c4.97,0,9-4.03,9-9S103.45,0,98.48,0C44.18,0,0,44.18,0,98.48c0,17.59,4.7,34.86,13.59,49.94,1.68,2.85,4.68,4.43,7.76,4.43,1.55,0,3.13-.4,4.56-1.25,4.28-2.52,5.71-8.04,3.18-12.32-7.26-12.31-11.09-26.42-11.09-40.8,0-44.37,36.1-80.48,80.48-80.48Z"
  />
  <path
    class="b"
    d="M116.52,89.46c-5.17-1.99-10.91-2.98-17.25-2.98h-11.4l1.75-24h32.44c1.99,0,3.45-.89,4.4-2.68.94-1.79,1.42-3.73,1.42-5.82,0-2.21-.48-4.19-1.44-5.94-.86-1.57-2.51-2.56-4.31-2.56h-44.84c-1.08,0-1.94.54-2.57,1.62-.64,1.08-1.01,2.6-1.1,4.56l-3.67,38.51c-.1.69-.17,1.32-.22,1.91-.05.59-.07,1.23-.07,1.91,0,2.26.54,4.07,1.62,5.44,1.08,1.37,3.09,2.06,6.03,2.06h21.9c4.7,0,8.43,1.35,11.17,4.04,2.74,2.7,4.12,6.83,4.12,12.42v2.43c0,5.53-1.36,9.6-4.09,12.22-2.73,2.62-6.53,3.93-11.4,3.93-2.83,0-5.38-.44-7.67-1.31-2.29-.87-4.09-2.13-5.41-3.78-1.31-1.65-1.97-3.68-1.97-6.11,0-1.94-.58-3.61-1.75-5.02-1.17-1.4-3.75-2.11-7.75-2.11-3.02,0-5.36.58-7.02,1.75-1.66,1.16-2.48,3.44-2.48,6.84,0,4.46,1.32,8.7,3.95,12.73,2.63,4.02,6.53,7.3,11.69,9.82,5.16,2.52,11.45,3.78,18.85,3.78,6.23,0,11.93-1.07,17.1-3.2,5.16-2.13,9.28-5.62,12.35-10.47,3.07-4.85,4.6-11.2,4.6-19.05v-2.76c0-7.56-1.53-13.65-4.6-18.25-3.07-4.6-7.19-7.9-12.35-9.89Z"
  />
  <circle class="b" cx="141.96" cy="20.26" r="9" />
  <circle class="b" cx="175.37" cy="52.69" r="9" />
  <circle class="b" cx="187.95" cy="97.48" r="9" />
  <circle class="b" cx="176.35" cy="142.57" r="9" />
  <circle class="b" cx="143.68" cy="175.98" r="9" />
  <circle class="b" cx="53.74" cy="175.71" r="9" />
  <circle class="b" cx="98.79" cy="187.95" r="9" />
</svg>
