<?xml version="1.0" encoding="UTF-8"?>
<svg xmlns="http://www.w3.org/2000/svg" viewBox="0 0 197 180">
  <defs>
    <style>.b{fill:#fff;}</style>
  </defs>
  <path class="b" d="M177,0H20C9,0,0,9,0,20v103c0,11,9,20,20,20h42.2l32.9,34.8c2.7,2.9,7.2,3,10.1.3l36.6-35.1h35.3c11,0,20-9,20-20V20c0-11-9-20-20-20ZM90,108h-54c-3.3,0-6-2.7-6-6v-4c0-3.3,2.7-6,6-6h54c3.3,0,6,2.7,6,6v4c0,3.3-2.7,6-6,6ZM168,76H36c-3.3,0-6-2.7-6-6v-4c0-3.3,2.7-6,6-6h132c3.3,0,6,2.7,6,6v4c0,3.3-2.7,6-6,6ZM168,44H36c-3.3,0-6-2.7-6-6v-4c0-3.3,2.7-6,6-6h132c3.3,0,6,2.7,6,6v4c0,3.3-2.7,6-6,6Z"/>
</svg>
