<?xml version="1.0" encoding="UTF-8"?>
<svg xmlns="http://www.w3.org/2000/svg" viewBox="0 0 255.4 77.1">
  <defs>
    <style>
      .b {
        fill: #181818;
      }

      .c {
        fill: #606060;
      }
    </style>
  </defs>
  <path class="c" d="M218.8,1c-15.7,0-29.5,10.4-34.1,25.2-5.6-12.9-18.4-21.3-32.6-21.3s-25.9,7.7-31.9,19.8c-6.2-12.1-18.7-19.8-32.5-19.8h-27.9c-3.6,0-6.5,2.9-6.5,6.5v28.5c0,9-7.3,16.4-16.3,16.6-4.3,0-8.5-1.6-11.7-4.8-3.3-3.2-5.2-7.7-5.2-12.3V14.3c0-2.6-1.1-5.1-3-6.9-1.9-1.8-4.5-2.7-7.1-2.5C4.9,5.2,1,9.5,1,14.6v25.2c0,19.3,15.7,35.3,35,35.6,9.4.1,18.4-3.5,25.2-10.2,7-6.9,11-16.4,11-26.1v-10.8c0-2.5,2-4.5,4.5-4.5h11.6c9,0,16.5,7.3,16.6,16.3,0,4.4-1.6,8.5-4.8,11.7-3.2,3.3-7.7,5.2-12.3,5.2h-12.5c-2.6,0-5.1,1.1-6.9,3-1.8,1.9-2.7,4.5-2.5,7.1.3,5,4.6,8.9,9.8,8.9h12.7c13.6,0,25.8-7.7,31.9-19.7,6,12,18.3,19.7,31.9,19.7s24.8-7,31.1-18.2v8.7c0,5.2,4.3,9.5,9.5,9.5s9.5-4.3,9.5-9.5v-30c0-9.2,7.5-16.6,16.6-16.6s16.6,7.5,16.6,16.6v30c0,5.2,4.3,9.5,9.5,9.5s9.5-4.3,9.5-9.5v-30c0-19.6-16-35.6-35.6-35.6ZM168.7,40.5c0,9.2-7.5,16.6-16.6,16.6s-16.6-7.5-16.6-16.6,7.5-16.6,16.6-16.6,16.6,7.5,16.6,16.6Z"/>
  <path class="b" d="M218.8,2c19.1,0,34.6,15.5,34.6,34.6v30c0,4.7-3.8,8.5-8.5,8.5s-8.5-3.8-8.5-8.5v-30c0-9.7-7.9-17.6-17.6-17.6s-17.6,7.9-17.6,17.6v30c0,4.7-3.8,8.5-8.5,8.5s-8.5-3.8-8.5-8.5v-13c-5.2,12.6-17.6,21.5-32.1,21.5s-26.6-8.7-31.9-21.1c-5.3,12.4-17.6,21.1-31.9,21.1h-12.7c-4.5,0-8.5-3.4-8.8-7.9-.3-5,3.6-9.1,8.5-9.1h12.5c9.9,0,18.3-8.1,18.1-17.9-.2-9.6-8-17.3-17.6-17.3h-11.6c-3,0-5.5,2.5-5.5,5.5v10.8c0,19.2-15.5,35.3-34.6,35.3s-.4,0-.6,0c-18.8-.3-34-15.7-34-34.6V14.6c0-4.5,3.4-8.5,7.9-8.8.2,0,.4,0,.6,0,4.7,0,8.5,3.8,8.5,8.5v25.1c0,9.8,7.9,18.1,17.6,18.1s.2,0,.3,0c9.6-.2,17.3-8,17.3-17.6V11.3c0-3,2.5-5.5,5.5-5.5h27.9c14.4,0,27.1,8.8,32.5,21.2,5.3-12.5,17.6-21.2,31.9-21.2s28.2,9.9,32.8,23.6c3.3-15.6,17.2-27.4,33.9-27.4M152.1,58.1c9.7,0,17.6-7.9,17.6-17.6s-7.9-17.6-17.6-17.6-17.6,7.9-17.6,17.6,7.9,17.6,17.6,17.6M218.8,0c-15.3,0-28.8,9.6-34.2,23.5-6.2-12-18.7-19.7-32.5-19.7s-25.5,7.2-32,18.7c-6.6-11.5-19-18.7-32.5-18.7h-27.9c-4.1,0-7.5,3.4-7.5,7.5v28.5c0,8.5-6.9,15.5-15.3,15.6h-.3c-8.5,0-15.6-7.4-15.6-16.1V14.3c0-5.8-4.7-10.5-10.5-10.5-.2,0-.5,0-.7,0C4.3,4.2,0,8.9,0,14.6v25.2c0,9.7,3.7,18.8,10.5,25.7,6.8,6.9,15.8,10.8,25.4,10.9.2,0,.4,0,.6,0,9.7,0,18.9-3.9,25.9-11.1,6.9-7.1,10.7-16.4,10.7-26.2v-10.8c0-1.9,1.6-3.5,3.5-3.5h11.6c8.5,0,15.5,6.9,15.6,15.4,0,4.1-1.5,8-4.5,11-3.1,3.1-7.3,4.9-11.6,4.9h-12.5c-2.9,0-5.7,1.2-7.7,3.3-2,2.1-3,4.9-2.8,7.9.4,5.5,5.1,9.8,10.8,9.8h12.7c13.3,0,25.4-7.2,31.9-18.6,6.5,11.4,18.6,18.6,31.9,18.6s23.3-6,30.1-15.7v5.2c0,5.8,4.7,10.5,10.5,10.5s10.5-4.7,10.5-10.5v-30c0-8.6,7-15.6,15.6-15.6s15.6,7,15.6,15.6v30c0,5.8,4.7,10.5,10.5,10.5s10.5-4.7,10.5-10.5v-30c0-20.2-16.4-36.6-36.6-36.6h0ZM152.1,56.1c-8.6,0-15.6-7-15.6-15.6s7-15.6,15.6-15.6,15.6,7,15.6,15.6-7,15.6-15.6,15.6h0Z"/>
</svg>
