<?xml version="1.0" encoding="UTF-8" ?>
<svg xmlns="http://www.w3.org/2000/svg" viewBox="0 0 217.36 224.68">
  <defs>
    <style>.b{fill:white;}</style>
  </defs>
  <path
    class="b"
    d="M152.43,109.91c12.26-11.62,19.94-28.03,19.94-46.22C172.37,28.57,143.8,0,108.68,0s-63.69,28.57-63.69,63.69,28.57,63.69,63.69,63.69c8.87,0,17.32-1.83,25-5.12,37.94,10.83,64.45,44.89,65.64,84.41H18.04c.76-25.1,11.93-48.83,30.91-65.46,3.74-3.28,4.11-8.96.84-12.7-3.28-3.74-8.96-4.11-12.7-.84C13.52,148.32,0,178.12,0,209.44c0,2.26.07,4.55.21,6.79.29,4.75,4.23,8.45,8.98,8.45h198.97c4.76-.01,8.69-3.71,8.98-8.46.14-2.25.21-4.53.21-6.78,0-43.78-25.95-82.47-64.93-99.53ZM62.99,63.69c0-25.19,20.5-45.69,45.69-45.69s45.69,20.5,45.69,45.69-20.5,45.69-45.69,45.69-45.69-20.5-45.69-45.69Z"
  />
</svg>
