<?xml version="1.0" encoding="UTF-8"?>
<svg xmlns="http://www.w3.org/2000/svg" viewBox="0 0 242.6 253.2">
  <defs>
    <style>.b{fill:#fff;}</style>
  </defs>
  <circle class="b" cx="120.3" cy="51" r="51"/>
  <path class="b" d="M178.9,160.1c-9.7-67-106.3-67.5-116.6-.6l-11,71.7c-.3,2.3.8,4.5,2.8,5.5l2.3,1.2c40.9,20.8,89.4,20.3,130-1.1h0c2-1,3.1-3.2,2.8-5.4l-10.3-71.2Z"/>
  <path class="b" d="M56.9,115.9c11,0,21.1-4.3,28.6-11.2-17.3-11.5-28.7-31.1-28.7-53.4s1.1-13.3,3-19.4c-1,0-1.9-.1-2.9-.1-23.2,0-42,18.8-42,42s18.8,42,42,42Z"/>
  <path class="b" d="M50,157.9c2.1-13.5,7.2-25.4,15.1-35.1-24.3-3.8-51.2,9.7-56,40.6L0,222.4c-.3,1.9.7,3.7,2.3,4.6l1.9.9c11.4,5.8,23.5,9.6,35.8,11.4-1.2-3-1.7-6.3-1.1-9.7l11-71.7Z"/>
  <path class="b" d="M157.2,103.9c7.5,7,17.5,11.2,28.6,11.2,23.2,0,42-18.8,42-42s-18.8-42-42-42-2.8,0-4.2.2c2.1,6.3,3.2,13,3.2,20,0,21.8-10.9,41-27.6,52.6Z"/>
  <path class="b" d="M242.6,221.7l-8.5-58.7c-4.6-31.7-32.7-45.3-57.5-40.8,8.3,10,13.6,22.3,15.7,36.3l10.3,71.2c.4,3,0,6.1-.9,8.8,13.3-1.8,26.4-6,38.7-12.4h0c1.6-.9,2.5-2.7,2.3-4.5Z"/>
</svg>
