<?xml version="1.0" encoding="UTF-8" ?>
<svg xmlns="http://www.w3.org/2000/svg" viewBox="0 0 242.6 253.16">
  <defs>
    <style>
      .b {
        fill: #fff;
      }
    </style>
  </defs>
  <circle class="b" cx="120.26" cy="51" r="51" />
  <path
    class="b"
    d="M178.93,160.06c-9.67-67.03-106.25-67.49-116.56-.56l-11.04,71.7c-.35,2.26.8,4.49,2.84,5.53l2.27,1.15c40.95,20.76,89.43,20.34,130.01-1.14h0c1.98-1.05,3.08-3.22,2.76-5.44l-10.28-71.24Z"
  />
  <path
    class="b"
    d="M56.87,115.9c11.04,0,21.08-4.26,28.58-11.22-17.29-11.47-28.71-31.1-28.71-53.36,0-6.75,1.06-13.26,3.01-19.38-.95-.06-1.91-.11-2.87-.11-23.21,0-42.03,18.82-42.03,42.03s18.82,42.03,42.03,42.03Z"
  />
  <path
    class="b"
    d="M49.99,157.85c2.08-13.48,7.25-25.38,15.13-35.11-24.25-3.76-51.22,9.72-55.97,40.55L.05,222.39c-.29,1.86.66,3.7,2.34,4.56l1.87.95c11.4,5.78,23.5,9.56,35.83,11.36-1.22-3-1.66-6.33-1.14-9.7l11.04-71.7Z"
  />
  <path
    class="b"
    d="M157.15,103.91c7.5,6.96,17.54,11.22,28.58,11.22,23.21,0,42.03-18.82,42.03-42.03s-18.82-42.03-42.03-42.03c-1.43,0-2.84.07-4.23.21,2.09,6.31,3.23,13.05,3.23,20.05,0,21.77-10.93,41.02-27.58,52.58Z"
  />
  <path
    class="b"
    d="M242.56,221.7l-8.47-58.72c-4.57-31.68-32.71-45.31-57.47-40.77,8.28,9.99,13.64,22.32,15.66,36.32l10.28,71.24c.44,3.04.08,6.07-.93,8.85,13.34-1.83,26.44-5.97,38.66-12.44h0c1.63-.86,2.54-2.66,2.28-4.48Z"
  />
</svg>
