<?xml version="1.0" encoding="UTF-8"?>
<svg id="a" data-name="レイヤー 1" xmlns="http://www.w3.org/2000/svg" viewBox="0 0 246 245.9">
  <defs>
    <style>
      .b {
        fill: #111;
      }

      .b, .c {
        stroke-width: 0px;
      }

      .c {
        fill: #35b6d6;
      }
    </style>
  </defs>
  <g>
    <path class="c" d="M204.8,240.9c-2.5,0-4.8-1.1-6.4-3.1l-47.4-58.8H36.1c-17.1,0-31.1-13.9-31.1-31.1V36.1c0-17.1,13.9-31.1,31.1-31.1h173.9c17.1,0,31.1,13.9,31.1,31.1v111.9c0,16.1-12.3,29.4-28,30.9l.2,53.7c0,2.2-.8,4.3-2.4,5.9-1.6,1.6-3.7,2.5-5.9,2.5Z"/>
    <path class="b" d="M209.9,10c14.4,0,26.1,11.7,26.1,26.1v111.9c0,14.4-11.7,26.1-26.1,26.1h-1.9l.2,58.6c0,2-1.6,3.3-3.3,3.3s-1.8-.4-2.5-1.2l-48.9-60.7H36.1c-14.4,0-26.1-11.7-26.1-26.1V36.1c0-14.4,11.7-26.1,26.1-26.1h173.9M209.9,0H36.1C16.2,0,0,16.2,0,36.1v111.9c0,19.9,16.2,36.1,36.1,36.1h112.6l45.9,57c2.5,3.2,6.3,5,10.3,5s7-1.4,9.5-3.9c2.5-2.5,3.9-5.8,3.9-9.4v-49.5c15.9-3.7,27.8-18,27.8-35.2V36.1c0-19.9-16.2-36.1-36.1-36.1h0Z"/>
  </g>
  <g>
    <path class="b" d="M84.6,143.6c-5.7,0-11-1-15.8-3.1-4.8-2.1-8.6-5.5-11.5-10.1-2.9-4.7-4.3-10.9-4.3-18.6v-41.6c0-7.7,1.4-13.9,4.3-18.6,2.9-4.7,6.7-8,11.6-10.1,4.9-2.1,10.1-3.1,15.9-3.1s12.3,1.1,17.1,3.4c4.8,2.2,8.6,5.3,11.3,9.1,2.7,3.9,4.1,8.3,4.1,13.4s-.6,5.4-1.9,6.4c-1.2,1-3.1,1.5-5.7,1.5s-4.1-.4-5.4-1.2c-1.3-.8-2-2.1-2.1-3.8,0-1.2-.3-2.7-.7-4.4-.4-1.7-1.1-3.4-2.2-5.1-1.1-1.7-2.7-3-4.9-4.1-2.2-1.1-5.2-1.6-9-1.6-5.5,0-9.8,1.5-12.7,4.5-3,3-4.4,7.6-4.4,13.9v41.6c0,6.3,1.5,10.9,4.5,13.9,3,3,7.4,4.5,13.1,4.5s6.5-.5,8.6-1.6c2.1-1.1,3.7-2.5,4.8-4.1,1-1.7,1.8-3.4,2.1-5.3.4-1.9.7-3.5.9-5.1,0-1.8.8-3.1,2.2-3.9,1.4-.8,3.1-1.1,5.2-1.1s4.6.5,5.9,1.6c1.2,1,1.9,3.1,1.9,6.3,0,5.1-1.4,9.7-4.1,13.8-2.7,4-6.5,7.2-11.4,9.5-4.9,2.3-10.6,3.4-17.1,3.4Z"/>
    <path class="b" d="M161.6,143.6c-5.7,0-11-1-15.8-3.1-4.8-2.1-8.6-5.5-11.5-10.1-2.9-4.7-4.3-10.9-4.3-18.6v-41.6c0-7.7,1.4-13.9,4.3-18.6,2.9-4.7,6.7-8,11.6-10.1,4.9-2.1,10.1-3.1,15.9-3.1s12.3,1.1,17.1,3.4c4.8,2.2,8.6,5.3,11.3,9.1,2.7,3.9,4.1,8.3,4.1,13.4s-.6,5.4-1.9,6.4c-1.2,1-3.1,1.5-5.7,1.5s-4.1-.4-5.4-1.2c-1.3-.8-2-2.1-2.1-3.8,0-1.2-.3-2.7-.7-4.4-.4-1.7-1.1-3.4-2.2-5.1-1.1-1.7-2.7-3-4.9-4.1-2.2-1.1-5.2-1.6-9-1.6-5.5,0-9.8,1.5-12.7,4.5-3,3-4.4,7.6-4.4,13.9v41.6c0,6.3,1.5,10.9,4.5,13.9,3,3,7.4,4.5,13.1,4.5s6.5-.5,8.6-1.6c2.1-1.1,3.7-2.5,4.8-4.1,1-1.7,1.8-3.4,2.1-5.3.4-1.9.7-3.5.9-5.1,0-1.8.8-3.1,2.2-3.9,1.4-.8,3.1-1.1,5.2-1.1s4.6.5,5.9,1.6c1.2,1,1.9,3.1,1.9,6.3,0,5.1-1.4,9.7-4.1,13.8-2.7,4-6.5,7.2-11.4,9.5-4.9,2.3-10.6,3.4-17.1,3.4Z"/>
  </g>
</svg>