<?xml version="1.0" encoding="UTF-8" ?>
<svg xmlns="http://www.w3.org/2000/svg" viewBox="0 0 208 120">
  <defs>
    <style>
      .b {
        fill: none;
        stroke: #fff;
        stroke-miterlimit: 10;
        stroke-width: 9px;
      }

      .c {
        fill: #888;
      }

      .c, .d {
        stroke-width: 0px;
      }

      .d {
        fill: #fff;
      }

      .e {
        opacity: .4;
      }
    </style>
  </defs>
  <g class="e">
    <circle class="c" cx="148" cy="60" r="56" />
    <circle class="b" cx="148" cy="60" r="55.5" />
    <path
      class="d"
      d="M162.3,83.7c-1.1-1.4-1.8-2.1-5.3-5.4-2.9,1.5-5.7,2.2-9.3,2.2-12.5,0-20.5-8.4-20.5-21.6s8-21.4,20.5-21.4,20.2,8.3,20.2,21.2-.4,5.5-1.2,8c-.7,2.2-1.3,3.4-3,5.8l1.9,1.8c.8.8,2,1.7,3,2.5l-6.3,6.8ZM151.7,61.1c.8,1,1.6,1.7,3.5,3.4.4-1.5.7-3.4.7-5.6,0-7.3-3.1-11.5-8.3-11.5s-8.3,4.2-8.3,11.4,1.1,7.6,3.1,9.7c1.3,1.3,3.2,2.1,5.2,2.1s.8,0,1.3,0c-1.8-1.6-2.4-2.1-3.6-3.1l6.4-6.3Z"
    />
  </g>
  <g>
    <circle class="c" cx="60" cy="60" r="56" />
    <circle class="b" cx="60" cy="60" r="55.5" />
    <g>
      <path
        class="d"
        d="M23.6,80c.3-2.3.4-4.7.4-7.8v-25.9c0-2.8,0-5.1-.4-7.5,2.3,0,4.3.1,7.6.1h10.7c10,0,15.6,4.9,15.6,13.6s-5.9,14.4-15.5,14.4h-6.1v5c0,3.1.1,5.7.4,8h-12.8ZM41.1,58c2.9,0,4.7-1.7,4.7-4.6s-1.7-4.4-4.7-4.4h-6.1v9h6.1Z"
      />
      <path
        class="d"
        d="M102.1,66.1c-1.1,4.8-2.2,7.2-4.5,9.7-3.1,3.5-7.8,5.2-13.7,5.2-13.1,0-21-8.2-21-21.6s7.9-21.3,21.1-21.3,11.3,2.3,14.5,6.5c1.7,2.2,2.4,3.9,3.1,7.3l-11.8,2.2c-.3-1.7-.7-2.7-1.6-3.8-1.2-1.5-3-2.4-4.8-2.4-5.5,0-8.4,4-8.4,11.4s1.1,7.5,3,9.5c1.4,1.3,3.4,2.2,5.3,2.2s3.6-.6,4.8-1.8c1.3-1.2,1.9-2.5,2.1-4.8l12,1.6Z"
      />
    </g>
  </g>
</svg>
