<?xml version="1.0" encoding="UTF-8"?>
<svg xmlns="http://www.w3.org/2000/svg" viewBox="0 0 255 145">
  <defs>
    <style>
      .b, .c, .d {
        stroke-width: 0px;
      }

      .b, .d {
        fill: #000;
      }

      .e {
        opacity: .4;
      }

      .e, .f {
        fill: none;
        stroke: #fff;
        stroke-miterlimit: 10;
        stroke-width: 8px;
      }

      .c {
        fill: #61e159;
        opacity: .9;
      }

      .d {
        opacity: .3;
      }
    </style>
  </defs>
  <g>
    <circle class="c" cx="182.5" cy="72.5" r="64.5"/>
    <circle class="f" cx="182.5" cy="72.5" r="68.5"/>
    <g>
      <path class="b" d="M158.3,83.3c-.3,0-.6-.1-.9-.3-.3-.2-.4-1-.4-1v-1.6s-2-.4-2.8-.9c-.8-.5-1.5-1.2-1.9-2.1-.5-.9-1.2-3.4-1.2-3.4v-7.2c0-1.7.3-3,.9-3.9.6-1,1.5-1.7,2.5-2.1,1.1-.4,2.2-.7,3.5-.7s2.5.2,3.6.7c1.1.4,1.9,1.1,2.5,2.1.6,1,.9,2.3.9,3.9v7.4c0,1.3-.2,2.3-.6,3.2-.4.8-1,1.5-1.8,1.9-.8.4-1.6.7-2.6.8v1.9s-.5.8-.8,1c-.3.2-.6.3-.9.3ZM157,76.5v-1.2s0-.8.4-1c.3-.2.6-.3.9-.3s.6.1.9.3c.3.2.8,1,.8,1v1.2s.2-.5.4-.9.6-1.6.6-1.6v-7.3c0-.9-.2-1.7-.7-2.1-.4-.5-1.1-.7-1.8-.7s-1.4.2-1.8.7c-.4.5-.7,1.2-.7,2.1v7.3s0,1.1.1,1.6.9.9.9.9Z"/>
      <path class="b" d="M174,80.5c-1.1,0-2.1-.3-3-.8-.9-.5-1.6-1.2-2.2-2s-.8-1.7-.8-2.7v-6.4c0-.3.2-.6.6-.9.4-.3.9-.4,1.4-.4s1,.1,1.4.4c.4.3.6.5.6.9v6.3c0,.3,0,.7.3,1,.2.3.4.6.7.8s.6.3,1,.3.7-.1,1-.3c.3-.2.5-.5.7-.8.2-.3.3-.6.3-1v-6.3c0-.3.2-.6.6-.9.4-.2.9-.4,1.4-.4s1.1.1,1.4.4c.4.2.6.5.6.9v6.5c0,1-.3,1.9-.8,2.7-.5.8-1.3,1.5-2.2,2s-1.9.8-3,.8Z"/>
      <path class="b" d="M188.5,80.7c-1.3,0-2.4-.2-3.4-.7s-1.8-1.2-2.3-2c-.6-.9-.8-1.9-.8-3.1v-2c0-.7.1-1.4.4-2.1.6-1.2,1.4-2.1,2.5-2.8.9-.5,1.9-.8,3-.8s1.9.2,2.7.7c.8.4,1.5,1,2,1.8s.8,1.7.8,2.7-.1,1.4-.4,1.8-.6.6-1,.7c-.4,0-.8.1-1.2.1h-5v.2c0,.7.2,1.2.7,1.6.5.4,1.1.6,1.9.6s1,0,1.4-.3c.4-.2.7-.3,1-.5,0,0,0,0,0,0,.8-.4,1.7,0,2.1.7s0,0,0,.1c.1.3.2.6.2.8,0,.3-.2.7-.6,1.1-.4.4-1,.7-1.7,1-.7.3-1.6.4-2.5.4ZM186,72h3.4c.2,0,.3,0,.4-.1,0,0,.1-.3.1-.5,0-.4,0-.7-.3-.9s-.4-.4-.7-.5c-.3-.1-.6-.2-1-.2s-.6,0-.9.2-.5.3-.7.5-.3.6-.3.9v.7Z"/>
      <path class="b" d="M200.5,80.6c-1,0-1.8-.1-2.6-.4-.8-.2-1.4-.5-1.9-.9-.5-.4-.7-.8-.7-1.2s0-.5.2-.8.3-.6.5-.8c.2-.2.5-.3.7-.3s.6.1.9.3c.3.2.7.4,1.1.6s1,.3,1.7.3,1.2-.1,1.4-.3c.2-.2.3-.4.3-.6,0-.3-.2-.6-.5-.7-.3-.2-.7-.3-1.2-.4-.5-.1-1-.3-1.6-.4-.5-.2-1.1-.4-1.6-.6s-.9-.7-1.2-1.1c-.3-.5-.5-1.1-.5-1.9s.2-1.3.5-2c.3-.7.9-1.2,1.6-1.6.8-.4,1.8-.6,3.1-.6s1.6,0,2.3.2c.7.2,1.3.4,1.7.7.4.3.7.6.7,1s0,.4-.2.8-.3.6-.5.9c-.2.3-.5.4-.8.4s-.5,0-.8-.2c-.3-.1-.6-.3-1-.4-.4-.1-.8-.2-1.3-.2s-.7,0-.9.1c-.2,0-.4.2-.5.3-.1.1-.2.3-.2.4,0,.3.2.5.5.6.3.1.7.3,1.2.4.5.1,1,.3,1.6.4s1.1.4,1.6.7c.5.3.9.7,1.2,1.2.3.5.5,1.2.5,2,0,1.3-.5,2.3-1.4,3.1-.9.8-2.2,1.2-3.9,1.2Z"/>
      <path class="b" d="M213,81c-1.7-.7-3.1-1.1-4-1.8s-1-3.5-1-3.5v-13c0-.4.2-.7.6-.9.4-.2.9-.4,1.3-.4s1,.1,1.4.4.6.5.6.9v4.4h2.9c.3,0,.6.2.7.5.2.3.2.7.2,1s0,.7-.3,1.1-.5.4-.8.4h-2.9s0,5.7,0,5.7c0,0,0,.7.1.8.2.2.5.2.9.5h1.2c.6-.3,1.1,0,1.4.3.3.4.4.8.4,1.2s-.1.9-.4,1.2c-.3.4-.8.6-1.4,1.2h-1.2Z"/>
    </g>
  </g>
  <g>
    <circle class="d" cx="72.5" cy="72.5" r="64.5"/>
    <g>
      <path class="b" d="M61,79.3c-.5,0-1-.1-1.4-.3-.4-.2-.6-.5-.6-1v-17.6c0-.4.1-.7.4-.9s.6-.4,1.1-.4h5.4c1.1,0,2.2.2,3.1.6s1.7,1.1,2.2,2c.5.9.8,2.2.8,3.7h0c0,1.7-.3,3-.8,3.9-.6.9-1.3,1.6-2.3,2.1-1,.4-2,.6-3.2.6h-2.6v5.9c0,.4-.2.8-.6,1-.4.2-.9.3-1.4.3ZM63,69h2.6c.7,0,1.3-.2,1.7-.7.4-.5.6-1.2.6-2.1v-.3c0-1-.2-1.7-.6-2.1-.4-.5-1-.7-1.7-.7h-2.6v6Z"/>
      <path class="b" d="M80.2,79.1c-1.1,0-2.1-.2-3.1-.6-.9-.4-1.7-1-2.2-1.9-.6-.9-.8-2.1-.8-3.5v-6.8c0-1.5.3-2.6.8-3.5.6-.9,1.3-1.5,2.2-1.9.9-.4,2-.6,3.1-.6s2.3.2,3.3.6,1.7,1,2.3,1.7c.6.8.8,1.7.8,2.8s-.2,1.3-.5,1.5c-.3.2-.8.4-1.5.4s-1,0-1.4-.3c-.4-.2-.6-.5-.6-.9,0-.2,0-.4,0-.6,0-.3-.1-.5-.3-.8-.1-.3-.4-.5-.7-.6-.3-.2-.7-.3-1.3-.3s-1.3.2-1.7.6c-.4.4-.6,1.1-.6,1.9v6.8c0,.9.2,1.5.6,1.9.4.4,1,.6,1.7.6s.9,0,1.2-.3c.3-.2.5-.4.7-.7.1-.3.2-.5.3-.8,0-.3,0-.6.1-.8,0-.5.2-.8.6-1,.4-.2.8-.2,1.3-.2s1.2.1,1.5.4c.3.2.5.8.5,1.5,0,1.1-.3,2.1-.8,2.9-.6.8-1.3,1.4-2.3,1.8-1,.4-2.1.6-3.3.6Z"/>
    </g>
    <circle class="e" cx="72.5" cy="72.5" r="68.5"/>
  </g>
</svg>
