<?xml version="1.0" encoding="UTF-8" ?>
<svg xmlns="http://www.w3.org/2000/svg" viewBox="0 0 252 252">
  <defs>
    <style>
      .b {
        fill: #848484;
        stroke: #fff;
        stroke-miterlimit: 10;
        stroke-width: 17px;
      }
    </style>
  </defs>
  <circle class="b" cx="126" cy="126" r="117.5" />
  <path
    d="M82.6,139c-.7,0-1.3-.2-1.9-.5s-.8-.8-.8-1.4v-28.4c0-.6.3-1.1.9-1.4.6-.3,1.3-.4,2.1-.4s1.5.2,2.2.5.8.8.8,1.4v25.2s11.3,0,11.3,0c.6,0,1.1.3,1.3.8.3.5.4,1.1.4,1.7s-.2,1.2-.5,1.8-.8.7-1.3.7h-14.7Z"
  />
  <path
    d="M111,139.7c-1.8,0-3.4-.4-4.9-1.3-1.5-.9-2.7-2-3.6-3.5s-1.4-3-1.4-4.7v-3.8c0-1.7.4-3.2,1.3-4.6.9-1.4,2.1-2.6,3.6-3.4,1.5-.9,3.2-1.3,5-1.3s3.5.4,5,1.3c1.5.8,2.7,2,3.6,3.4.9,1.4,1.4,3,1.4,4.7v3.8c0,1.6-.5,3.2-1.4,4.6-.9,1.4-2.1,2.6-3.7,3.5s-3.2,1.3-5,1.3ZM111,134.4c.7,0,1.5-.2,2.1-.6s1-.9,1.4-1.5c.4-.7.5-1.3.5-2v-3.7c0-.7-.2-1.4-.5-2-.4-.6-.8-1.1-1.4-1.5s-1.3-.6-2-.6-1.5.2-2.1.6-1,.9-1.4,1.5c-.4.6-.5,1.3-.5,2v3.7c0,.7.2,1.4.5,2,.3.7.8,1.2,1.4,1.6.6.4,1.3.6,2,.6Z"
  />
  <path
    d="M133.1,139.7c-2.4,0-4.3-.4-5.8-1.3-1.5-.8-2.6-2-3.3-3.4-.7-1.4-1.1-3.1-1.1-4.9v-3.7c0-1.8.3-3.4,1-4.9.7-1.4,1.8-2.6,3.3-3.4,1.5-.8,3.4-1.3,5.7-1.3s2.7.2,3.9.5c1.1.3,2,.8,2.7,1.3.7.6,1,1.1,1,1.8s-.1.8-.3,1.2c-.2.4-.5.8-.8,1.2-.4.3-.8.5-1.2.5s-.7-.1-1-.3c-.4-.2-.8-.4-1.4-.7-.6-.2-1.3-.3-2.2-.3-1.6,0-2.7.4-3.4,1.1-.7.8-1.1,1.8-1.1,3.1v3.7c0,1.3.4,2.4,1.1,3.1.7.8,1.9,1.1,3.5,1.1s1.7-.1,2.2-.4c.5-.2,1-.5,1.3-.7.4-.2.7-.3,1.1-.3.6,0,1,.2,1.4.5.4.3.7.7.9,1.1s.3.9.3,1.2c0,.6-.3,1.2-1,1.8-.7.6-1.6,1.1-2.7,1.4-1.2.4-2.5.6-3.9.6Z"
  />
  <path
    d="M148.9,139.6c-1.6,0-3-.5-4.2-1.5-1.2-1-1.8-2.5-1.8-4.6s.5-3.1,1.4-4.1c.9-1,2.2-1.7,3.8-2.1,1.6-.4,5.6-.3,5.6-.3h1.4v-.6c0-.7-.1-1.3-.4-2s-.7-1.2-1.3-1.6c-.6-.4-1.4-.6-2.4-.6s-2.1.1-2.7.3c-.6.2-1.1.5-1.5.7-.3.2-.7.4-1.1.4-.7,0-1.2-.3-1.5-1s-.5-1.3-.5-2,.4-1.2,1.2-1.7c.8-.5,1.8-.9,2.9-1.2s2.3-.4,3.3-.4c2.4,0,4.4.4,5.8,1.3,1.5.9,2.5,2,3.2,3.3.7,1.3,1,2.8,1,4.4v11s.2,1-.4,1.4c-.6.4-1.2.6-2.1.6s-1.4-.2-1.9-.6c-.5-.4-.8-.8-.7-1.4v-1.3c-.9,1-1.9,1.8-3,2.5-1.1.7-2.5,1.1-4.1,1.1ZM151.8,135.4c.6,0,1.3-.2,1.9-.6.6-.4,1.2-1,1.6-1.7.4-.7.7-1.4.7-2.1v-1h-.7c-1,0-2,0-2.9.2-.9.1-1.7.4-2.2.8s-.9,1.1-.9,1.9.2,1.5.7,1.9c.5.4,1,.6,1.7.6Z"
  />
  <path
    d="M169,139.4c-.9,0-1.6-.2-2.1-.6-.6-.4-.8-.9-.8-1.3v-31.2c0-.6.3-1,.8-1.3.6-.3,1.3-.5,2.1-.5s1.6.2,2.1.5c.6.3.9.8.9,1.3v31.2c0,.5-.3.9-.9,1.3-.6.4-1.3.6-2.1.6Z"
  />
</svg>
