<?xml version="1.0" encoding="UTF-8" ?>
<svg xmlns="http://www.w3.org/2000/svg" viewBox="0 0 145 145">
  <defs>
    <style>
      .b {
        fill: #61e159;
        opacity: .9;
      }

      .c {
        fill: white;
      }
    </style>
  </defs>
  <circle class="b" cx="73" cy="73" r="67.5" />
  <path
    class="c"
    d="M72.5,145C32.5,145,0,112.5,0,72.5S32.5,0,72.5,0s72.5,32.5,72.5,72.5-32.5,72.5-72.5,72.5ZM72.5,8C36.9,8,8,36.9,8,72.5s28.9,64.5,64.5,64.5,64.5-28.9,64.5-64.5S108.1,8,72.5,8Z"
  />
  <path
    d="M47.3,84.1c-.3,0-.6-.1-.9-.3-.3-.2-.4-1-.4-1v-1.6s-2-.4-2.8-.9c-.8-.5-1.5-1.2-1.9-2.1-.5-.9-1.2-3.4-1.2-3.4v-7.2c0-1.7.3-3,.9-3.9.6-1,1.5-1.7,2.5-2.1,1.1-.4,2.2-.7,3.5-.7s2.5.2,3.6.7c1.1.4,1.9,1.1,2.5,2.1.6,1,.9,2.3.9,3.9v7.4c0,1.3-.2,2.3-.6,3.2-.4.8-1,1.5-1.8,1.9-.8.4-1.6.7-2.6.8v1.9s-.5.8-.8,1c-.3.2-.6.3-.9.3ZM46,77.3v-1.2s0-.8.4-1c.3-.2.6-.3.9-.3s.6.1.9.3c.3.2.8,1,.8,1v1.2s.2-.5.4-.9.6-1.6.6-1.6v-7.3c0-.9-.2-1.7-.7-2.1-.4-.5-1.1-.7-1.8-.7s-1.4.2-1.8.7c-.4.5-.7,1.2-.7,2.1v7.3s0,1.1.1,1.6.9.9.9.9Z"
  />
  <path
    d="M63,81.3c-1.1,0-2.1-.3-3-.8-.9-.5-1.6-1.2-2.2-2s-.8-1.7-.8-2.7v-6.4c0-.3.2-.6.6-.9.4-.3.9-.4,1.4-.4s1,.1,1.4.4c.4.3.6.5.6.9v6.3c0,.3,0,.7.3,1,.2.3.4.6.7.8s.6.3,1,.3.7-.1,1-.3c.3-.2.5-.5.7-.8.2-.3.3-.6.3-1v-6.3c0-.3.2-.6.6-.9.4-.2.9-.4,1.4-.4s1.1.1,1.4.4c.4.2.6.5.6.9v6.5c0,1-.3,1.9-.8,2.7-.5.8-1.3,1.5-2.2,2s-1.9.8-3,.8Z"
  />
  <path
    d="M77.5,82.2c-1.3,0-2.4-.2-3.4-.7s-1.8-1.2-2.3-2c-.6-.9-.8-1.9-.8-3.1v-2c0-.7.1-1.4.4-2.1.6-1.2,1.4-2.1,2.5-2.8.9-.5,1.9-.8,3-.8s1.9.2,2.7.7c.8.4,1.5,1,2,1.8s.8,1.7.8,2.7-.1,1.4-.4,1.8-.6.6-1,.7c-.4,0-.8.1-1.2.1h-5v.2c0,.7.2,1.2.7,1.6.5.4,1.1.6,1.9.6s1,0,1.4-.3c.4-.2.7-.3,1-.5,0,0,0,0,0,0,.8-.4,1.7,0,2.1.7s0,0,0,.1c.1.3.2.6.2.8,0,.3-.2.7-.6,1.1-.4.4-1,.7-1.7,1-.7.3-1.6.4-2.5.4ZM75,73.5h3.4c.2,0,.3,0,.4-.1,0,0,.1-.3.1-.5,0-.4,0-.7-.3-.9s-.4-.4-.7-.5c-.3-.1-.6-.2-1-.2s-.6,0-.9.2-.5.3-.7.5-.3.6-.3.9v.7Z"
  />
  <path
    d="M89.9,81.4c-1,0-1.8-.1-2.6-.4-.8-.2-1.4-.5-1.9-.9-.5-.4-.7-.8-.7-1.2s0-.5.2-.8.3-.6.5-.8c.2-.2.5-.3.7-.3s.6.1.9.3c.3.2.7.4,1.1.6s1,.3,1.7.3,1.2-.1,1.4-.3c.2-.2.3-.4.3-.6,0-.3-.2-.6-.5-.7-.3-.2-.7-.3-1.2-.4-.5-.1-1-.3-1.6-.4-.5-.2-1.1-.4-1.6-.6s-.9-.7-1.2-1.1c-.3-.5-.5-1.1-.5-1.9s.2-1.3.5-2c.3-.7.9-1.2,1.6-1.6.8-.4,1.8-.6,3.1-.6s1.6,0,2.3.2c.7.2,1.3.4,1.7.7.4.3.7.6.7,1s0,.4-.2.8-.3.6-.5.9c-.2.3-.5.4-.8.4s-.5,0-.8-.2c-.3-.1-.6-.3-1-.4-.4-.1-.8-.2-1.3-.2s-.7,0-.9.1c-.2,0-.4.2-.5.3-.1.1-.2.3-.2.4,0,.3.2.5.5.6.3.1.7.3,1.2.4.5.1,1,.3,1.6.4s1.1.4,1.6.7c.5.3.9.7,1.2,1.2.3.5.5,1.2.5,2,0,1.3-.5,2.3-1.4,3.1-.9.8-2.2,1.2-3.9,1.2Z"
  />
  <path
    d="M102,81.5c-1.7-.7-3.1-1.1-4-1.8s-1-3.5-1-3.5v-13c0-.4.2-.7.6-.9.4-.2.9-.4,1.3-.4s1,.1,1.4.4.6.5.6.9v4.4h2.9c.3,0,.6.2.7.5.2.3.2.7.2,1s0,.8-.3,1.1-.5.4-.8.4h-2.9s0,4.7,0,4.7c0,0,0,1.7.1,1.8.2.2.5.2.9.5h1.2c.6-.3,1.1,0,1.4.3.3.4.4.8.4,1.2s-.1.9-.4,1.2c-.3.4-.8.6-1.4,1.2h-1.2Z"
  />
</svg>
