<?xml version="1.0" encoding="UTF-8" ?>
<svg xmlns="http://www.w3.org/2000/svg" viewBox="0 0 248 248">
  <defs>
    <style>.b{fill:white;}</style>
  </defs>
  <path
    class="b"
    d="M124,0C55.6,0,0,55.6,0,124s55.6,124,124,124,124-55.6,124-124S192.4,0,124,0ZM240.6,148h-19.5c1.7-7.1,2.7-14.4,2.9-22h19c-.1,7.5-.9,14.9-2.4,22ZM232.4,173h-13.2l-4-8.2c2-4.4,3.7-9.1,5-13.8h19.6c-1.8,7.6-4.3,15-7.5,22ZM225.5,186l-4.8-10h10.3c-1.7,3.4-3.5,6.8-5.5,10ZM217.1,198h-25.9c7.1-6.4,13.2-13.8,18.2-22h8l6.3,13c-2,3.1-4.2,6.1-6.5,9ZM26.8,192.6l8.3-16.6h3.5c5,8.2,11.1,15.6,18.2,22h-25.9c-1.4-1.8-2.8-3.6-4.1-5.4ZM17,176h14.8l-6.9,13.7c-2.9-4.4-5.5-9-7.9-13.7ZM24,126c.1,7.6,1.1,14.9,2.9,22H7.4c-1.5-7.1-2.3-14.5-2.4-22h19ZM36.9,173h-.3v-.2c.2,0,.2.2.3.2ZM213.6,168.3l2.3,4.7h-4.8c.9-1.5,1.7-3.1,2.5-4.7ZM148.8,123l-13.7-16.5c-1.2-1.4-3.4-1.4-4.6,0l-11,13.3-25.3-41.5c-1.2-1.9-4-1.9-5.1,0l-27.2,44.8H29c.5-51.9,42.9-94,95-94s94.4,42.1,95,94h-70.2ZM27.7,151c1.8,6.5,4.3,12.7,7.3,18.5l-1.7,3.5H15.6c-3.2-7-5.7-14.4-7.5-22h19.6ZM122,243c-21.6-.4-41.9-6.5-59.2-17h59.2v17ZM125,226h60.2c-17.6,10.6-38.2,16.8-60.2,17v-17ZM124,5c65.3,0,118.4,52.8,119,118h-19c-.5-54.7-45.2-99-100-99S24.6,68.3,24,123H5C5.6,57.8,58.7,5,124,5ZM33.3,201h26.9c13.9,11.5,30.9,19.3,49.6,22h-51.8c-9.2-6.2-17.5-13.6-24.7-22ZM190,223h-51.8c18.7-2.7,35.7-10.5,49.6-22h26.9c-7.2,8.4-15.5,15.8-24.7,22Z"
  />
  <circle class="b" cx="151.7" cy="73.7" r="7.9" />
</svg>
