<?xml version="1.0" encoding="UTF-8" ?>
<svg xmlns="http://www.w3.org/2000/svg" viewBox="0 0 248 248">
  <defs>
    <style>.b{fill:white;}</style>
  </defs>
  <path
    class="b"
    d="M124,0C55.6,0,0,55.6,0,124s55.6,124,124,124,124-55.6,124-124S192.4,0,124,0ZM240.6,148h-33.4l-10.6-22h46.5c-.1,7.5-.9,14.9-2.4,22ZM232.4,173h-13.2l-10.6-22h31.3c-1.8,7.6-4.3,15-7.5,22ZM225.5,186l-4.8-10h10.3c-1.7,3.4-3.5,6.8-5.5,10ZM217.1,198h-92.1v-8c14.9-.2,28.6-5.4,39.6-14h52.8l6.3,13c-2,3.1-4.2,6.1-6.5,9ZM26.8,192.6l8.3-16.6h48.3c10.7,8.4,24.1,13.5,38.6,13.9v8.1H30.9c-1.4-1.8-2.8-3.6-4.1-5.4ZM17,176h14.8l-6.9,13.7c-2.9-4.4-5.5-9-7.9-13.7ZM193.2,126l10.6,22h-18.4c2.7-6.9,4.3-14.3,4.5-22h3.2ZM62.5,148h-13.4l9.1-18.2c.6,6.4,2,12.5,4.3,18.2ZM63.8,151c3.8,8.4,9.3,15.9,16,22h-43.2l11-22h16.2ZM184.2,151h21.1l10.6,22h-47.8c6.8-6.1,12.3-13.6,16-22ZM143.7,123l-11.5-13.4c-1-1.2-2.8-1.2-3.8,0l-6.9,8.1-15.9-26.3c-1-1.6-3.3-1.6-4.3,0l-19.1,31.7h-19.1c.5-33.2,27.7-60,61-60s60.4,26.8,61,60h-41.3ZM45.8,148H7.4c-1.5-7.1-2.3-14.5-2.4-22h51.8l-11,22ZM44.3,151l-11,22H15.6c-3.2-7-5.7-14.4-7.5-22h36.2ZM124,5c65.3,0,118.4,52.8,119,118h-53c-.5-35.9-29.9-65-66-65s-65.4,29.1-66,65H5C5.6,57.8,58.7,5,124,5ZM33.3,201h88.7v22h-64c-9.2-6.2-17.5-13.6-24.7-22ZM125,226h60.2c-17.6,10.6-38.2,16.8-60.2,17v-17ZM122,243c-21.6-.4-41.9-6.5-59.2-17h59.2v17ZM190,223h-65v-22h89.7c-7.2,8.4-15.5,15.8-24.7,22Z"
  />
  <circle class="b" cx="145.9" cy="84.9" r="5.6" />
</svg>
