<?xml version="1.0" encoding="UTF-8"?>
<svg xmlns="http://www.w3.org/2000/svg" viewBox="0 0 201.4 156">
  <defs>
    <style>.b{fill:#fff;}</style>
  </defs>
  <path class="b" d="M169.2,10.9c-3-2.7-7.6-2.5-10.4.5-2.7,3-2.5,7.6.5,10.4,17.4,15.8,27.4,38.3,27.4,61.8s-9,43.9-25.2,59.8c-2.9,2.8-3,7.5-.1,10.4,1.4,1.5,3.3,2.2,5.3,2.2s3.7-.7,5.1-2.1c19.1-18.6,29.6-43.6,29.6-70.3s-11.7-54.1-32.2-72.7Z"/>
  <path class="b" d="M147.4,31.1c-3.1-2.6-7.7-2.3-10.4.8-2.6,3.1-2.3,7.7.8,10.4,12.1,10.3,19,25.3,19,41.2s-6.9,30.9-19,41.2c-3.1,2.6-3.5,7.3-.8,10.4,1.5,1.7,3.5,2.6,5.6,2.6s3.4-.6,4.8-1.8c15.4-13.1,24.2-32.2,24.2-52.4s-8.8-39.3-24.2-52.4Z"/>
  <path class="b" d="M124.1,50.1c-3.4-2.2-8-1.2-10.2,2.2-2.2,3.4-1.2,8,2.2,10.2,7.1,4.6,11.4,12.4,11.4,20.8s-4.2,16.2-11.4,20.8c-3.4,2.2-4.4,6.8-2.2,10.2,1.4,2.2,3.8,3.4,6.2,3.4s2.7-.4,4-1.2c11.3-7.3,18.1-19.7,18.1-33.2s-6.8-25.9-18.1-33.2Z"/>
  <path class="b" d="M128.6,19.2C115,7.3,97.1,0,77.5,0,34.7,0,0,34.7,0,77.5s34.7,77.5,77.5,77.5,31-4.9,43.3-13.2l-56.5-39.5L128.6,19.2ZM54.5,72c-5.2,0-9.5-4.3-9.5-9.5s4.3-9.5,9.5-9.5,9.5,4.3,9.5,9.5-4.3,9.5-9.5,9.5Z"/>
</svg>
