<?xml version="1.0" encoding="UTF-8" ?>
<svg xmlns="http://www.w3.org/2000/svg" viewBox="0 0 191.59 239.2">
  <defs>
    <style>
      .b {
        fill: #9e744f;
      }

      .c {
        fill: #ce7084;
      }

      .d {
        fill: #634831;
      }

      .e {
        fill: #f2a552;
      }

      .f {
        fill: #896048;
      }

      .g {
        fill: white;
      }

      .h {
        fill: #cc8647;
      }

      .i {
        fill: #03112f;
      }

      .j {
        fill: #583d2e;
      }

      .k {
        fill: #decbcd;
      }
    </style>
  </defs>
  <path
    class="e"
    d="M185.87,207.18c-.28-.31-.68-.48-1.1-.48s-.82.18-1.1.48c-1.94,2.11-5.97,6.05-10.87,8.49,5.49-2.74,9.91-7.39,11.51-9.2.25-.28.37-.64.37-1.01-.37-14.58-7.81-28.16-19.9-36.34-.24-.16-.51-.25-.8-.25l-19.6-.46c-.19,0-.38.03-.56.1-1.66.62-3.24,1.4-4.75,2.28.25-.35.35-.8.23-1.24-.17-.64-.75-1.1-1.41-1.11h-.59c-1.05-.04-2.02-.56-2.62-1.42l-13-18.59c-.26-.38-.68-.61-1.14-.64l-53.82-3.3c-.73-.05-1.37.43-1.55,1.13-.48,1.88-1.27,6.82-1.23,18.89.02,7.21,1.12,14.3,3.27,21.1.02.07.05.13.08.19.01.08.03.15.05.22.6,1.86,1.3,3.68,2.05,5.46-.31-.5-.88-.78-1.48-.7-.68.1-1.2.65-1.27,1.33-.6,5.99-1.41,13.96-1.84,17.91-.55,5.01-7.76,9.07-9.52,9.81-2.68,1.12-6.72,2.81-6.72,7.18,0,2.31,1.07,4.44,2.93,5.84.43.33,1.01.39,1.5.17.48-.21.81-.65.88-1.16-.03.3-.04.58-.05.84-.03.76.55,1.49,1.31,1.57.24.03.47.03.66.04l2.35.1c.77.03,1.46-.55,1.55-1.33,0-.06.02-.13.02-.19-.04.4.08.8.34,1.12.27.32.67.52,1.09.54l8.1.34c5.96,0,9.35-5.09,10.06-10.13.39-2.71,2.68-9.68,3.37-11.75.12-.35.09-.72-.05-1.06.08.08.15.17.23.26.04.04.08.07.12.11.03.04.07.09.11.13,2.18,2.29,4.59,4.49,7.15,6.52.49.39,1.16.42,1.7.09,1.37-.84,2.86-1.88,4.15-3.05-2.3,2.11-5.3,3.85-7.46,4.85-3.71,1.79-7.96,4.42-7.96,8.99,0,3.07,1.83,4.41,3.3,5.49.43.31.99.38,1.48.17.49-.21.83-.66.9-1.19.14-1.12.46-1.79,1.59-3.41-1.17,1.66-1.6,2.8-1.68,4.38-.04.75.53,1.41,1.28,1.52.44.07.82.1,1.19.1h3.64c.78,0,1.45-.59,1.51-1.37,0-.07.01-.14.02-.21-.02.4.12.79.38,1.09.28.31.69.49,1.11.49h9.61c.7,0,1.38-.56,1.51-1.25l.02-.12c.03-.15.02-.29,0-.43.82.37,1.52.63,2.01.79.07.02.14.04.21.05l.29.05c.1.02.2.02.29.02.09.03.19.06.29.08,4.41.7,20.03,2.98,36.06,2.98s20.83-.98,26.04-2.01l-.29-1.47h0l.33,1.46c.95-.19,1.92-.38,2.96-.57,9.66-1.74,15.66-8.54,15.66-17.74,0-4.28-1.6-8.38-4.5-11.54ZM59.79,232.39c.18-1.03.53-2.38,1.24-3.88-.71,1.51-1.06,2.88-1.24,3.88ZM154.42,217.86c-.36,0-.72,0-1.09,0,.36,0,.72,0,1.09,0ZM150.87,217.82c-.2,0-.39,0-.59,0,.2,0,.39,0,.59,0ZM147.23,217.71c-.26-.01-.53-.03-.8-.04.27.01.53.03.8.04ZM144.11,217.54c-.37-.02-.74-.05-1.12-.08.37.03.75.06,1.12.08ZM140.85,217.28c-.4-.04-.79-.07-1.19-.12.4.04.8.08,1.19.12ZM137.35,216.9c-.36-.05-.72-.09-1.09-.14.37.05.73.09,1.09.14ZM160.12,217.84c-1.31,0-2.6.01-3.9.02,1.29,0,2.59,0,3.9-.02ZM125.91,215.31c.5,0,.96-.25,1.24-.66.31-.46.34-1.06.08-1.55-.01-.02-.02-.04-.03-.07.37.7.76,1.38,1.19,2.04.24.37.62.62,1.06.68,0,0,.02,0,.03,0-1.3-.18-2.58-.33-3.83-.46.03,0,.07,0,.11.01.05,0,.11,0,.16,0ZM125.86,210.13c.1.25.2.51.31.76-.11-.25-.2-.51-.31-.76ZM125.28,208.59c-.11-.31-.21-.63-.31-.94.1.32.2.63.31.94ZM132.75,216.24s.03,0,.05,0c-.02,0-.03,0-.05,0h-.01s.01,0,.02,0ZM98.36,224.74c0,.87.12,1.68.33,2.43-.22-.74-.33-1.52-.33-2.34,0-.03,0-.06,0-.09ZM164.75,217.82c.54,0,1.08-.03,1.61-.1-.53.06-1.07.1-1.61.1ZM123.47,197.89c0,1.84.18,3.68.48,5.49-.03-.15-.06-.3-.09-.45-.11-.71-.71-1.25-1.43-1.27-.76-.05-1.36.46-1.52,1.16l-2.33,10.13c-.1.43,0,.88.26,1.23s.66.57,1.1.6c.13,0,.26.02.39.03-1.29-.09-2.52-.17-3.66-.23.41-.17.74-.5.87-.95l9.5-33.16c.09.07.2.13.31.17.52.21,1.09.1,1.51-.24-3.42,5.07-5.39,11.13-5.39,17.48ZM124.55,206.14c-.08-.3-.16-.6-.23-.91.07.3.15.61.23.91ZM123.09,215.04c-.15-.01-.31-.03-.46-.04.15.01.31.03.46.04ZM98.72,227.28c.04.16.11.3.16.46-.06-.15-.11-.3-.16-.46ZM171.36,216.37c.46-.19.91-.4,1.36-.62-.45.22-.9.42-1.36.62ZM166.77,217.66c.4-.06.8-.12,1.2-.2-.4.09-.8.15-1.2.2ZM168.37,217.36c.4-.1.8-.2,1.2-.33-.4.12-.8.23-1.2.33ZM169.89,216.92c.42-.14.85-.29,1.26-.46-.42.17-.84.32-1.26.46ZM97.33,214.77c-.36.42-.77.82-1.2,1.21.43-.39.83-.8,1.2-1.21Z"
  />
  <path
    class="e"
    d="M49.74,134.42l60.65,3.16s.05,0,.08,0c.74,0,1.38-.55,1.48-1.29l10.64-75.57c.06-.42-.06-.85-.34-1.18-.28-.33-.68-.52-1.11-.53l-73.96-1.94c-.52-.04-1,.23-1.28.66-2.23,3.3-9.88,15.3-14.48,30.98-.02.08-.04.16-.05.25l-2.68,22.6c-.04.3.02.61.16.88,4.77,9.01,17.51,19.62,20.01,21.65.25.2.55.32.87.33ZM46.84,99.17c-2.51-1.86-4.01-4.82-4.01-7.93,0-3.92,2.34-7.47,5.97-9.04.55-.24.89-.78.89-1.37.39.18.77.38,1.15.61.03.02.06.04.08.06.91.6,1.7,1.39,2.36,2.28-1.53.29-2.67,1.85-2.67,3.81,0,2.17,1.39,3.87,3.17,3.87.63,0,1.2-.22,1.69-.59-.13,4.25-2.55,8.02-6.1,9.44-.11.05-.22.11-.32.18-.12,0-.24.03-.36.06-.44.13-.88.22-1.31.28.19-.61-.01-1.27-.53-1.65ZM102.22,86.92c-2.19,0-3.96,1.99-3.96,4.44s1.78,4.44,3.96,4.44c1.55,0,2.88-1.01,3.53-2.47,0,.15.01.3.01.46,0,4.71-2.48,9.11-6.64,11.77-.04.03-.09.05-.13.08-.06.03-.12.06-.18.1-2.44,1.47-5.24,2.25-8.1,2.25-.2,0-.4-.02-.6-.03.7,0,1.3-.48,1.46-1.16.16-.7-.2-1.42-.86-1.71-4.5-1.97-7.41-6.4-7.41-11.3s2.91-9.33,7.41-11.3c.66-.29,1.02-1.01.86-1.71-.16-.7-.78-1.19-1.51-1.16.22,0,.43-.03.65-.03,2.86,0,5.66.78,8.09,2.25.06.04.13.06.2.09.04.04.09.07.14.1,2.21,1.42,3.94,3.33,5.08,5.52-.59-.39-1.27-.63-2.01-.63ZM80.11,103.87s-.04-.03-.06-.05c.02.02.04.03.06.05ZM90.01,107.96c-.48-.02-.95-.06-1.41-.12.46.06.93.1,1.41.12ZM88.5,107.82c-.44-.06-.88-.14-1.31-.24.43.1.87.18,1.31.24ZM86.98,107.53c-.38-.09-.76-.19-1.12-.31.37.12.74.22,1.12.31ZM85.46,107.09c-.3-.11-.6-.21-.89-.34.29.12.59.23.89.34ZM83.99,106.48c-.21-.1-.43-.2-.63-.31.21.11.42.21.63.31ZM82.59,105.73c-.13-.08-.27-.16-.4-.24.13.08.26.16.4.24ZM81.29,104.85c-.07-.05-.13-.1-.2-.15.06.05.13.1.2.15ZM81.09,82.88c.06-.05.13-.1.2-.15-.07.05-.13.1-.2.15ZM82.19,82.09c.13-.08.26-.16.4-.24-.13.08-.27.16-.4.24ZM83.36,81.41c.21-.11.42-.21.64-.31-.21.1-.43.2-.64.31ZM84.58,80.83c.29-.12.59-.23.89-.34-.3.1-.6.22-.89.34ZM85.85,80.36c.37-.12.75-.22,1.13-.31-.38.09-.76.2-1.13.31ZM87.19,80c.43-.1.87-.18,1.31-.24-.44.06-.88.14-1.31.24ZM88.6,79.75c.47-.06.94-.1,1.41-.12-.48.02-.95.06-1.41.12ZM80.05,83.77s.04-.03.05-.05c-.02.02-.04.03-.05.05ZM75.73,92.36c0-.08.03-.15.04-.23,0,.08-.03.15-.04.23ZM75.95,90.95s.03-.1.04-.15c-.01.05-.03.1-.04.15ZM76.33,89.58s.01-.03.01-.04c0,.01-.01.03-.01.04ZM76.34,98.05s-.01-.03-.02-.04c0,.02.01.03.02.04ZM75.99,96.79c-.01-.05-.03-.1-.04-.15.01.05.03.1.04.15ZM75.76,95.47c-.01-.08-.03-.16-.04-.24,0,.08.03.16.04.24ZM54.26,106.37c0-.78,1.3-1.62,3.39-1.62s3.39.84,3.39,1.62c0,.67-.91,1.9-2.39,2.36-.57.18-.98.67-1.04,1.27l-.03.23s0,0,0,0c.05-.67-.36-1.31-1.02-1.53-1.43-.48-2.31-1.69-2.31-2.34ZM47.87,110.39c0,2.14,1.24,3.63,3.33,4.1-2.11-.47-3.33-1.94-3.33-4.1ZM53.02,114.64c.26-.02.5-.12.72-.27.29.05.58.01.85-.1,1.55-.67,2.66-2.12,2.98-3.87,0-.02,0-.04,0-.06-.01.2.02.4.08.6,0,3.66,4,6.77,9.3,7.23.19.02.38,0,.57-.06.16.07.4.11.57.12h-.06c-.39-.02-.77.14-1.06.4-2.98,2.81-5.18,6.35-6.35,10.25-.16.52,0,1.07.37,1.46-.09-.08-.19-.15-.28-.23-.11-.1-.23-.18-.37-.25-.06-.12-.15-.24-.24-.34-2.63-2.74-4.78-7.6-6.06-13.68-.14-.65-.68-1.12-1.33-1.19.11,0,.21,0,.31-.02ZM61.82,130.97s-.07-.05-.1-.07c.03.02.07.05.1.07ZM65.19,132.05c.25,0,.5-.03.75-.08-.25.05-.5.08-.75.08-.31,0-.62-.03-.93-.09.31.05.62.09.93.09ZM64.09,131.94c-.27-.06-.53-.13-.8-.23.27.09.53.18.8.23ZM62.97,131.59c-.22-.09-.43-.2-.65-.32.22.12.43.23.65.32ZM67.22,131.54s-.03.02-.05.02c.02,0,.03-.02.05-.02ZM66.74,131.75c-.2.08-.4.14-.6.19.2-.05.4-.11.6-.19ZM75.48,117.45c-.43-.43-1.08-.55-1.64-.31-.05.02-.11.04-.17.06,1.48-.6,2.75-1.44,3.67-2.47.02-.01.03-.03.04-.04,0,.02,0,.03-.01.05-.39,1.26-.92,2.75-1.55,4.32.22-.56.09-1.2-.34-1.62ZM71.1,117.96c.13-.03.26-.06.39-.09-.13.03-.26.06-.39.09ZM72.41,117.64c.17-.05.33-.11.5-.16-.17.06-.33.12-.5.16Z"
  />
  <path
    class="k"
    d="M185.25,208.52s0,0,0,0c0-17.24-7.48-30.68-22.24-39.62-1.18-.72-4.12-.76-4.83.42-.72,1.18-.27.94.91,1.66,13.25,8.03,21.17,22.07,21.17,37.55,0,.65.25,1.23.66,1.68-.81.98-1.84,2.06-3.02,3.02l-.46.38c-2.52,2.07-5.13,4.21-17.5,5.42-12.34,1.21-44.25-4.68-44.57-4.74l-.73,3.93c1.2.22,26.92,4.96,41.41,4.96,1.57,0,3.01-.06,4.28-.18,13.57-1.33,16.66-3.86,19.64-6.3l.44-.36c3.72-3.01,6-6.92,6.09-7.08l-1.25-.72Z"
  />
  <path
    class="k"
    d="M66.33,206.67c.07.14,1.7,3.47-2.04,8.49-3.23,4.34-7.7,5.4-11.29,6.25-.79.19-1.53.36-2.19.56-1.37.41-2.35,1.15-2.9,2.18-.81,1.51-.38,3.03-.33,3.2l1.92-.57c-.1-.36-.49-2.18,1.89-2.9.61-.18,1.31-.35,2.07-.53,3.7-.87,8.76-2.07,12.43-7,4.54-6.09,2.3-10.43,2.2-10.62l-1.77.94Z"
  />
  <path
    class="k"
    d="M103.03,192.4c.05-.83-.58-1.54-1.41-1.59-.84-.05-1.54.58-1.59,1.41-.21,3.49.1,6.42.37,9,.23,2.19.45,4.25.32,6.33-.26,4.18-.9,6.36-6.21,11.12-2.48,2.22-5.19,3.09-7.8,3.94-2.85.92-5.55,1.79-7.14,4.34-.44.7-.22,1.63.48,2.07.25.15.52.23.79.23.5,0,.99-.25,1.28-.71,1.01-1.62,2.99-2.26,5.51-3.07,2.64-.85,5.93-1.91,8.89-4.56,5.73-5.14,6.87-7.91,7.2-13.16.15-2.34-.08-4.53-.33-6.84-.27-2.58-.56-5.26-.36-8.5Z"
  />
  <path
    class="h"
    d="M163.01,231.26c-15.54,2.61-27.3,1.41-42.95-.8-15.65-2.21-15.72-9.45-11.7-16.06,0,0-7.19,1.32-9.48,4.91-2.29,3.59-.98,6.52.88,11.15,1.86,4.63,10.38,6.39,32.3,8.15,21.92,1.76,44.59-1.85,49.53-4.51,4.94-2.66,8.75-16.32,8.75-16.32,0,0-11.8,10.87-27.34,13.48Z"
  />
  <polygon
    class="h"
    points="118.35 90.87 122.98 58.57 49.14 57.07 114.99 65.74 118.35 90.87"
  />
  <path
    class="h"
    d="M82.13,228.53s5.32,1.64,9.2,1.92,8.43,0,8.43,0l7.51,4.97-3.51,1.75s-23.98,4.93-23.26-6.29c.35-5.46,1.62-2.35,1.62-2.35Z"
  />
  <path
    class="h"
    d="M112.38,214.39l4.3.19,6.39-20.1c-.03.57-.06,1.15-.09,1.78-.35,8.28,4.58,19.72,4.58,19.72l27.86,1.88s-34.3-11.72-14.06-48.26c0,0-6.47,2.39-11.88,8.96-.88,1.07-1.62,2.03-2.27,2.94l.72-2.25s2.14-13.96.94-13.96-4.79,8.84-9.93,25.44c-5.14,16.59-6.55,23.66-6.55,23.66Z"
  />
  <path
    class="h"
    d="M85.85,203.16c-4.4-4.37-11.09-17.15-13.2-25.4-2.11-8.25-1.91-17.3.25-20.92,2.16-3.62,12.72-7.24,25.81-7.02,13.09.22,23.9-2,23.9-2l-57.45-4.16s-2.71,20.34.98,39.32c.41,2.08,1.03,4.14,1.81,6.17l-2.52,16.08s8.94,3.66,7.23,12.63c-1.71,8.97-7.8,10.66-10.33,12.59s-2.27,3.59-2.27,3.59c0,0,12.69,1.97,15.71-1.81s6.9-19.19,6.9-19.19l8.45,6.27,6.68-5.5s-7.54-6.28-11.94-10.65Z"
  />
  <path
    class="g"
    d="M124.82,217.32l-14.74-2.58c-5.43-.96-10.62,2.68-11.58,8.12-.95,5.44,2.68,10.62,8.12,11.58l14.74,2.58c.58.1,1.17.15,1.74.15,4.76,0,8.99-3.42,9.84-8.27.95-5.44-2.68-10.62-8.12-11.58Z"
  />
  <path
    class="g"
    d="M99.21,206.41c-6.7-7.85-12.57-16.41-15.37-26.27-1.2-4.25-5.62-6.72-9.88-5.52-4.25,1.2-6.72,5.63-5.52,9.88,3.53,12.46,10.58,23.6,19.4,33.17,2.27,2.46,6.67-.09,8.23-1.64,3.14-3.11,5-7.45,3.14-9.62Z"
  />
  <path
    class="g"
    d="M102.22,87.42c-1.91,0-3.46,1.77-3.46,3.94s1.55,3.94,3.46,3.94,3.46-1.77,3.46-3.94-1.55-3.94-3.46-3.94Z"
  />
  <path
    class="g"
    d="M90.51,82.04c.44-.19.68-.67.57-1.14-.11-.47-.54-.8-1.02-.77-7.81.32-13.92,6.33-13.92,13.67s6.11,13.35,13.92,13.67c.01,0,.03,0,.04,0,.46,0,.87-.32.97-.78.11-.47-.13-.95-.57-1.14-4.69-2.05-7.71-6.66-7.71-11.76s3.03-9.71,7.71-11.76Z"
  />
  <path
    class="g"
    d="M53.77,84.21c-1.5,0-2.67,1.48-2.67,3.37s1.17,3.37,2.67,3.37,2.67-1.48,2.67-3.37-1.17-3.37-2.67-3.37Z"
  />
  <path
    class="g"
    d="M48.44,79.85c-.69-.17-1.38-.26-2.06-.26-5.29,0-9.6,4.89-9.6,10.9s4,10.58,9.11,10.88c.02,0,.04,0,.06,0,.42,0,.8-.26.94-.66.15-.42,0-.88-.35-1.14-2.64-1.95-4.21-5.06-4.21-8.33,0-4.12,2.46-7.85,6.27-9.5.39-.17.63-.57.6-1-.04-.43-.34-.78-.75-.89Z"
  />
  <path
    class="g"
    d="M114.71,113.12l.28-2.02c-6.68,1.06-20.91,2.88-29.14,2.07-8.78-.87-24.08-9.41-27.18-9.85-3.43-.49-18.73,3.24-21.9,3.17-3.02-.07-4.94-.74-6.74-1.85l-.46,3.85c1.3,1.01,4.82,2.95,6.2,3.97,3.04,2.25,8.35,4.43,8.35,4.43l-6.35-1s1.2,2.43,2.97,4.27c1.77,1.84,5.62,4.39,5.62,4.39l-7.78-.9c4.49,4.59,8.95,9.26,10.23,10.29l53.09,2.76c1.5-.16,4.1-1.38,5.36-1.65,1.48-.31,3.64-.64,4.48-1.91l.29-1.03c-1.51.52-3.73.15-6.27-.05-5.22-.4-9.64-1.71-9.64-1.71,0,0,4.63-.77,8.55-2.05,2.53-.83,6.51-3.15,8.31-3.98l.69-3.92c-.83,0-3.1-.02-5.04-.04-5.63-.06-15.61-1.27-15.61-1.27,0,0,7.4-.44,12.73-2.19,2.58-.85,6.55-2.39,8.94-3.76ZM62.05,106.57c0,1.3-1.39,2.79-3.09,3.32l-.31.1-.09.71.04.12c.04.12.06.22.06.32,0,3.14,3.6,5.82,8.38,6.23h.1s.09-.02.09-.02c.22-.07,1.04.08,1.04.08,3.44,0,6.64-1.23,8.4-3.25.03-.04.07-.07.1-.1l-.28-.41s0,0,0,0l.37.35.26-.12-.12-.48s0,0,0,0l.24.46h.16s.1-.01.1-.01h0s.14.02.14.02l.31.15s.06.04.06.04l.09.09s.05.05.08.08l.4-.3s0,0,0,0l-.32.42.1.22.48-.14-.46.26v.26s0,.08-.04.21c-.57,1.85-5.78,18.06-13.15,18.06-1.79,0-3.52-.74-5.15-2.2l-.12-.08c-.2-.09-.36-.24-.46-.44l-.08-.11c-2.8-2.92-4.98-7.82-6.31-14.16l-.08-.39h-.4c-3.52-.08-5.71-2.1-5.71-5.27,0-.55.45-1,1-1s1,.45,1,1c0,2.08,1.42,3.27,3.89,3.27.05,0,1.42-.31,1.42-.31,1.24-.54,2.14-1.71,2.39-3.13l.08-.42-.41-.14c-1.65-.56-2.99-2.03-2.99-3.29,0-1.52,1.85-2.62,4.39-2.62s4.39,1.1,4.39,2.62Z"
  />
  <path
    class="g"
    d="M65.19,131.05c4.26,0,8.2-8.63,9.7-12.35l.45-1.12-1.11.47c-1.81.77-3.87,1.17-5.96,1.17h-.47s-.15.13-.15.13c-2.86,2.69-4.96,6.08-6.08,9.81l-.1.32.26.21c1.13.9,2.28,1.35,3.45,1.35Z"
  />
  <path
    class="c"
    d="M75.48,117.1c-.43-.43-1.08-.55-1.64-.31-1.68.71-3.59,1.09-5.63,1.09h-.19c-.39-.02-.77.13-1.06.4-2.98,2.81-5.18,6.35-6.35,10.25-.18.6.05,1.25.54,1.63,1.3,1.02,2.65,1.54,4.03,1.54,4.69,0,8.67-8.13,10.63-12.97.23-.56.09-1.21-.34-1.63Z"
  />
  <path
    class="k"
    d="M120.06,230.45c-15.5-2.19-15.72-9.31-11.82-15.86-.35,0-.69.02-1.03.06-1,.25-2.52.7-4.02,1.39-2.38,1.44-4.16,3.86-4.68,6.82-.95,5.44,2.68,10.62,8.12,11.58l14.74,2.58c.58.1,1.17.15,1.74.15,3.68,0,7.04-2.05,8.76-5.22-3.76-.39-7.65-.91-11.81-1.49Z"
  />
  <path
    class="k"
    d="M79.45,207.6c5.99,7.08,11.67,11.71,11.67,11.71l6.68-5.5s-7.54-6.28-11.94-10.65-11.09-17.15-13.2-25.4c-.2-.78-.37-1.56-.53-2.35-3.08,1.79-4.69,5.5-3.68,9.09,2.34,8.25,6.08,16.07,11,23.1Z"
  />
  <path
    class="b"
    d="M145.61,31.62l-1.95-4.83c-.13-.33-.44-.56-.79-.61l-1.95-.24c.06,0,.12.01.18.01.46,0,.9-.21,1.19-.59.32-.42.4-.98.2-1.48l-1.48-3.68c-.12-.3-.39-.53-.71-.59l-4.62-.98c-.55-.12-1.12.09-1.47.52-.35.44-.43,1.04-.21,1.55l1.82,4.11c.14.32.44.54.78.58l3.37.42-1.29-.16c-.53-.06-1.07.16-1.39.59-.32.43-.39,1.01-.17,1.5l-9.4-21.25c-.22-.51-.71-.85-1.26-.89-.56-.04-1.08.23-1.38.7l-15.07,24.02c-.29.46-.31,1.03-.05,1.5.25.47.74.78,1.28.79l1.87.06-34.01-1s.03,0,.05,0c.49,0,.96-.24,1.24-.65.29-.42.35-.97.14-1.44l.68,1.58c.15.35.49.58.87.59l3.51.1s.03,0,.04,0c.49,0,.96-.24,1.24-.65.29-.42.34-.96.14-1.43l-2.53-5.95c-.13-.31-.41-.53-.75-.59l-2.15-.35c.08.01.16.02.24.02.46,0,.89-.21,1.18-.57.34-.43.41-1.01.2-1.51l-1.54-3.63c-.13-.31-.41-.53-.75-.59l-3.73-.6c-.55-.09-1.09.13-1.42.56-.34.43-.41,1.01-.2,1.52l1.07,2.49-6.84-15.9c-.22-.51-.71-.86-1.26-.9-.56-.04-1.09.22-1.39.7l-15.18,24.15c-.29.46-.31,1.03-.05,1.5.25.47.74.78,1.28.79h.43s-22.95-.66-22.95-.66c-.78,0-1.44.55-1.53,1.32l-13.15,107.84c-.05.41.07.82.34,1.14.26.32.65.51,1.06.54l-1.12-.07c-.3-.02-.59.1-.79.32l-13.69,14.99c-.16.18-.29.4-.33.64-.21,1.38.7,2.39,1.85,2.44h0l40.03,1.63c.19.01.38,0,.55,0,.69.03,1.35-.26,1.79-.78l12.03-14.3c.37-.43.45-1.04.23-1.56-.22-.52-.72-.87-1.28-.91l63.21,3.88s.06,0,.09,0c.75,0,1.39-.55,1.49-1.3l14.82-111.05c.06-.42-.07-.85-.34-1.17-.28-.32-.67-.52-1.1-.53l-1.63-.05,3.23.09s.05,0,.07,0c.02,0,.04.02.07.02l.26.12c.2.09.41.13.61.13.39,0,.77-.15,1.06-.44.44-.44.56-1.1.31-1.67l.34.76c.13.3.4.51.72.57l4.1.78c.09.02.19.03.28.03.44,0,.87-.2,1.16-.55.35-.42.44-1,.23-1.51ZM116.68,32.32l.99-1.53c-.29.45-.32,1.03-.07,1.51.25.48.74.79,1.28.8l-3.51-.1c.53.01,1.02-.24,1.3-.68ZM78.15,22.6l1.89.31c-.54-.09-1.09.13-1.42.56-.34.43-.41,1.01-.2,1.51l-1.41-3.27c.2.47.63.8,1.14.89ZM57.86,30.58l9.21-14.35s.06-.05.1-.04c.04,0,.07.03.09.07l5.65,14.53c.22.56.74.93,1.34.96l4.82.19-22.51-.66c.54,0,1.02-.25,1.3-.69ZM111.27,137.58l-63.14-4.11c.3.25.56.46.75.62.25.2.55.32.87.33l48.52,2.52-72.13-3.75,2.3-19.4,6.75-57.04,87.79,1.81-11.71,79.01ZM123.22,22.26l-3.9,6,5.38-8.27,1.14,2.46c-.23-.5-.71-.83-1.25-.87-.56-.04-1.07.22-1.37.68ZM124.55,32.76l3.96.12s.03,0,.04,0c.5,0,.97-.25,1.25-.67.29-.43.33-.98.11-1.46l-3.02-6.54,3.65,7.89c.24.52.75.85,1.32.87l-7.31-.22Z"
  />
  <path
    class="b"
    d="M129.11,9.93c.18.41.54.72.97.84l4.35,1.21-1.98-.55c-.56-.15-1.16.03-1.54.46-.38.44-.47,1.06-.24,1.59l1.82,4.1c.2.44.59.76,1.06.86l4.49.95c.1.02.21.03.31.03.44,0,.86-.19,1.15-.54.36-.42.45-1.01.24-1.52l-1.5-3.71c-.17-.43-.54-.76-.99-.88l-2.22-.62c.13.04.27.06.4.06.42,0,.83-.18,1.12-.5.38-.43.49-1.03.27-1.56l-.78-1.93c-.72-1.79-2.35-3.06-4.26-3.32l-2.57-.35c-.54-.08-1.08.15-1.4.58-.33.43-.39,1.01-.17,1.51l1.46,3.29Z"
  />
  <path
    class="b"
    d="M71.16,8.11c.2.47.64.81,1.15.89l1.86.29c-.54-.08-1.08.13-1.42.56-.33.43-.41,1.01-.19,1.51l1.59,3.7c.2.47.63.81,1.14.89l3.47.56c.08.01.16.02.24.02.46,0,.89-.21,1.18-.57.34-.43.41-1.01.2-1.51l-1.58-3.72c-.2-.48-.64-.82-1.15-.9l-1.84-.29c.08.01.15.02.23.02.46,0,.9-.21,1.18-.58.33-.43.41-1.01.2-1.51l-.78-1.84c-.61-1.44-1.95-2.47-3.49-2.69l-1.83-.26c-.54-.07-1.07.14-1.4.57-.33.43-.4,1.01-.19,1.51l1.44,3.35Z"
  />
  <path
    class="b"
    d="M172.4,150.36c-.27-.4-.71-.65-1.19-.67l-.59-.02s.04,0,.06,0c.75,0,1.38-.55,1.48-1.29l12.73-91.93c.09-.66-.26-1.3-.87-1.58l-45.7-20.42c-.43-.19-.93-.17-1.34.06-.41.23-.69.64-.76,1.11l-14.75,110.46c-.06.42.07.84.34,1.16.27.32.67.52,1.09.53l1.37.05c-.58-.02-1.1.28-1.37.78-.27.5-.24,1.11.09,1.58l11.68,16.7c.6.86,1.58,1.38,2.62,1.41l43.5,1.01c.05,0,.11,0,.16,0,.76,0,1.46-.42,1.87-1.15.4-.73.36-1.58-.1-2.26l-10.32-15.54Z"
  />
  <path
    class="b"
    d="M68.25,18.94c-.2-.53-.69-.89-1.25-.95-.56-.06-1.11.21-1.41.68l-5.07,7.89c-.3.46-.32,1.05-.05,1.53s.77.78,1.32.78h8.14c.5,0,.96-.24,1.24-.65.28-.41.34-.93.16-1.39l-3.07-7.89Z"
  />
  <path
    class="f"
    d="M160.12,99.24c-9.37,10.17-35.57,25.08-35.57,25.08l2.98-26.99s-3.09,5.22-6.07,7.53c-2.99,2.31-5.51,3.14-5.51,3.14l-5.47,29.59-60.73-3.16-11.97-7.14-20.73,1.01-1.61,12.27-13.47,15.28s25.34.4,35.81-2.21,20.31-9.79,20.31-9.79l64.5,4.33,49.04,1.16,12.56-86.41s-14.68,26.15-24.05,36.32Z"
  />
  <path
    class="f"
    d="M171.62,148.93s-1.16,8.78-11.49,11.97c-10.34,3.19-27.88,2.3-27.88,2.3l4.02,4.67,44.25.17c1.54,0,2.47-1.7,1.63-2.99l-10.52-16.12Z"
  />
  <path
    class="f"
    d="M74.35,15.4s-1.77,6.07-6.54,8.08-15.85,5.39-15.85,5.39l-1.92,2.21,30.44.87-6.13-16.55Z"
  />
  <path
    class="f"
    d="M133.09,18.92s-5.48,7.19-8.88,8.48-14.27,4.69-14.27,4.69l28.53,1.38-5.39-14.55Z"
  />
  <path
    class="k"
    d="M42.99,156.84c-4.22,1.41-39.62,1.32-39.62,1.32l40.63,3.13,14.09-17.46s-10.88,11.6-15.1,13.01Z"
  />
  <path
    class="k"
    d="M148.63,39.49h0l-14.2-33.46-8.26-2.01-8.64,13.39,1.11-.61,7.53-6.1s10.72,14.98,13.49,23.61c.25.78-4.44-.67-4.44-.67l-46.8-1.27-13.07-28.46-7.53-1.25-6.33,11.06,6.33-5.37s10.07,14.02,13.26,22.76c.26.71-51.49-.33-51.49-.33l-.89,5.02s15.13-.76,50.31,0c35.18.76,49.47,1.36,50.47,2.37,1,1.01-2.48,66.52-2.48,66.52l8.71-66.32,48.47,20.19.73-3.31-36.27-15.77Z"
  />
  <path
    class="k"
    d="M132.24,163.18l-4.04-12.31h16.35c14.36,0,25.97-1.69,25.97-1.69l-48.85-1.13,10.58,15.12Z"
  />
  <path
    class="d"
    d="M133.8,92.5c-1.64,11.66,6.62,14.74,6.62,14.74l13.08,2.65,6.48,11.19,1.3-9.26s10.49,1.77,12.33-11.26c1.84-13.03-7.25-14.87-7.25-14.87l-22.24-4.51s-8.68-.35-10.32,11.31ZM144.57,94.69c.2-1.36,1.49-1.1,1.49-1.1l6.53,1.31.97-6.89s.19-1.34,1.51-1.07c1.32.27,1.13,1.64,1.13,1.64l-1,6.85,6.65,1.35s1.32.27,1.13,1.64c-.19,1.37-1.62,1.08-1.62,1.08l-6.55-1.33-.96,6.82s-.52,1.3-1.5,1.1c-.98-.2-1.14-1.46-1.14-1.46l.98-6.99-6.53-1.32s-1.31-.26-1.11-1.63Z"
  />
  <path
    class="j"
    d="M169.32,87.09c-2.43,3.61-4.9,7.03-7.16,9.79.38.17.96.59.83,1.53-.19,1.37-1.62,1.08-1.62,1.08l-1.24-.25c-1.64,1.79-3.81,3.72-6.26,5.69v.05s-.51,1.25-1.46,1.1c-1.21.94-2.47,1.89-3.77,2.82l4.86.99,6.48,11.19,1.3-9.26s10.49,1.77,12.33-11.26c1.12-7.94-1.82-11.72-4.28-13.47Z"
  />
  <path
    class="i"
    d="M185.91,204.26c-.36-13.51-6.61-26.14-16.98-34.66l11.66.27s.21,0,.24,0c1.72,0,3.25-1.18,3.63-2.99.21-.98-.07-2-.62-2.83l-10.36-15.6,12.99-93.77c.09-.66-.26-1.3-.87-1.57l-35.99-16.08-1.62-4.02s0-.01,0-.02l-5.81-14.39s0,0,0-.01l-4.73-11.74c-.92-2.29-3-3.91-5.45-4.25l-5.23-.72s-.03,0-.04,0c-.11-.01-.22-.01-.33,0-.03,0-.07,0-.1.01-.11.02-.23.05-.34.1,0,0,0,0,0,0-.03.01-.06.03-.09.05-.09.05-.17.1-.24.16-.03.02-.06.05-.08.07-.09.09-.18.18-.25.29l-17.49,27.88-18.86-.56-10.9-25.65c-.82-1.93-2.59-3.29-4.66-3.59L68.9,0s-.03,0-.05,0c-.11-.01-.22-.01-.34,0-.02,0-.05,0-.07,0-.12.02-.23.05-.35.1,0,0-.02.01-.03.01-.02,0-.03.02-.04.02-.1.05-.2.11-.28.18-.02.02-.05.04-.07.06-.1.09-.18.18-.25.29,0,0,0,0,0,0l-17.63,28.04-20.4-.6c-.78-.02-1.44.55-1.53,1.32l-13.44,110.22-13.42,14.69c-.8.87-1.19,2.09-.9,3.24.39,1.54,1.68,2.57,3.21,2.63l40.01,1.63c.06,0,.13,0,.19,0,1.41,0,2.77-.63,3.68-1.71l13.13-15.6,3.31.2c-.56,2.55-1.2,7.85-1.16,18.7.02,7.42,1.16,14.64,3.32,21.48-.25,2.52-1.8,17.99-2.46,24.01-.6,5.5-8.43,7.74-8.73,7.93-3.64,2.37-7.51,4.75-7.51,9.21,0,4.85,3.94,8.79,8.73,8.79,0,0-.02,0-.02,0l13.39.72c4.32,0,7.95-2.41,10-6.32.17,4.04,2.85,7.43,6.52,8.65,0,0,.01,0,.02,0,.94.31,3-.06,3-.06h16.6c2.56,0,4.05-.88,4.84-1.58,4.72.73,20.01,2.9,35.56,2.9s20.92-.98,26.16-2.03c.95-.19,1.91-.38,2.95-.57,10.19-1.84,16.78-9.33,16.78-19.09,0-5.01-2.07-9.8-5.68-13.26ZM183.16,205.53c-1.79,2.03-10,10.79-18.42,10.79-1.55,0-3.09,0-4.62.02-8.69.06-16.89.11-27.14-1.58-1.12-.18-2.24-.35-3.34-.5-3.01-4.7-4.67-10.48-4.67-16.38,0-12.39,7.77-23.58,19.35-27.93l19.6.46c11.72,7.93,18.87,21.02,19.23,35.12ZM125.91,213.81c-2.05-.22-4.02-.39-5.85-.52l2.33-10.13c.58,3.77,1.78,7.39,3.52,10.65ZM181.47,166.73c.21.32.09.61.03.72-.06.11-.24.4-.62.36l-43.55-1.01c-.57-.01-1.1-.3-1.43-.77l-11.68-16.7,46.93,1.86,10.32,15.54ZM183.4,56.23l-12.73,91.93-47.72-1.89,14.75-110.46,45.7,20.42ZM142.39,27.88l1.83,4.55-3.83-.73-1.9-4.3,3.9.48ZM141.1,24.7l-4.03-.5-1.7-3.84,4.35.92,1.38,3.42ZM136.87,14.22l1.5,3.71-4.49-.95-1.82-4.1,4.81,1.34ZM131.6,6.38c1.38.19,2.56,1.11,3.08,2.4l.78,1.93-4.97-1.38-1.46-3.3,2.57.35ZM126.34,7.36l11.08,25.04-.33-.15s-.04-.01-.06-.02c-.04-.02-.09-.03-.14-.05-.05-.01-.1-.03-.15-.04-.02,0-.04-.01-.06-.02-.02,0-.05,0-.07,0-.03,0-.06,0-.08-.01l-4.62-.14-5.85-12.64c-.23-.5-.71-.83-1.25-.87-.56-.04-1.07.22-1.37.68l-8.02,12.34-4.15-.12,15.07-24.02ZM128.56,31.89l-9.63-.28,5.55-8.54,4.08,8.82ZM85.62,30.63l-3.18-.09-2.65-6.15,3.41.56,2.41,5.68ZM81.82,21.68l-3.43-.56-1.45-3.37,3.45.56,1.43,3.37ZM77.42,11.32l1.58,3.72-3.47-.56-1.59-3.7,3.48.54ZM72.93,4.44c1.03.15,1.92.83,2.33,1.79l.78,1.84-3.5-.55-1.44-3.35,1.83.26ZM68.42,5.52l10.72,24.92-4.83-.19-5.65-14.53c-.22-.57-.73-.96-1.34-1.02-.61-.06-1.18.22-1.51.73l-9.21,14.35-3.37-.1,15.18-24.15ZM69.92,26.88h-8.14l5.07-7.89,3.07,7.89ZM44.85,159.15c-.36.42-.89.67-1.45.64l-40.04-1.63c-.24,0-.34-.15-.39-.27-.05-.12-.08-.3.08-.47l13.36-14.63,40.14,2.46-11.7,13.91ZM17.47,139.84l13.15-107.84,104.15,3.07-14.82,111.05-102.48-6.28ZM77.81,224.58c-.63,4.4-3.54,8.84-8.58,8.84l-8.03-.34c.12-.87.42-2.33,1.21-3.97.36-.75.04-1.64-.71-2-.75-.35-1.64-.04-2,.71-1.02,2.15-1.38,4.04-1.5,5.13l-2.35-.1c-.18,0-.36-.01-.54-.03.04-1.03.2-2.57.79-3.9.34-.76,0-1.64-.76-1.98-.76-.34-1.64,0-1.98.76-.6,1.34-.86,2.8-.98,3.99-1.41-1.06-2.33-2.74-2.33-4.64,0-3.2,2.85-4.56,5.8-5.8,1.12-.47,9.76-4.8,10.43-11.03.43-3.99,1.26-12.13,1.84-17.92,3.16,7.42,7.58,14.26,13.12,20.25-.81,2.42-3.03,9.22-3.43,12.02ZM80.85,224.59c.42-2.29,1.85-6.83,2.75-9.6,1.49,1.47,3.08,2.86,4.72,4.2-.11.05-.23.11-.33.16-2.58,1.24-5.39,2.87-7.13,5.24ZM105.02,234.88h-9.64c.1-.99.35-1.34.95-2.52.45-.88-.05-1.99-1.11-2.17-.65-.11-1.3.29-1.6.88-.85,1.67-1.15,2.54-1.26,3.81h-3.65c-.33,0-.65-.03-.96-.08.06-1.15.34-2.03,1.41-3.56.48-.68.31-1.61-.37-2.09-.68-.48-1.61-.31-2.09.37-1.18,1.69-1.66,2.6-1.85,4.09-1.63-1.19-2.69-2.11-2.69-4.28,0-2.95,2.13-5.24,7.11-7.64,1.14-.52,11.16-5.29,11.65-11.59.43-5.53,2.99-35.89,3.02-36.2.07-.83-.11-1.55-.93-1.63-.82-.06-.99.55-1.06,1.37-.03.31-3.59,30.67-4.02,36.22-.21,2.74-3.77,5.55-6.78,7.4-2.49-1.98-4.83-4.11-6.98-6.37-.06-.08-.14-.16-.22-.23-6.94-7.35-12.1-16.07-15.18-25.6-.02-.14-.07-.28-.13-.41-2.08-6.57-3.18-13.51-3.2-20.65-.04-12.06.76-16.82,1.19-18.52l53.82,3.3,13,18.59c.87,1.25,2.29,2.01,3.82,2.04h.58c-3.94,2.41-7.32,5.57-9.92,9.29.11-.66.03-1.29-.63-1.46-.8-.21-1.15.32-1.36,1.12l-9.82,34.3c-4.45-.22-7.41-.19-7.46-.19-6.5,0-11.8,5.29-11.8,11.79,0,4.78,3.01,7.93,8.19,10.45l-.03.15ZM174.45,234.03c-1.07.19-2.05.39-3.02.58-5.13,1.02-9.99,1.98-25.75,1.98s-31.86-2.34-35.83-2.97c-.19-.07-.39-.1-.58-.09-.11-.02-.2-.03-.26-.04-2.28-.75-9.16-2.55-9.16-8.83,0-4.85,3.95-8.79,8.81-8.79.13,0,11.91-.1,23.84,1.87,10.5,1.73,18.83,1.68,27.64,1.62,1.52,0,3.05-.02,4.6-.02,8.94,0,17.13-7.95,20.02-11.08,2.63,2.85,4.11,6.61,4.11,10.52,0,8.43-5.53,13.66-14.42,15.26Z"
  />
  <path
    class="i"
    d="M52.76,106.37c0,1.44,1.43,3.12,3.33,3.76-.23,1.27-1.04,2.3-2.1,2.76-.5.34-1.19.26-1.23.26-1.27,0-3.39-.36-3.39-2.77,0-.83-.67-1.5-1.5-1.5s-1.5.67-1.5,1.5c0,3.45,2.43,5.69,6.2,5.76,1.36,6.48,3.63,11.47,6.44,14.41.15.29.39.52.7.66,1.68,1.51,3.53,2.33,5.48,2.33,7.72,0,13.01-16.41,13.63-18.41,0,0,0,0,0,0,0,0,0-.01,0-.02,0-.03.01-.06.02-.08.02-.06.03-.13.04-.19,0-.05,0-.09,0-.14,0-.05,0-.1,0-.15,0-.05-.02-.1-.03-.15,0-.05-.01-.09-.03-.14-.01-.05-.03-.09-.05-.13-.02-.05-.03-.09-.06-.14-.02-.04-.05-.08-.08-.13-.03-.04-.05-.08-.08-.12-.04-.05-.09-.09-.13-.14-.02-.02-.04-.05-.06-.07,0,0,0,0,0,0-.05-.04-.1-.08-.16-.11-.03-.02-.06-.04-.09-.06-.03-.02-.07-.03-.1-.04-.06-.03-.11-.05-.17-.07,0,0,0,0-.01,0-.03-.01-.07-.01-.1-.02-.06-.01-.12-.03-.18-.04-.05,0-.1,0-.15,0-.04,0-.09,0-.13,0-.06,0-.11.02-.16.03-.04,0-.08.01-.12.02-.05.01-.1.04-.15.06-.04.02-.08.03-.12.05-.05.03-.1.06-.15.09-.03.02-.07.04-.1.06-.06.04-.11.1-.16.15-.02.02-.04.03-.05.05-1.63,1.88-4.69,3.04-7.99,3.04-.06,0-.84-.03-1.19-.06-4.23-.33-7.93-2.85-7.93-5.74,0-.17-.03-.33-.09-.48.01-.1.03-.19.04-.29,1.96-.61,3.44-2.32,3.44-3.79,0-1.81-2.06-3.12-4.89-3.12s-4.89,1.31-4.89,3.12ZM68,119.72c.09,0,.18,0,.27,0,2.22,0,4.33-.43,6.15-1.21-2.32,5.75-5.92,12.03-9.24,12.03-1.07,0-2.12-.44-3.13-1.24,1.1-3.66,3.14-6.95,5.94-9.59Z"
  />
  <path
    class="i"
    d="M123.98,58.09c-.28-.33-.68-.52-1.11-.53l-76.45-2.01h0l-11.19-.29c-.8-.03-1.44.55-1.53,1.32l-6.54,55.25s0,0,0,0l-2.51,21.18c-.05.41.08.83.34,1.14.27.32.65.51,1.07.53l85.63,4.45s.05,0,.08,0c.74,0,1.38-.55,1.48-1.29l11.06-78.59c.06-.42-.06-.85-.34-1.18ZM110.48,136.08l-60.65-3.16c-2.31-1.87-14.98-12.41-19.63-21.19l2.68-22.6c4.59-15.64,12.35-27.7,14.28-30.56l73.96,1.94-10.64,75.57Z"
  />
  <path
    class="i"
    d="M35.78,90.5c0,6.56,4.76,11.9,10.6,11.9.95,0,1.86-.15,2.74-.42.04,0,.07.02.11.02.27,0,.51-.12.7-.3,4.1-1.64,7.05-6.04,7.05-11.2,0-4.36-2.11-8.17-5.23-10.25-.04-.03-.08-.06-.13-.09-1.55-.99-3.33-1.57-5.24-1.57-5.84,0-10.6,5.34-10.6,11.9ZM53.77,85.21c.92,0,1.67,1.06,1.67,2.37s-.75,2.37-1.67,2.37-1.67-1.06-1.67-2.37.75-2.37,1.67-2.37ZM41.33,91.24c0,3.66,1.77,7.03,4.62,9.13-4.54-.26-8.17-4.58-8.17-9.88s3.86-9.9,8.6-9.9c.63,0,1.23.08,1.82.23-4.06,1.76-6.87,5.84-6.87,10.42Z"
  />
  <path
    class="i"
    d="M90.71,109.49c3.27,0,6.31-.91,8.88-2.47.12-.05.24-.12.34-.2,4.42-2.82,7.34-7.61,7.34-13.03s-2.91-10.2-7.31-13.02c-.11-.09-.24-.16-.38-.22-2.57-1.55-5.61-2.46-8.87-2.46-9.13,0-16.56,7.04-16.56,15.7s7.43,15.7,16.56,15.7ZM102.22,88.42c1.36,0,2.46,1.32,2.46,2.94s-1.1,2.94-2.46,2.94-2.46-1.32-2.46-2.94,1.1-2.94,2.46-2.94ZM90.11,81.12c-4.89,2.13-8.31,7.01-8.31,12.67s3.43,10.54,8.31,12.67c-7.2-.3-12.96-5.86-12.96-12.67s5.76-12.38,12.96-12.67Z"
  />
</svg>
