<?xml version="1.0" encoding="UTF-8" ?>
<svg xmlns="http://www.w3.org/2000/svg" viewBox="0 0 191.59 239.2">
  <defs>
    <style>.b{fill:white;}</style>
  </defs>
  <path
    class="b"
    d="M185.91,204.26c-.36-13.51-6.61-26.14-16.98-34.66l11.66.27s.21,0,.24,0c1.72,0,3.25-1.18,3.63-2.99.21-.98-.06-2-.62-2.84l-10.36-15.6,12.99-93.77c.09-.66-.26-1.3-.87-1.57l-35.99-16.08-1.62-4.02s0-.01,0-.02l-5.81-14.39s0,0,0-.01l-4.73-11.74c-.92-2.29-3-3.91-5.45-4.25l-5.23-.72s-.03,0-.04,0c-.11-.01-.22-.01-.33,0-.03,0-.07,0-.1.01-.11.02-.23.05-.34.1,0,0,0,0,0,0-.03.01-.06.03-.09.05-.09.05-.17.1-.24.16-.03.02-.06.05-.08.07-.09.09-.18.18-.25.29l-17.49,27.88-18.86-.56-10.9-25.65c-.82-1.93-2.59-3.29-4.66-3.59L68.9,0s-.03,0-.05,0c-.11-.01-.22-.01-.34,0-.02,0-.05,0-.07,0-.12.02-.23.05-.35.1,0,0-.02.01-.03.01-.02,0-.03.02-.04.02-.1.05-.2.11-.28.18-.02.02-.05.04-.07.06-.1.09-.18.18-.25.29,0,0,0,0,0,0l-17.63,28.04-20.4-.6c-.78-.02-1.44.55-1.53,1.32l-13.44,110.22-13.42,14.69c-.8.87-1.19,2.09-.9,3.24.39,1.54,1.68,2.57,3.21,2.63l40.01,1.63c.06,0,.13,0,.19,0,1.41,0,2.77-.63,3.68-1.71l13.13-15.6,3.31.2c-.56,2.55-1.2,7.85-1.16,18.7.02,7.42,1.16,14.64,3.32,21.48-.25,2.52-1.8,17.99-2.46,24.01-.6,5.5-8.43,7.74-8.73,7.93-3.64,2.37-7.51,4.75-7.51,9.21,0,4.85,3.94,8.79,8.73,8.79,0,0-.02,0-.02,0l13.39.72c4.32,0,7.95-2.41,10-6.32.17,4.04,2.85,7.43,6.52,8.65,0,0,.01,0,.02,0,.94.31,3-.06,3-.06h16.6c2.56,0,4.05-.88,4.84-1.58,4.72.73,20.01,2.9,35.56,2.9s20.92-.98,26.16-2.03c.95-.19,1.91-.38,2.95-.57,10.19-1.84,16.78-9.33,16.78-19.09,0-5.01-2.07-9.8-5.68-13.26ZM183.16,204.98c-1.79,2.03-10,10.79-18.42,10.79-1.55,0-3.09,0-4.62.02-8.69.06-16.89.11-27.14-1.58-1.12-.18-2.24-.35-3.34-.5-3.01-4.7-4.67-10.48-4.67-16.38,0-12.39,7.77-23.58,19.35-27.93l19.6.46c11.72,7.93,18.87,21.02,19.23,35.12ZM125.91,213.26c-2.05-.22-4.02-.39-5.85-.52l2.33-10.13c.58,3.77,1.78,7.39,3.52,10.65ZM181.47,166.18c.21.32.09.61.03.72-.06.11-.24.4-.62.36l-43.55-1.01c-.57-.01-1.1-.3-1.43-.77l-11.68-16.7,46.93,1.86,10.32,15.54ZM183.4,55.68l-12.73,91.93-47.72-1.89,14.75-110.46,45.7,20.42ZM142.39,27.33l1.83,4.55-3.83-.73-1.9-4.3,3.9.48ZM141.1,24.15l-4.03-.5-1.7-3.84,4.35.92,1.38,3.42ZM136.87,13.67l1.5,3.71-4.49-.95-1.82-4.1,4.81,1.34ZM131.6,5.83c1.38.19,2.56,1.11,3.08,2.4l.78,1.93-4.97-1.38-1.46-3.3,2.57.35ZM126.34,6.81l11.08,25.04-.33-.15s-.04-.01-.06-.02c-.04-.02-.09-.03-.14-.05-.05-.01-.1-.03-.15-.04-.02,0-.04-.01-.06-.02-.02,0-.05,0-.07,0-.03,0-.06,0-.08-.01l-4.62-.14-5.85-12.64c-.23-.5-.71-.83-1.25-.87-.56-.04-1.07.22-1.37.68l-8.02,12.34-4.15-.12,15.07-24.02ZM128.56,31.34l-9.63-.28,5.55-8.54,4.08,8.82ZM85.62,30.08l-3.18-.09-2.65-6.15,3.41.56,2.41,5.68ZM81.82,21.13l-3.43-.56-1.45-3.37,3.45.56,1.43,3.37ZM77.42,10.77l1.58,3.72-3.47-.56-1.59-3.7,3.48.54ZM72.93,3.89c1.03.15,1.92.83,2.33,1.79l.78,1.84-3.5-.55-1.44-3.35,1.83.26ZM68.42,4.97l10.72,24.92-4.83-.19-5.65-14.53c-.22-.57-.73-.96-1.34-1.02-.61-.06-1.18.22-1.51.73l-9.21,14.35-3.37-.1,15.18-24.15ZM69.92,26.88h-8.14l5.07-7.89,3.07,7.89ZM44.85,158.6c-.36.42-.89.67-1.45.64l-40.04-1.63c-.24,0-.34-.15-.39-.27-.05-.12-.08-.3.08-.47l13.36-14.63,40.14,2.46-11.7,13.91ZM17.47,139.29L30.62,31.46l104.15,3.07-14.82,111.05-102.48-6.28ZM77.81,224.03c-.63,4.4-3.54,8.84-8.58,8.84l-8.03-.34c.12-.87.42-2.33,1.21-3.97.36-.75.04-1.64-.71-2-.75-.35-1.64-.04-2,.71-1.02,2.15-1.38,4.04-1.5,5.13l-2.35-.1c-.18,0-.36-.01-.54-.03.04-1.03.2-2.57.79-3.9.34-.76,0-1.64-.76-1.98-.76-.34-1.64,0-1.98.76-.6,1.34-.86,2.8-.98,3.99-1.41-1.06-2.33-2.74-2.33-4.64,0-3.2,2.85-4.56,5.8-5.8,1.12-.47,9.76-4.8,10.43-11.03.43-3.99,1.26-12.13,1.84-17.92,3.16,7.42,7.58,14.26,13.12,20.25-.81,2.42-3.03,9.22-3.43,12.02ZM80.85,224.04c.42-2.29,1.85-6.83,2.75-9.6,1.49,1.47,3.08,2.86,4.72,4.2-.11.05-.23.11-.33.16-2.58,1.24-5.39,2.87-7.13,5.24ZM105.02,234.88h-9.64c.1-.99.35-1.34.95-2.52.45-.88-.05-1.99-1.11-2.17-.65-.11-1.29.29-1.59.88-.85,1.67-1.15,2.54-1.26,3.82h-3.65c-.33,0-.65-.03-.96-.08.06-1.15.34-2.03,1.41-3.56.48-.68.31-1.61-.37-2.09-.68-.48-1.61-.31-2.09.37-1.18,1.69-1.66,2.6-1.85,4.09-1.63-1.19-2.69-2.11-2.69-4.28,0-2.95,2.13-5.24,7.11-7.64,1.14-.52,11.16-5.29,11.65-11.59.43-5.53,2.99-35.89,3.02-36.2.07-.83-.11-1.55-.93-1.63-.82-.06-.99.55-1.06,1.37-.03.31-3.59,30.67-4.02,36.22-.21,2.74-3.77,5.55-6.78,7.4-2.49-1.98-4.83-4.11-6.98-6.37-.06-.08-.14-.16-.22-.23-6.94-7.35-12.1-16.07-15.18-25.6-.02-.14-.07-.28-.13-.41-2.08-6.57-3.18-13.51-3.2-20.65-.04-12.06.76-16.82,1.19-18.52l53.82,3.3,13,18.59c.87,1.25,2.29,2.01,3.82,2.04h.58c-3.94,2.41-7.32,5.57-9.92,9.29.11-.66.03-1.29-.63-1.46-.8-.21-1.15.32-1.36,1.12l-9.82,34.3c-4.45-.22-7.41-.19-7.46-.19-6.5,0-11.8,5.29-11.8,11.79,0,4.78,3.01,7.93,8.19,10.45l-.03.15ZM174.45,234.48c-1.07.19-2.05.39-3.02.58-5.13,1.02-9.99,1.98-25.75,1.98s-31.86-2.34-35.83-2.97c-.19-.07-.39-.1-.58-.09-.11-.02-.2-.03-.26-.04-2.28-.75-9.16-3.55-9.16-9.83,0-4.85,3.95-8.79,8.81-8.79.13,0,11.91-.1,23.84,1.87,10.5,1.73,18.83,1.68,27.64,1.62,1.52,0,3.05-.02,4.6-.02,8.94,0,17.13-7.95,20.02-11.08,2.63,2.85,4.11,6.61,4.11,10.52,0,8.43-5.53,14.66-14.42,16.26Z"
  />
  <path
    class="b"
    d="M52.76,105.82c0,1.44,1.43,3.12,3.33,3.76-.23,1.27-1.04,2.3-2.1,2.76-.17-.03-.34-.03-.52,0-.22.04-.42.13-.6.25-.04,0-.07.01-.11.01-1.27,0-3.39-.36-3.39-2.77,0-.83-.67-1.5-1.5-1.5s-1.5.67-1.5,1.5c0,3.45,2.43,5.69,6.2,5.76,1.36,6.48,3.63,11.47,6.44,14.41.15.29.39.52.7.66,1.68,1.51,3.53,2.33,5.48,2.33,7.72,0,13.01-16.41,13.63-18.41,0,0,0,0,0,0,0,0,0-.01,0-.02,0-.03.01-.06.02-.08.02-.06.03-.13.04-.19,0-.05,0-.09,0-.14,0-.05,0-.1,0-.15,0-.05-.02-.1-.03-.15,0-.05-.01-.09-.03-.14-.01-.05-.03-.09-.05-.13-.02-.05-.03-.09-.06-.14-.02-.04-.05-.08-.08-.13-.03-.04-.05-.08-.08-.12-.04-.05-.09-.09-.13-.14-.02-.02-.04-.05-.06-.07,0,0,0,0,0,0-.05-.04-.1-.08-.16-.11-.03-.02-.06-.04-.09-.06-.03-.02-.07-.03-.1-.04-.06-.03-.11-.05-.17-.07,0,0,0,0-.01,0-.03-.01-.07-.01-.1-.02-.06-.01-.12-.03-.18-.04-.05,0-.1,0-.15,0-.04,0-.09,0-.13,0-.06,0-.11.02-.16.03-.04,0-.08.01-.12.02-.05.01-.1.04-.15.06-.04.02-.08.03-.12.05-.05.03-.1.06-.15.09-.03.02-.07.04-.1.06-.06.04-.11.1-.16.15-.02.02-.04.03-.05.05-1.63,1.88-4.69,3.04-7.99,3.04-.06,0-.11,0-.17,0-.32-.14-.68-.16-1.02-.05-4.4-.38-7.93-2.85-7.93-5.74,0-.17-.03-.33-.09-.48.01-.1.03-.19.04-.29,1.96-.61,3.44-2.32,3.44-3.79,0-1.81-2.06-3.12-4.89-3.12s-4.89,1.31-4.89,3.12ZM68,119.17c.09,0,.18,0,.27,0,2.22,0,4.33-.43,6.15-1.21-2.32,5.75-5.92,12.03-9.24,12.03-1.07,0-2.12-.44-3.13-1.24,1.1-3.66,3.14-6.95,5.94-9.59Z"
  />
  <path
    class="b"
    d="M123.98,57.54c-.28-.33-.68-.52-1.11-.53l-76.45-2.01h0l-11.19-.29c-.8-.03-1.44.55-1.53,1.32l-6.54,55.25s0,0,0,0l-2.51,21.18c-.05.41.08.83.34,1.14.27.32.65.51,1.07.53l85.63,4.45s.05,0,.08,0c.74,0,1.38-.55,1.48-1.29l11.06-78.59c.06-.42-.06-.85-.34-1.18ZM110.48,135.53l-60.65-3.16c-2.31-1.87-14.98-12.41-19.63-21.19l2.68-22.6c4.59-15.64,12.35-27.7,14.28-30.56l73.96,1.94-10.64,75.57Z"
  />
  <path
    class="b"
    d="M35.78,89.95c0,6.56,4.76,11.9,10.6,11.9.95,0,1.86-.15,2.74-.42.04,0,.07.02.11.02.27,0,.51-.12.7-.3,4.1-1.64,7.05-6.04,7.05-11.2,0-4.36-2.11-8.17-5.23-10.25-.04-.03-.08-.06-.13-.09-1.55-.99-3.33-1.57-5.24-1.57-5.84,0-10.6,5.34-10.6,11.9ZM53.77,84.66c.92,0,1.67,1.06,1.67,2.37s-.75,2.37-1.67,2.37-1.67-1.06-1.67-2.37.75-2.37,1.67-2.37ZM41.33,90.69c0,3.66,1.77,7.03,4.62,9.13-4.54-.26-8.17-4.58-8.17-9.88s3.86-9.9,8.6-9.9c.63,0,1.23.08,1.82.23-4.06,1.76-6.87,5.84-6.87,10.42Z"
  />
  <path
    class="b"
    d="M90.71,108.94c3.27,0,6.31-.91,8.88-2.47.12-.05.24-.12.34-.2,4.42-2.82,7.34-7.61,7.34-13.03s-2.91-10.2-7.31-13.02c-.11-.09-.24-.16-.38-.22-2.57-1.55-5.61-2.46-8.87-2.46-9.13,0-16.56,7.04-16.56,15.7s7.43,15.7,16.56,15.7ZM102.22,87.87c1.36,0,2.46,1.32,2.46,2.94s-1.1,2.94-2.46,2.94-2.46-1.32-2.46-2.94,1.1-2.94,2.46-2.94ZM90.11,80.57c-4.89,2.13-8.31,7.01-8.31,12.67s3.43,10.54,8.31,12.67c-7.2-.3-12.96-5.86-12.96-12.67s5.76-12.38,12.96-12.67Z"
  />
  <path
    class="b"
    d="M133.8,91.95c-1.64,11.66,6.62,14.74,6.62,14.74l13.08,2.65,6.48,11.19,1.3-9.26s10.49,1.77,12.33-11.26c1.84-13.03-7.25-14.87-7.25-14.87l-22.24-4.51s-8.68-.35-10.32,11.31ZM144.57,94.14c.2-1.36,1.49-1.1,1.49-1.1l6.53,1.31.97-6.89s.19-1.34,1.51-1.07c1.32.27,1.13,1.64,1.13,1.64l-1,6.85,6.65,1.35s1.32.27,1.13,1.64c-.19,1.37-1.62,1.08-1.62,1.08l-6.55-1.33-.96,6.82s-.52,1.3-1.5,1.1c-.98-.2-1.14-1.46-1.14-1.46l.98-6.99-6.53-1.32s-1.31-.26-1.11-1.63Z"
  />
</svg>
