<?xml version="1.0" encoding="UTF-8"?>
<svg xmlns="http://www.w3.org/2000/svg" viewBox="0 0 254 50.3">
  <defs>
    <style>
      .b{
        fill: none;
        stroke: #fff;
        stroke-linecap: round;
        stroke-miterlimit: 10;
        stroke-width: 4px;
      }
    </style>
  </defs>
  <path class="b" d="M2,48.3c2.8,0,6.5.2,11.5-.5,6.9-.9,10.3-1.4,12.5-2.5,4.5-2.3,4.3-3.5,13.5-14.5,5.3-6.3,7.1-8.7,8.5-8.5,4.5.5,4.8,6.1,10,13,4.9,6.5,8.2,11.4,12,11,3.8-.4,6.8-5.9,10-12,2.7-5,2.6-6.9,5-9,3.5-3.1,6.8-.3,12-3,2.2-1.1,3.8-3.1,7-7,5.5-6.6,5.3-8.7,9-11,1-.6,4.9-3,9-2,3.3.8,6.8,4.9,8.5,7.5,9,14,7,14,12,22s6.6,5.4,11.5,5.5c8.4.2,15.1-9.1,18-13,5.1-6.9,6.1-9.4,9.5-10.5,6-1.9,12.5,4.9,16.5,8.5,5.2,4.7,5.4,6.9,10,9,3,1.4,4.7,1.2,11,3,5.6,1.6,7.1,1.5,9,3,2.7,2.1,2.5,3.9,5,6,2.5,2.1,4.4,3.5,8,4,2.3.3,7,0,11,0"/>
</svg>
